<svg xmlns="http://www.w3.org/2000/svg" width="508" height="100"><path fill="#D9D2CB" d="M458 0H49.998C22.385 0 0 22.385 0 49.998 0 77.613 22.385 100 49.998 100H458c27.613 0 50-22.387 50-50.002C508 22.385 485.613 0 458 0z"/><path fill="#111314" d="M84.14 85.53v-2.62c6.89-.75 10.33-3.27 10.33-7.564 0-2.543-.972-3.89-2.917-4.04l-.973-.076c-2.797-.197-4.195-1.572-4.195-4.117 0-1.447.44-2.584 1.31-3.406.876-.822 2.036-1.236 3.483-1.236 2.445 0 4.367 1.226 5.766 3.67 1.197 2.048 1.795 4.394 1.795 7.038 0 4.143-1.448 7.287-4.343 9.432-2.547 1.845-5.965 2.82-10.256 2.92zM286.615 85.53v-2.62c6.887-.75 10.33-3.27 10.33-7.564 0-2.543-.97-3.89-2.92-4.04l-.97-.075c-2.796-.196-4.194-1.57-4.194-4.116 0-1.447.44-2.584 1.31-3.406.875-.822 2.035-1.236 3.482-1.236 2.447 0 4.37 1.225 5.768 3.67 1.195 2.047 1.793 4.393 1.793 7.037 0 4.142-1.447 7.286-4.34 9.43-2.547 1.845-5.965 2.82-10.258 2.92zM430.53 50.367c0-9.542 2.024-18.344 6.08-26.396C441.63 13.99 448.51 9 457.233 9c8.633 0 15.377 4.247 20.225 12.735 4.05 7.006 6.08 15.15 6.08 24.425 0 9.637-2.03 18.344-6.08 26.136C472.52 82.1 465.645 87 456.833 87c-8.373 0-15.023-4.2-19.96-12.604-4.23-7.177-6.345-15.186-6.345-24.03zm11.1-4.334c0 12.604 1.896 22.41 5.69 29.415 2.64 4.9 6.033 7.353 10.176 7.353 9.96 0 14.94-10.243 14.94-30.728 0-9.016-.792-16.635-2.376-22.85-2.734-10.24-7.36-15.365-13.887-15.365-9.697 0-14.543 9.896-14.543 29.68v2.496zM369.53 50.367c0-9.542 2.022-18.344 6.077-26.396C380.63 13.99 387.51 9 396.232 9c8.633 0 15.38 4.247 20.227 12.735 4.05 7.006 6.077 15.15 6.077 24.425 0 9.637-2.027 18.344-6.078 26.136C411.52 82.1 404.645 87 395.833 87c-8.375 0-15.023-4.2-19.96-12.604-4.23-7.177-6.345-15.186-6.345-24.03zm11.1-4.334c0 12.604 1.896 22.41 5.69 29.415 2.64 4.9 6.034 7.353 10.175 7.353 9.96 0 14.94-10.243 14.94-30.728 0-9.016-.792-16.635-2.374-22.85-2.733-10.24-7.362-15.365-13.886-15.365-9.7 0-14.543 9.896-14.543 29.68v2.496zM308.213 50.367c0-9.542 2.027-18.344 6.082-26.396C319.315 13.99 326.193 9 334.92 9c8.633 0 15.375 4.247 20.223 12.735 4.05 7.006 6.082 15.15 6.082 24.425 0 9.637-2.03 18.344-6.082 26.136C350.205 82.1 343.33 87 334.518 87c-8.37 0-15.023-4.2-19.96-12.604-4.228-7.177-6.345-15.186-6.345-24.03zm11.1-4.334c0 12.604 1.896 22.41 5.692 29.415 2.64 4.9 6.03 7.353 10.176 7.353 9.958 0 14.94-10.243 14.94-30.728 0-9.016-.79-16.635-2.376-22.85-2.734-10.24-7.36-15.365-13.887-15.365-9.695 0-14.543 9.896-14.543 29.68v2.496zM226.86 50.367c0-9.542 2.028-18.344 6.083-26.396 5.02-9.98 11.9-14.97 20.625-14.97 8.633 0 15.375 4.247 20.223 12.735 4.052 7.006 6.083 15.15 6.083 24.425 0 9.637-2.03 18.344-6.082 26.136C268.855 82.1 261.98 87 253.167 87c-8.37 0-15.023-4.2-19.96-12.604-4.227-7.177-6.345-15.186-6.345-24.03zm11.103-4.334c0 12.604 1.895 22.41 5.69 29.415 2.642 4.9 6.032 7.353 10.177 7.353 9.957 0 14.938-10.243 14.938-30.728 0-9.016-.79-16.635-2.375-22.85-2.734-10.24-7.36-15.365-13.887-15.365-9.695 0-14.543 9.896-14.543 29.68v2.496zM165.86 50.367c0-9.542 2.026-18.344 6.08-26.396C176.964 13.99 183.843 9 192.567 9c8.633 0 15.377 4.247 20.225 12.735 4.052 7.006 6.08 15.15 6.08 24.425 0 9.637-2.028 18.344-6.08 26.136C207.855 82.1 200.98 87 192.167 87c-8.373 0-15.023-4.2-19.96-12.604-4.23-7.177-6.345-15.186-6.345-24.03zm11.103-4.334c0 12.604 1.895 22.41 5.69 29.415 2.64 4.9 6.032 7.353 10.175 7.353 9.96 0 14.94-10.243 14.94-30.728 0-9.016-.792-16.635-2.376-22.85-2.734-10.24-7.36-15.365-13.887-15.365-9.697 0-14.543 9.896-14.543 29.68v2.496zM104.547 50.367c0-9.542 2.025-18.344 6.08-26.396 5.02-9.98 11.9-14.97 20.625-14.97 8.633 0 15.377 4.247 20.225 12.735 4.05 7.006 6.08 15.15 6.08 24.425 0 9.637-2.03 18.344-6.08 26.136C146.54 82.1 139.664 87 130.852 87c-8.373 0-15.023-4.2-19.96-12.604-4.23-7.177-6.345-15.186-6.345-24.03zm11.1-4.334c0 12.604 1.896 22.41 5.69 29.415 2.64 4.9 6.033 7.353 10.176 7.353 9.96 0 14.94-10.243 14.94-30.728 0-9.016-.792-16.635-2.376-22.85-2.734-10.24-7.36-15.365-13.887-15.365-9.697 0-14.543 9.896-14.543 29.68v2.496zM61.793 9v62.507c0 7.48 3.225 11.216 9.686 11.216h1.683V87h-34.11v-4.277h2.14c6.247 0 9.368-3.737 9.368-11.216V30.504c0-7.563-2.694-11.352-8.08-11.352h-3.427v-4.14h1.236c6.66 0 12.69-2.006 18.08-6.012h3.423z"/></svg>