<svg xmlns="http://www.w3.org/2000/svg" width="100" height="100"><circle fill="#FBF8E0" cx="50" cy="50.069" r="50"/><path fill="#111314" d="M34.564 77.88c1.674-1.962 6.073-1.816 6.656 2.139.354 2.411 1 10.11 1.808 13.347.427 1.712 1.257 3.155 2.339 3.225 1.922.124 6.614-3.749 7.614-5.566 1.773-3.229 3.058-6.877 4.27-10.784.475-1.525 2.1-1.599 2.994-.123 1.665 2.753 4.891 7.428 7.625 10.794.722.887 1.591.788 1.793-.628.731-5.124 1.84-11.178 3.859-16.653.668-1.809 2.553-2.012 4.031-1.112.836.509 3.529 1.854 4.547 2.168 1.747.541 3.232.658 5.476-1.01 1.722-1.282 1.854-2.533.954-3.905-1.847-2.821-4.365-4.995-6.375-7.91-1.108-1.607-.998-2.753.407-3.585 3.611-2.139 6.763-4.583 9.646-6.955 1.06-.871 1.827-2.167 2.07-4.379.351-3.173.56-4.755-.833-5.149-1.367-.389-2.198.591-7.983 2.088-1.374.355-2.971.571-3.511-.167-.554-.758-.187-2.205.998-3.511 1.775-1.958 4.089-4.279 5.896-6.985.866-1.298 1.938-3.411 1.088-4.679-.929-1.384-3.298-.618-4.414-.127-1.554.685-4.609 1.339-6.469 1.608-2.421.352-4.232.259-4.971-.517-.658-.692-.862-2.343-.148-4.159 1.054-2.679 2.957-5.137 4.527-6.449 1.396-1.166 1.275-1.848.204-2.753-.858-.726-3.479-1.218-5.473-.613-2.937.89-5.728 2.351-8.333 4.309-1.47 1.105-3.445 1.655-5.008 1.386-1.283-.221-2.67-1.268-3.031-3.363-.801-4.66-1.85-9.359-3.03-11.993-.721-1.607-1.27-2.191-2.254-2.181-.961.011-1.571.776-2.403 2.365-1.322 2.527-2.68 7.618-3.695 11.809-.592 2.439-1.679 3.403-3.604 4.564-1.072.647-2.088.222-2.643-1.146-.553-1.363-2.465-5.932-3.086-7.799-.407-1.219-.906-1.293-1.701-.129-1.811 2.653-4.822 7.706-6.135 10.479-.775 1.636-.941 3.164.073 4.194 1.356 1.377 1.884 2.063 1.109 2.864-.536.555-2.913.186-5.519-.406-1.726-.392-4.664-.851-7.344 0-2.212.703-3.629 1.833-3.844 3.277-.172 1.158 2.106 4.43 3.443 5.556.989.834 1.446 1.512 1.547 2.237.203 1.478 0 3.382-.832 4.619-.438.651-1.83.666-4.62.832-6.253.372-8.985 1.563-9.296 6.006-.223 3.189 2.099 5.089 5.618 4.25 1.565-.373 2.976-.517 4.731-.148 1.719.362 4.822 1.275 4.842 2.939.022 2.069-3.217 2.551-6.344 3.712-1.248.463-.92 1.666.135 1.851 1.035.181 12.755 3.258 14.945 5.948 1.213 1.491-.172 4.784-.976 6.692-.788 1.873-.388 7.355.333 7.539.752.193 2.458-1.534 3.63-2.761 1.496-1.564 3.126-3.347 4.667-5.152z"/><path stroke="#FBF8E0" stroke-width="2.5" stroke-miterlimit="10" d="M69.888 50.069c0 10.982-8.903 19.885-19.884 19.885-10.988 0-19.891-8.902-19.891-19.885 0-10.981 8.902-19.884 19.891-19.884 10.98.001 19.884 8.903 19.884 19.884z" fill="none"/></svg>