<svg xmlns="http://www.w3.org/2000/svg" width="100" height="100"><path fill="#CBBEB5" d="M85.35 14.637c9.05 9.05 14.65 21.55 14.65 35.36C100 77.613 77.614 100 50 100c-13.807 0-26.306-5.596-35.355-14.646"/><path fill="#FCF9E1" d="M14.646 85.354C5.596 76.307 0 63.804 0 49.997 0 22.384 22.386 0 50 0c13.803 0 26.3 5.593 35.35 14.637"/><path fill="#111314" d="M89.62 65.99c0 2.702-.982 4.544-2.947 5.526-.574.287-2.374.677-5.404 1.166-1.964.33-2.947 1.086-2.947 2.27v4.974c0 .21.062.84.184 1.905l.185 1.967c0 .613-.144 1.617-.43 3.008-.778.163-1.68.348-2.702.554-.328-1.23-.49-2.07-.49-2.52 0-.203.05-.512.152-.92.102-.41.154-.717.154-.923 0-.284-.253-1.083-.762-2.393h-.953c-.125.204-.166.47-.126.797.164.697.225 1.29.185 1.782-.698.49-1.658 1.146-2.886 1.965-.29-.083-.39-.123-.308-.123v-4.36c-.08-.203-.285-.285-.614-.246h-.737l-.737 5.77c-.573.042-1.268.042-2.086 0-.287-1.35-.8-3.353-1.535-6.015h-.493c-.45 1.433-.695 2.21-.737 2.334 0 .163.052.48.155.95.1.472.153.788.153.952 0 .12-.042.43-.125.92l-.184 1.474c-.083.08-.183.12-.306.12-1.228 0-2.048-.306-2.455-.918-.412-.615-.576-1.475-.493-2.58l.493-7.366c0-.122.04-.287.12-.492.083-.203.124-.348.124-.428 0-.328-.35-.984-1.044-1.967-.123-.04-.757-.184-1.904-.43-.695-.163-2.067-.45-4.112-.858-2.825-.53-4.238-2.803-4.238-6.815 0-5.977 2.457-10.95 7.367-14.92.203 1.107.553 2.578 1.044 4.42l2.394.554c.247.08 1.494.532 3.745 1.35-1.145-.694-2.64-1.818-4.48-3.375-.697-.82-1.046-2.19-1.046-4.114 0-.452.778-.982 2.335-1.6 1.39-.57 2.434-.896 3.13-.98 2.21-.285 3.91-.43 5.097-.43 5.114 0 9.25 1.31 12.4 3.932-1.022 1.188-2.783 2.453-5.28 3.806.983.04 2.416-.347 4.3-1.168 1.88-.816 2.68-1.227 2.393-1.227.327 0 .983.654 1.965 1.963.735.982 1.33 1.864 1.78 2.64 1.31 2.333 2.19 4.852 2.64 7.552 0 .942.02 1.617.062 2.025v.49zm-23.516 1.108c0-1.76-.767-3.43-2.3-5.006-1.537-1.576-3.186-2.363-4.945-2.363-1.556 0-2.926.66-4.114 1.976-1.187 1.32-1.78 2.782-1.78 4.39 0 1.4.675 2.308 2.027 2.718.86.248 2.066.392 3.62.434h3.378c2.743.037 4.114-.68 4.114-2.15zm6.693 7.612v-1.902c-.286-.533-.573-1.087-.858-1.66-.247-.817-.698-1.963-1.352-3.44l-.676 7.185c0 .576-.122.86-.37.86-.162 0-.286-.04-.367-.122-.287-4.337-.43-6.22-.43-5.646v-2.148c-.082-.126-.184-.187-.307-.187-1.39 1.435-2.086 3.747-2.086 6.937 0 1.76.163 2.844.49 3.257.33-.083.695-.226 1.107-.43.162-.084.632-.124 1.41-.124.775 0 1.72.245 2.823.735.41 0 .614-1.104.614-3.315zm13.876-8.556c0-1.646-.614-3.12-1.842-4.418-1.227-1.296-2.64-1.945-4.233-1.945-1.72 0-3.328.788-4.82 2.363-1.496 1.576-2.243 3.223-2.243 4.944 0 1.432.697 2.148 2.088 2.148h7.06c2.66-.04 3.99-1.07 3.99-3.09zM54.667 38.264C52.23 36 50.613 34.772 49.82 34.582c-.578-.138-1.136.198-1.673 1.005-.537.808-1.292 1.094-2.268.86-.398-.096-1.176-.433-2.334-1.018-.938.884-1.44 1.47-1.51 1.757-.096.398.088.938.55 1.623.46.683.893 1.07 1.3 1.17.257.06.622.09 1.09.088.468 0 .777.015.926.05.444.107.47.972.08 2.598-.37 1.552-1.303 3.852-2.795 6.892-.058-3.91-.61-5.99-1.655-6.24-.145-.034-.47.004-.972.113-.505.107-.864.138-1.08.086-1.048-.25-1.758-1.433-2.13-3.547-1.723-.145-2.758.505-3.104 1.95-.173.724.024 1.38.59 1.974.563.593.823.98.782 1.16-.233.977-2.02 2.133-5.356 3.473-1.777.723-3.007 1.23-3.688 1.524.66-.528 1.37-1.257 2.126-2.183.862-1.054 1.372-1.906 1.528-2.558.086-.358-.208-.965-.883-1.814-.676-.85-.926-1.634-.753-2.355.146-.615.543-1.32 1.194-2.12-.34-.655-.834-1.06-1.485-1.214-1.443-.348-2.278-.05-2.503.89l-.35 1.463c-.25 1.197-1.295 1.577-3.137 1.138-1.41-.337-3.696-1.228-6.864-2.673 3.982-.04 6.12-.674 6.412-1.903-.033.146-.003-.307.096-1.353.123-1.153 1.16-1.977 3.108-2.465.073-1.736-.593-2.775-2.003-3.112-.217-.054-.707.23-1.464.85-.76.62-1.392.872-1.898.75-.867-.206-1.762-1.414-2.684-3.62-.426-1.096-1.087-2.724-1.982-4.886l2.18 1.897c.964.765 1.77 1.225 2.42 1.382.506.12 1.108-.203 1.808-.973.698-.766 1.446-1.056 2.24-.866.11.026.78.414 2.012 1.17.937-.883 1.466-1.58 1.588-2.085.102-.432-.04-.992-.43-1.678-.39-.685-.803-1.078-1.236-1.184-.18-.043-.472-.057-.877-.038-.406.018-.7.006-.88-.04-.65-.154-.78-1.044-.39-2.668.1-.436 1.11-2.81 3.02-7.125-.165.53-.172 1.6-.02 3.203.18 1.953.687 3.025 1.518 3.226.144.033.46-.006.945-.12.485-.112.853-.14 1.105-.078.83.2 1.404.833 1.722 1.9l.463 1.658c.757.18 1.455.062 2.09-.358.635-.42 1.045-1.012 1.226-1.77.19-.793 0-1.48-.568-2.055-.57-.576-.83-.97-.775-1.188.18-.76 1.68-1.756 4.495-2.99 2.26-.986 3.71-1.538 4.35-1.652-2.055 1.724-3.2 3.07-3.432 4.047-.12.506.055 1.122.53 1.847.596.867.913 1.46.95 1.772.163.92-.145 2.048-.923 3.39.81.92 1.47 1.438 1.977 1.56 1.044.25 1.7-.167 1.958-1.25.027-.108.063-.462.112-1.06.046-.6.098-.932.15-.997.268-.47 1.32-.485 3.163-.045 1.156.277 3.48 1.175 6.972 2.7-.846.025-2.116.064-3.81.12-1.548.086-2.387.402-2.518.944-.06.252-.074.707-.04 1.364.034.657.016 1.13-.053 1.42-.12.505-.558.895-1.31 1.174l-2.157.86c.246.9.42 1.437.53 1.615.26.52.694.854 1.308 1 .434.105.922-.18 1.465-.853.542-.67 1.212-.91 2.006-.722.975.233 1.86 1.4 2.658 3.5.442 1.175 1.14 2.964 2.093 5.37zm-11.275-6.02c.552-2.31.183-4.52-1.108-6.624-1.292-2.104-3.094-3.433-5.404-3.984-2.348-.562-4.573-.208-6.67 1.067-2.1 1.27-3.45 3.078-4.046 5.417-.59 2.303-.21 4.505 1.14 6.604 1.35 2.097 3.18 3.424 5.494 3.977 2.455.587 4.698.275 6.725-.94 2.025-1.213 3.315-3.054 3.87-5.516zm-.814-.195c-.527 2.202-1.703 3.85-3.53 4.938-1.826 1.092-3.843 1.373-6.044.846-2.13-.51-3.777-1.687-4.94-3.53-1.163-1.844-1.49-3.83-.98-5.963.504-2.094 1.7-3.707 3.593-4.84 1.896-1.13 3.89-1.444 5.984-.944 2.095.5 3.728 1.694 4.9 3.578 1.17 1.885 1.51 3.855 1.018 5.915z"/></svg>