<svg xmlns="http://www.w3.org/2000/svg" width="100" height="100"><path fill="#A8C796" d="M100 49.998C100 77.613 77.615 100 49.998 100 22.385 100 0 77.613 0 49.998 0 22.385 22.385 0 49.998 0 77.615 0 100 22.385 100 49.998z"/><path fill="#111314" d="M93.762 56.225c0 1.668-.645 3.164-1.936 4.498-1.29 1.332-2.77 1.998-4.436 1.998-2.662 0-4.623-1.25-5.87-3.747l-5.87-.25c-1.252 0-3.71.543-7.37 1.625-3.915 1.082-6.165 1.957-6.747 2.623-.916 1-1.664 3.333-2.248 6.997-.502 2.998-.748 5.205-.748 6.62 0 2.247.352 3.894 1.06 4.935s2.167 1.916 4.372 2.623 3.56 1.104 4.06 1.186c.332 0 .873-.04 1.625-.124h1.498c1.08 0 2.205.17 3.373.5 1.666.5 2.375 1.166 2.125 2-1.167-.166-3.206.084-6.12.75l3.496 1.748c0 1-1.416 1.498-4.246 1.498-.752 0-1.77-.166-3.062-.498-1.29-.336-2.145-.5-2.56-.5h-1.624c-.082.832-.334 2.08-.75 3.746-1.418-.084-3.08-.918-4.996-2.498-1.918-1.58-3.123-2.373-3.62-2.373-.503 0-1.212.792-2.126 2.372-.918 1.58-1.375 2.664-1.375 3.248-1.082-.584-1.996-1.668-2.75-3.248-.332-1.084-.707-2.166-1.12-3.248-.833.084-2.376 1.834-4.622 5.248h-.627c-.166-.252-.795-2-1.873-5.248-2.582-.832-4.996-1.248-7.246-1.248-1.083 0-2.75.25-4.997.748l-3.496-.248c.498-.5 1.955-1.457 4.37-2.873 2.83-1.666 4.997-2.5 6.497-2.5.246 0 .578.043 1 .125.414.086.75.125 1 .125.578 0 1.518-.31 2.81-.938 1.29-.623 2.038-1.186 2.245-1.684.21-.503.315-1.792.315-3.874 0-4.746-1.25-8.285-3.75-10.617-2.168-2.083-5.746-3.58-10.744-4.5-1.33 4.747-5.08 7.124-11.24 7.124-2 0-3.997-1.207-5.995-3.623C7.45 62.306 6.45 60.1 6.45 58.1c0-3.082 1.286-5.62 3.868-7.623-2.08-2.162-3.12-4.37-3.12-6.617 0-2.084.642-3.914 1.935-5.5 1.29-1.578 2.977-2.496 5.06-2.748-.167-2.662.706-4.496 2.622-5.496-.916-.914-1.373-2.537-1.373-4.87 0-2.747.916-5.038 2.748-6.87 1.83-1.832 4.12-2.75 6.87-2.75 3 0 5.456 1.045 7.37 3.125 2.416-8.243 7.62-12.366 15.613-12.366 4.164 0 7.828 1.666 10.994 4.998 1.166 1.248 1.748 1.916 1.748 1.996-1 0-.498-.188 1.5-.56 1.996-.376 3.453-.563 4.373-.563 3.246 0 6.12 1.207 8.62 3.623 2.163 2.166 3.663 4.912 4.497 8.244.58.084 1.498.332 2.748.748 1.83.92 2.748 2.498 2.748 4.748 0 .418-.335 1.21-1 2.373 5.33 3 7.995 7.163 7.995 12.493 0 1.498-.582 3.584-1.748 6.246 2.165 1.247 3.245 3.08 3.245 5.495zM42.295 61.72V60.1c0-1.914-.936-3.664-2.81-5.246-1.874-1.582-3.77-2.373-5.683-2.373-2.334 0-4.496.54-6.496 1.62 4.413-.248 9.41 2.293 14.99 7.62zM40.05 46.233c-1.25-1.418-2.333-2.875-3.25-4.373-3.5.915-5.247 1.956-5.247 3.12 1-.08 2.457.105 4.37.564s3.292.688 4.126.688zm7.62-3.873v-5.497c-2-.332-3.21-.5-3.623-.5v1.873l3.623 4.123zm16.238-3.5c-1-.415-2.875-1.25-5.62-2.497v10.742c3.91-2.25 5.784-4.998 5.62-8.244zm6.867 14.742L68.03 50.23c-1.665 1.167-3.353 2.353-5.062 3.56s-3.186 2.562-4.432 4.06c3.747-2.002 7.83-3.414 12.24-4.248z"/></svg>