<svg xmlns="http://www.w3.org/2000/svg" width="100" height="100"><path fill="#D7D1C9" d="M100 49.998C100 77.612 77.617 100 50 100 22.387 100 0 77.612 0 49.998S22.387 0 50 0c27.617 0 50 22.384 50 49.998z"/><path fill="#111314" d="M54.91 65.695c0 3.99.654 6.794 1.963 8.414 1.31 1.62 3.52 2.43 6.64 2.43l.747-.094V80H35.463v-3.553h.934c3.117.063 5.33-.716 6.64-2.337 1.307-1.62 1.962-4.394 1.962-8.32V53.26L26.673 26.427 24.71 23.81c-.56-.75-1.09-1.34-1.59-1.777-.81-.686-1.667-1.17-2.57-1.45-.904-.28-2.073-.514-3.506-.7v-3.648H45v3.553c-2.806.25-4.71.64-5.704 1.168-.998.53-1.496 1.512-1.496 2.945 0 .625.124 1.25.373 1.87.25.625.592 1.28 1.03 1.964l14.21 20.57 10.38-15.24c.995-1.372 1.712-2.556 2.15-3.554.434-.996.714-1.93.84-2.804v-.75c0-1.93-.53-3.365-1.59-4.3-1.06-.935-2.898-1.526-5.515-1.775v-3.646H82.77v3.553c-.747.125-1.434.296-2.055.514-.624.22-1.216.516-1.777.89-.998.56-2.026 1.45-3.085 2.665-1.06 1.215-2.337 2.915-3.833 5.096L54.91 53.26v12.435z"/></svg>