<svg xmlns="http://www.w3.org/2000/svg" width="100" height="100"><path fill="#A8C796" d="M100 49.998C100 77.613 77.615 100 49.998 100 22.385 100 0 77.613 0 49.998 0 22.385 22.385 0 49.998 0 77.615 0 100 22.385 100 49.998z"/><path fill="#161818" d="M77.562 49.925c.058-5.344-1.64-10.74-4.967-14.928-1.608-1.77-2.93-3.787-4.633-5.46-3.754-3.727-9.375-3.975-13.897-6.322-.263-2.358-1.125-4.715-.603-7.093.16-.79.392-1.593-.03-2.348-1.185-2.733-.166-5.7-.377-8.548C52.895 3.74 52.998 1.92 51.58 1c-.33 3.097-1.468 5.98-2.39 8.918-.427 2.29-.427 4.676-1.414 6.836.626 2.188-.614 4.03-1.956 5.646-2.966 1.52-6.496 1.88-9.077 4.11-1.84 1.56-3.828 2.93-5.888 4.202-1.545 1.933-3.256 3.797-3.944 6.24-2.76 3.335-3.087 7.81-4.653 11.717-.03 5.798 1.146 12.042 4.85 16.69 2.65 2.188 4.502 5.132 7.148 7.32 2.54 1.516 5.25 2.762 7.874 4.127 1.71.4 3.474.595 5.175 1.06 1.38 7.11 2.322 14.39 5.092 21.132.92-2.77.808-5.736 1.6-8.533 1.12-4.135-1.175-8.44.118-12.5 1.938-1.733 5.17-.608 7.32-2.095 4.092-2.523 8.422-4.98 11.39-8.84 1.105-2.22 3.426-3.876 3.426-6.54.02-3.586 2.11-6.943 1.312-10.567zm-30.374 21.93c-2.965-.72-5.727-2.138-8.214-3.87-2.676-1.784-3.674-5.11-6.314-6.934-2.472-2.95-1.937-6.98-2.95-10.475.406-2.438.885-4.856 1.138-7.325 1.206-1.956 3.067-3.515 3.583-5.87 1.768-2.532 4.46-4.284 6.62-6.48 1.572-1.813 4.074-1.048 6.14-1.12-.206 2-.37 4.07.132 6.042.244 1.212.79 2.407.603 3.676-.414 2.7.6 5.407-.117 8.075-1.443 5.577.13 11.21.268 16.832-.205 2.49-.32 5-.888 7.45zm22.477-10.57c-1.964 1.397-3.637 3.11-5.35 4.785-2.98 2.06-5.924 4.24-9.47 5.27.32-2.53.632-5.13-.174-7.608-1.977-5.593.447-11.445.856-17.1-.36-3.365-.016-6.953-1.558-10.05-.202-2.327.804-4.574 1.486-6.764 2.342.935 4.547 2.197 6.496 3.82 2.354 1.765 5.96 2.91 6.487 6.2.27 2.16 2.634 3.466 2.565 5.677-.148 5.256.577 10.752-1.337 15.77z"/></svg>