<svg xmlns="http://www.w3.org/2000/svg" width="100" height="100"><circle fill="#D9D2CB" cx="50" cy="49.998" r="50"/><path fill="#111314" d="M35.63 19.215v49.18c0 5.875 2.428 8.816 7.277 8.816h1.278v3.446H18V77.21h1.533c4.938 0 7.406-2.94 7.406-8.815v-32.32c0-5.955-2.044-8.94-6.13-8.94h-2.68v-3.32h1.02c5.108 0 9.708-1.532 13.794-4.6h2.686zm50.965 46.367l-4.47 15.203h-37.43v-3.32c1.793-2.043 5.75-6.133 11.882-12.266 3.66-3.66 7.324-7.58 10.988-11.75 1.788-2.048 3.19-3.747 4.215-5.114 2.126-3.232 3.19-6.465 3.19-9.703s-.98-6.092-2.936-8.56c-1.96-2.472-4.56-3.706-7.79-3.706-6.732 0-12.013 4.598-15.844 13.8l-3.32-1.28c4.6-12.775 11.75-19.164 21.46-19.164 4.767 0 8.857 1.62 12.262 4.855 3.404 3.238 5.11 7.28 5.11 12.137 0 6.215-3.535 12.262-10.6 18.14l-7.28 5.874c-4.69 3.92-8.562 7.624-11.63 11.11-.253.262-.68.73-1.272 1.41h19.544c2.98 0 5.192-.557 6.643-1.664 1.445-1.102 2.766-3.107 3.956-6.004h3.322z"/></svg>