<svg xmlns="http://www.w3.org/2000/svg" width="100" height="100"><circle fill="#D9D2CB" cx="50" cy="49.998" r="50"/><path fill="#111314" d="M39.831 18.32v50.84c0 6.049 2.516 9.07 7.536 9.07h1.279v3.449h-27.081v-3.449h1.788c5.109 0 7.667-3.021 7.667-9.07v-33.34c0-6.133-2.173-9.195-6.518-9.195h-2.682v-3.449h1.024c5.28 0 10.047-1.617 14.304-4.855h2.683zm32.449 0v50.84c0 6.049 2.511 9.07 7.537 9.07h1.278v3.449h-27.085v-3.449h1.788c5.115 0 7.667-3.021 7.667-9.07v-33.34c0-6.133-2.173-9.195-6.513-9.195h-2.682v-3.449h1.019c5.28 0 10.047-1.617 14.31-4.855h2.681z"/></svg>