<svg xmlns="http://www.w3.org/2000/svg" width="100" height="100"><circle fill="#D9D2CB" cx="50" cy="49.998" r="50"/><path fill="#111314" d="M39.83 18.32v50.84c0 6.05 2.517 9.07 7.537 9.07h1.28v3.45H21.564v-3.45h1.788c5.11 0 7.667-3.02 7.667-9.07V35.82c0-6.133-2.173-9.195-6.518-9.195H21.82v-3.45h1.024c5.28 0 10.047-1.616 14.304-4.854h2.683zm32.45 0v50.84c0 6.05 2.51 9.07 7.537 9.07h1.278v3.45H54.01v-3.45h1.788c5.115 0 7.667-3.02 7.667-9.07V35.82c0-6.133-2.173-9.195-6.513-9.195H54.27v-3.45h1.02c5.28 0 10.046-1.616 14.31-4.854h2.68z"/></svg>