<svg xmlns="http://www.w3.org/2000/svg" width="100" height="100"><circle fill="#D9D2CB" cx="50" cy="49.998" r="50"/><path fill="#111314" d="M35.975 19.214V68.65c0 5.88 2.428 8.815 7.28 8.815h1.28v3.32H18.22v-3.32h1.663c5.02 0 7.537-2.937 7.537-8.815V36.205c0-5.962-2.133-8.94-6.39-8.94h-2.556v-3.32h1.023c5.11 0 9.71-1.575 13.795-4.73h2.683zm22.61 30.4l-1.278-1.018c-4.002-2.724-6.643-4.896-7.916-6.513-1.532-2.13-2.302-4.6-2.302-7.412 0-4.682 2-8.513 6.002-11.496 3.576-2.807 7.84-4.216 12.777-4.216 4.6 0 8.686 1.195 12.262 3.576 3.917 2.73 5.878 6.347 5.878 10.858 0 5.452-3.748 9.84-11.244 13.16 8.604 4.174 12.902 10.006 12.902 17.5 0 5.365-2.086 9.622-6.26 12.772-3.574 2.812-8.133 4.215-13.67 4.215-5.28 0-9.79-1.32-13.54-3.962-4.34-2.978-6.513-6.938-6.513-11.876 0-5.026 2.34-9.112 7.027-12.268 1.192-.844 3.15-1.952 5.874-3.32zm3.575 1.41c-6.215 2.895-9.324 7.406-9.324 13.54 0 3.92 1.28 7.09 3.83 9.517 2.56 2.43 5.75 3.64 9.586 3.64 3.576 0 6.596-.956 9.07-2.874 2.47-1.913 3.7-4.574 3.7-7.984 0-5.192-3.32-9.366-9.964-12.516l-6.898-3.322zm7.028-6.133c5.537-2.468 8.3-6.127 8.3-10.98 0-3.322-1.167-6.005-3.507-8.053-2.343-2.043-5.218-3.062-8.622-3.062-2.812 0-5.322.806-7.537 2.422-2.218 1.622-3.32 3.837-3.32 6.644 0 3.41 1.575 6.134 4.726 8.177.68.426 3.492 1.788 8.43 4.09l1.532.764z"/></svg>