<svg xmlns="http://www.w3.org/2000/svg" width="100" height="100"><circle fill="#D9D2CB" cx="50" cy="49.998" r="50"/><path fill="#111314" d="M85.332 58.918h-36.004l13.184-9.383c-4.898-3.887-10.566-5.828-16.984-5.828-3.211 0-5.414.613-6.59 1.836-1.184 1.227-1.777 3.445-1.777 6.654 0 8.873 4.562 18.34 13.691 28.396l-10.391 10.524c-12.09-14.705-18.129-27.844-18.129-39.424 0-6.928 2.086-12.447 6.27-16.545 4.179-4.097 9.746-6.148 16.668-6.148 8.453 0 17.664 3.213 27.641 9.633l7.727-13.18 4.694 33.465z"/></svg>