<svg xmlns="http://www.w3.org/2000/svg" width="100" height="100"><path fill="#A8C796" d="M85.35 14.637c9.05 9.05 14.65 21.55 14.65 35.36C100 77.613 77.613 100 50 100c-13.807 0-26.305-5.596-35.354-14.646"/><path fill="#F5A477" d="M14.646 85.354C5.596 76.307 0 63.804 0 49.997 0 22.384 22.387 0 50 0c13.802 0 26.3 5.593 35.35 14.637"/><path fill="#111314" d="M51.937 38.077c-1.718 4.1-5.13 6.146-10.24 6.146-.937 0-1.952.115-3.044.35-1.64.352-2.457.84-2.457 1.464 0 .195.136.418.41.674.27.254.507.38.702.38-.977 0-.313.03 1.987.087 2.302.06 3.746.09 4.332.09-3.395 1.987-9.07 2.905-17.03 2.748-2.613-.037-4.856-1.188-6.728-3.45-1.835-2.147-2.75-4.546-2.75-7.197 0-2.81.944-5.2 2.838-7.17 1.89-1.968 4.242-2.954 7.05-2.954.624 0 1.454.137 2.487.41 1.034.272 1.727.408 2.077.408 1.444 0 3.238-.596 5.384-1.785 2.146-1.19 3.16-1.785 3.044-1.785-.39 4.096-1.756 6.848-4.097 8.25-1.68.978-2.516 1.934-2.516 2.868 0 .586.35 1.054 1.052 1.406.545.27 1.15.408 1.814.408 1.014 0 2.008-.623 2.984-1.872.974-1.247 1.403-2.38 1.286-3.395-.115-1.17-.037-2.576.235-4.212.076-.47.36-1.045.847-1.726.488-.685.928-1.105 1.317-1.262 0 .353-.128.938-.38 1.755-.255.82-.38 1.427-.38 1.815 0 .86.232 1.522.7 1.99.703-.272 1.326-1.15 1.873-2.634.468-1.13.74-2.224.82-3.276-1.64-.076-3.21-.82-4.712-2.225-1.502-1.404-2.252-2.926-2.252-4.563 0-.272.037-.546.117-.82.232.353.583.9 1.054 1.64.66.974 1.17 1.462 1.52 1.462.47 0 .702-.488.702-1.462 0-1.248-.33-2.38-.994-3.394-.742-1.21-1.698-1.814-2.867-1.814-.548 0-1.366.292-2.458.878-1.093.584-2.088.877-2.982.877-.274 0-1.484-.353-3.63-1.054 3.783-.624 5.676-1.19 5.676-1.698 0-1.326-2.593-2.223-7.782-2.69-.507-.038-1.442-.116-2.808-.235.155-.193 1.268-.408 3.336-.644 1.755-.192 2.983-.293 3.685-.293 9.286 0 15.176 4.507 17.674 13.52.43-.357.646-.95.646-1.78 0-1.068-.312-2.412-.937-4.034-.235-.634-.607-1.584-1.113-2.848 3.197 4.075 4.8 7.937 4.8 11.583 0 1.92-.45 3.666-1.348 5.23-.583 1.06-1.678 2.413-3.276 4.06-1.6 1.646-2.69 2.92-3.277 3.822 2.145-.586 3.55-1.036 4.214-1.347 1.48-.664 2.827-1.66 4.036-2.985 0 .51-.216 1.27-.643 2.282zM26.422 15.08c0 .702-.39 1.15-1.17 1.347l-1.52.234c-.55.272-1.348 1.347-2.4 3.22-.117-.585-.292-1.405-.527-2.46-.35.04-.936.354-1.755.937-.35.273-.917.684-1.698 1.23.235-1.405 1.017-2.827 2.342-4.272 1.404-1.6 2.77-2.397 4.096-2.397 1.755 0 2.632.72 2.632 2.162zm10.182 5.385c0 .66-.36 1.22-1.083 1.668-.72.448-1.433.673-2.134.673-.938 0-1.777-.525-2.517-1.582-.9-1.285-1.815-2.124-2.752-2.515.193-.196.43-.294.704-.294.35 0 .944.27 1.783.82.837.547 1.374.818 1.61.818.194 0 .516-.27.964-.82s.944-.818 1.492-.818c1.29 0 1.932.684 1.932 2.05zM89.52 67.618c0 .758-.294 1.437-.88 2.043-.586.605-1.258.907-2.016.907-1.207 0-2.098-.567-2.663-1.702l-2.666-.112c-.567 0-1.684.246-3.345.737-1.778.49-2.8.888-3.065 1.19-.414.454-.755 1.514-1.02 3.177-.228 1.36-.34 2.363-.34 3.007 0 1.02.16 1.767.48 2.24.322.472.985.868 1.985 1.19 1 .318 1.616.5 1.844.538.15 0 .396-.018.737-.057h.682c.49 0 1 .077 1.532.227.755.227 1.077.528.965.907-.532-.075-1.457.037-2.78.34l1.587.794c0 .454-.643.68-1.928.68-.343 0-.807-.074-1.39-.226-.59-.154-.977-.228-1.164-.228h-.736c-.038.38-.15.943-.34 1.7-.646-.037-1.4-.416-2.27-1.132-.87-.72-1.418-1.08-1.643-1.08-.228 0-.55.36-.965 1.08-.417.716-.624 1.207-.624 1.474-.49-.267-.906-.758-1.25-1.474-.15-.495-.32-.986-.508-1.478-.38.04-1.077.835-2.1 2.384h-.283c-.077-.113-.36-.906-.852-2.384-1.172-.375-2.268-.564-3.288-.564-.49 0-1.25.112-2.27.34l-1.587-.112c.226-.228.888-.663 1.984-1.305 1.284-.76 2.27-1.138 2.95-1.138.11 0 .263.02.453.058.188.04.34.058.454.058.263 0 .69-.142 1.276-.426s.927-.54 1.02-.766c.097-.23.144-.813.144-1.76 0-2.153-.568-3.76-1.703-4.82-.983-.943-2.608-1.624-4.877-2.04-.604 2.153-2.307 3.233-5.103 3.233-.91 0-1.816-.55-2.723-1.647s-1.36-2.1-1.36-3.007c0-1.4.585-2.55 1.757-3.46-.943-.98-1.417-1.983-1.417-3.005 0-.944.292-1.775.88-2.495.585-.716 1.352-1.133 2.296-1.248-.075-1.208.32-2.042 1.19-2.495-.416-.414-.623-1.15-.623-2.21 0-1.248.414-2.288 1.247-3.12.83-.83 1.87-1.248 3.117-1.248 1.364 0 2.48.474 3.35 1.417 1.097-3.74 3.458-5.612 7.088-5.612 1.89 0 3.554.756 4.99 2.27.53.565.793.868.793.905-.45 0-.224-.086.682-.254.91-.172 1.568-.258 1.986-.258 1.474 0 2.778.55 3.915 1.646.982.984 1.663 2.23 2.042 3.742.263.04.68.15 1.245.34.832.418 1.25 1.136 1.25 2.156 0 .19-.153.55-.455 1.08 2.42 1.36 3.63 3.25 3.63 5.67 0 .68-.266 1.626-.793 2.835.985.57 1.477 1.4 1.477 2.498zm-23.37 2.496v-.737c0-.87-.423-1.664-1.274-2.382-.85-.72-1.71-1.077-2.58-1.077-1.06 0-2.042.246-2.95.735 2.005-.11 4.272 1.04 6.805 3.46zm-1.02-7.03c-.565-.647-1.057-1.306-1.473-1.986-1.59.414-2.383.888-2.383 1.416.453-.037 1.116.047 1.984.256.87.21 1.496.313 1.873.313zm3.463-1.76v-2.497c-.91-.15-1.46-.226-1.645-.226v.852l1.645 1.87zm7.372-1.588c-.454-.19-1.305-.568-2.554-1.135v4.878c1.78-1.022 2.63-2.268 2.555-3.742zm3.116 6.69L77.836 64.9c-.755.53-1.52 1.067-2.298 1.615-.775.548-1.445 1.163-2.01 1.844 1.698-.91 3.553-1.55 5.554-1.93z"/></svg>