<svg xmlns="http://www.w3.org/2000/svg" width="100" height="100"><circle fill="#D9D2CB" cx="50" cy="49.998" r="50"/><path fill="#111314" d="M34.957 11.352h28.94c3.755 0 5.99-.45 6.704-1.352h4.157l-2.422 10.925H37.02l-3.407 15.79c5.127-2.07 9.668-3.105 13.625-3.105 7.73 0 14.25 2.587 19.56 7.758 5.304 5.17 7.96 11.622 7.96 19.357 0 8.996-3.465 16.237-10.393 21.722C57.98 87.487 50.203 90 41.027 90c-5.395 0-10.66-.808-15.785-2.426l1.617-4.046c4.32 1.17 8.14 1.75 11.468 1.75 6.654 0 12.477-2.18 17.473-6.543 4.99-4.358 7.49-9.826 7.49-16.392 0-5.665-1.845-10.32-5.534-13.96-3.69-3.645-8.365-5.467-14.033-5.467-5.213 0-10.07 1.8-14.568 5.396l-2.7-.538 8.502-36.422z"/></svg>