<svg xmlns="http://www.w3.org/2000/svg" width="100" height="100"><path fill="#CBBEB5" d="M85.35 14.637c9.05 9.05 14.65 21.55 14.65 35.36C100 77.613 77.614 100 50 100c-13.807 0-26.306-5.596-35.355-14.646"/><path fill="#D9D2CB" d="M14.646 85.354C5.596 76.307 0 63.804 0 49.997 0 22.384 22.386 0 50 0c13.803 0 26.3 5.593 35.35 14.637"/><path fill="#111314" d="M43.646 41.59l-2.866 9.677H16.96V49.2c1.156-1.29 3.69-3.892 7.606-7.805 2.357-2.36 4.692-4.85 7.005-7.476 1.158-1.29 2.05-2.403 2.668-3.337 1.38-2 2.07-4.046 2.07-6.138 0-2.045-.633-3.848-1.9-5.402-1.268-1.56-2.904-2.34-4.906-2.34-4.313 0-7.694 2.917-10.14 8.744l-2.137-.803c2.89-8.182 7.448-12.274 13.678-12.274 3.07 0 5.682 1.044 7.84 3.134 2.158 2.092 3.235 4.67 3.235 7.74 0 3.916-2.245 7.74-6.738 11.476l-4.668 3.87c-2.98 2.49-5.453 4.826-7.406 7.004-.136.136-.402.446-.802.935h12.41c1.912 0 3.36-.378 4.335-1.134.844-.67 1.67-1.936 2.47-3.805h2.066zM89.62 65.99c0 2.702-.982 4.544-2.947 5.526-.574.287-2.374.677-5.404 1.166-1.964.33-2.947 1.086-2.947 2.27v4.974c0 .21.062.84.184 1.905l.185 1.967c0 .613-.144 1.617-.43 3.008-.778.163-1.68.348-2.702.554-.328-1.23-.49-2.07-.49-2.52 0-.203.05-.512.152-.92.102-.41.154-.717.154-.923 0-.284-.253-1.083-.762-2.393h-.953c-.125.204-.166.47-.126.797.164.697.225 1.29.185 1.782-.698.49-1.658 1.146-2.886 1.965-.29-.083-.39-.123-.308-.123v-4.36c-.08-.203-.285-.285-.614-.246h-.737l-.737 5.77c-.573.042-1.268.042-2.086 0-.287-1.35-.8-3.353-1.535-6.015h-.493c-.45 1.433-.695 2.21-.737 2.334 0 .163.052.48.155.95.1.472.153.788.153.952 0 .12-.042.43-.125.92l-.184 1.474c-.083.08-.183.12-.306.12-1.228 0-2.048-.306-2.455-.918-.412-.615-.576-1.475-.493-2.58l.493-7.366c0-.122.04-.287.12-.492.083-.203.124-.348.124-.428 0-.328-.35-.984-1.044-1.967-.123-.04-.757-.184-1.904-.43-.695-.163-2.067-.45-4.112-.858-2.825-.53-4.238-2.803-4.238-6.815 0-5.977 2.457-10.95 7.367-14.92.203 1.107.553 2.578 1.044 4.42l2.394.554c.247.08 1.494.532 3.745 1.35-1.145-.694-2.64-1.818-4.48-3.375-.697-.82-1.046-2.19-1.046-4.114 0-.452.778-.982 2.335-1.6 1.39-.57 2.434-.896 3.13-.98 2.21-.285 3.91-.43 5.097-.43 5.114 0 9.25 1.31 12.4 3.932-1.022 1.188-2.783 2.453-5.28 3.806.983.04 2.416-.347 4.3-1.168 1.88-.816 2.68-1.227 2.393-1.227.327 0 .983.654 1.965 1.963.735.982 1.33 1.864 1.78 2.64 1.31 2.333 2.19 4.852 2.64 7.552 0 .942.02 1.617.062 2.025v.49zm-23.516 1.108c0-1.76-.767-3.43-2.3-5.006-1.537-1.576-3.186-2.363-4.945-2.363-1.556 0-2.926.66-4.114 1.976-1.187 1.32-1.78 2.782-1.78 4.39 0 1.4.675 2.308 2.027 2.718.86.248 2.066.392 3.62.434h3.378c2.743.037 4.114-.68 4.114-2.15zm6.693 7.612v-1.902c-.286-.533-.573-1.087-.858-1.66-.247-.817-.698-1.963-1.352-3.44l-.676 7.185c0 .576-.122.86-.37.86-.162 0-.286-.04-.367-.122-.287-4.337-.43-6.22-.43-5.646v-2.148c-.082-.126-.184-.187-.307-.187-1.39 1.435-2.086 3.747-2.086 6.937 0 1.76.163 2.844.49 3.257.33-.083.695-.226 1.107-.43.162-.084.632-.124 1.41-.124.775 0 1.72.245 2.823.735.41 0 .614-1.104.614-3.315zm13.876-8.556c0-1.646-.614-3.12-1.842-4.418-1.227-1.296-2.64-1.945-4.233-1.945-1.72 0-3.328.788-4.82 2.363-1.496 1.576-2.243 3.223-2.243 4.944 0 1.432.697 2.148 2.088 2.148h7.06c2.66-.04 3.99-1.07 3.99-3.09z"/></svg>