<svg xmlns="http://www.w3.org/2000/svg" width="100" height="100"><circle fill="#D9D2CB" cx="50" cy="49.998" r="50"/><path fill="#111314" d="M33.71 19.152V68.46c0 5.878 2.43 8.813 7.286 8.813h1.148v3.322H15.957v-3.322h1.79c4.937 0 7.41-2.936 7.41-8.814V36.14c0-5.956-2.13-8.94-6.388-8.94h-2.56v-3.32h1.023c5.11 0 9.71-1.576 13.797-4.727h2.68zM66.42 80.977h-8.945v-1.02c0-5.707 1.79-12.902 5.363-21.586C68.29 45.423 73.316 35.46 77.91 28.48l.516-.895H57.473c-3.066 0-5.387.64-6.96 1.912-1.575 1.28-2.794 3.41-3.646 6.39h-3.445l3.832-16.862h2.3c1.274.598 3.58.895 6.9.895h27.59v4.855c-1.02 1.45-2.298 3.746-3.833 6.896-2.983 5.794-5.706 12.52-8.175 20.18-3.664 11.416-5.535 21.127-5.617 29.127z"/></svg>