<svg xmlns="http://www.w3.org/2000/svg" width="100" height="100"><path fill="#F5A477" d="M85.35 14.637c9.05 9.05 14.65 21.55 14.65 35.36C100 77.613 77.613 100 50 100c-13.807 0-26.305-5.596-35.354-14.646"/><path fill="#CBBEB5" d="M14.646 85.354C5.596 76.307 0 63.804 0 49.997 0 22.384 22.387 0 50 0c13.802 0 26.3 5.593 35.35 14.637"/><path fill="#111314" d="M88.3 74.44c-1.718 4.1-5.13 6.146-10.24 6.146-.937 0-1.952.115-3.044.35-1.64.352-2.458.84-2.458 1.465 0 .196.136.418.41.674.272.253.508.38.703.38-.976 0-.313.03 1.988.086 2.303.06 3.747.09 4.333.09-3.393 1.988-9.07 2.905-17.028 2.75-2.614-.038-4.857-1.19-6.73-3.452-1.834-2.146-2.75-4.545-2.75-7.197 0-2.81.946-5.198 2.84-7.17 1.89-1.967 4.24-2.952 7.05-2.952.623 0 1.453.136 2.486.408 1.034.273 1.727.41 2.077.41 1.444 0 3.24-.597 5.385-1.786s3.16-1.784 3.043-1.784c-.39 4.096-1.756 6.848-4.097 8.25-1.678.977-2.516 1.933-2.516 2.867 0 .586.35 1.054 1.052 1.406.546.27 1.15.407 1.815.407 1.014 0 2.008-.623 2.984-1.872.975-1.247 1.404-2.38 1.287-3.394-.116-1.17-.037-2.575.235-4.212.077-.47.36-1.045.848-1.726.488-.684.928-1.104 1.317-1.26 0 .352-.127.937-.38 1.754-.254.82-.38 1.427-.38 1.815 0 .86.234 1.524.703 1.99.7-.27 1.324-1.15 1.872-2.633.468-1.13.74-2.224.82-3.275-1.64-.077-3.21-.82-4.71-2.226-1.502-1.404-2.253-2.925-2.253-4.563 0-.27.036-.546.116-.82.232.354.583.9 1.053 1.64.66.975 1.17 1.463 1.52 1.463.468 0 .702-.488.702-1.462 0-1.25-.332-2.38-.995-3.395-.743-1.21-1.7-1.815-2.867-1.815-.548 0-1.366.292-2.458.878-1.093.584-2.088.877-2.983.877-.274 0-1.485-.352-3.63-1.053 3.783-.625 5.676-1.19 5.676-1.7 0-1.324-2.594-2.222-7.783-2.688-.508-.04-1.443-.118-2.81-.236.156-.194 1.27-.408 3.337-.644 1.755-.192 2.983-.293 3.685-.293 9.285 0 15.175 4.507 17.673 13.52.43-.357.645-.95.645-1.78 0-1.068-.312-2.412-.937-4.033-.235-.634-.607-1.584-1.113-2.848 3.198 4.075 4.8 7.938 4.8 11.583 0 1.92-.45 3.666-1.348 5.23-.583 1.06-1.678 2.412-3.276 4.06-1.6 1.645-2.692 2.92-3.278 3.82 2.146-.585 3.55-1.034 4.214-1.346 1.48-.664 2.828-1.66 4.037-2.985 0 .508-.215 1.27-.643 2.28zM62.786 51.444c0 .7-.39 1.15-1.17 1.347l-1.52.234c-.548.272-1.348 1.347-2.4 3.218-.118-.584-.292-1.403-.527-2.457-.352.038-.936.352-1.756.935-.35.274-.917.684-1.7 1.23.236-1.404 1.018-2.827 2.343-4.272 1.404-1.598 2.77-2.396 4.096-2.396 1.755 0 2.633.72 2.633 2.162zm10.182 5.384c0 .662-.36 1.22-1.083 1.668s-1.434.673-2.135.673c-.938 0-1.777-.525-2.517-1.582-.898-1.286-1.814-2.125-2.75-2.516.194-.195.43-.293.704-.293.35 0 .944.27 1.783.818.837.548 1.375.82 1.61.82.195 0 .516-.272.964-.82.448-.547.946-.82 1.493-.82 1.288 0 1.93.685 1.93 2.05zM53.257 28.11c0 2.703-.982 4.545-2.948 5.527-.575.287-2.374.677-5.404 1.166-1.964.33-2.946 1.087-2.946 2.27v4.974c0 .21.062.84.184 1.906l.185 1.965c0 .613-.145 1.617-.432 3.008-.777.163-1.678.348-2.7.554-.33-1.23-.49-2.07-.49-2.52 0-.202.05-.51.15-.92.103-.408.155-.716.155-.92 0-.285-.253-1.085-.762-2.394H37.3c-.126.204-.167.47-.127.796.166.696.226 1.288.186 1.78-.697.492-1.657 1.147-2.885 1.966-.288-.083-.388-.123-.307-.123v-4.36c-.082-.202-.286-.285-.614-.245h-.738l-.737 5.77c-.573.042-1.268.042-2.086 0-.288-1.35-.8-3.353-1.535-6.014h-.493c-.45 1.432-.696 2.21-.737 2.333 0 .162.052.48.155.95.1.47.152.787.152.95 0 .123-.042.43-.125.922l-.183 1.474c-.083.08-.184.12-.307.12-1.228 0-2.048-.305-2.455-.918-.41-.615-.576-1.475-.493-2.58l.492-7.366c0-.122.04-.286.12-.492.083-.203.124-.348.124-.428 0-.328-.348-.984-1.043-1.967-.123-.04-.758-.183-1.904-.43-.697-.163-2.068-.45-4.113-.858-2.824-.53-4.237-2.803-4.237-6.815 0-5.977 2.456-10.95 7.367-14.92.204 1.107.553 2.578 1.044 4.42l2.395.554c.247.08 1.495.533 3.745 1.35-1.146-.694-2.64-1.818-4.48-3.375-.697-.817-1.046-2.19-1.046-4.112 0-.45.778-.982 2.335-1.6 1.39-.57 2.433-.896 3.13-.98 2.21-.285 3.908-.43 5.096-.43 5.115 0 9.25 1.31 12.4 3.932-1.02 1.188-2.782 2.453-5.278 3.806.982.04 2.415-.347 4.298-1.168 1.882-.816 2.68-1.227 2.394-1.227.327 0 .982.656 1.965 1.965.735.982 1.33 1.864 1.78 2.64 1.31 2.333 2.19 4.852 2.64 7.552 0 .942.02 1.617.062 2.025v.49zM29.74 29.22c0-1.762-.766-3.43-2.3-5.007-1.536-1.576-3.184-2.363-4.943-2.363-1.555 0-2.925.66-4.114 1.977-1.187 1.32-1.78 2.782-1.78 4.39 0 1.4.675 2.308 2.027 2.718.86.248 2.065.392 3.62.434h3.377c2.742.037 4.114-.68 4.114-2.15zm6.693 7.61v-1.9c-.286-.534-.573-1.087-.858-1.66-.246-.818-.697-1.963-1.35-3.44l-.677 7.185c0 .575-.12.86-.368.86-.163 0-.287-.04-.37-.122-.286-4.34-.428-6.223-.428-5.648v-2.148c-.083-.126-.185-.187-.308-.187-1.39 1.436-2.086 3.748-2.086 6.938 0 1.76.163 2.844.49 3.257.33-.083.695-.226 1.107-.43.163-.084.633-.124 1.412-.124.775 0 1.72.247 2.823.736.41 0 .613-1.104.613-3.315zm13.876-8.554c0-1.647-.615-3.12-1.843-4.42-1.23-1.295-2.64-1.944-4.235-1.944-1.72 0-3.328.787-4.82 2.363-1.495 1.575-2.243 3.223-2.243 4.943 0 1.432.696 2.148 2.087 2.148h7.06c2.662-.04 3.992-1.07 3.992-3.09z"/></svg>