<svg xmlns="http://www.w3.org/2000/svg" width="120" height="100"><path fill-rule="evenodd" clip-rule="evenodd" d="M76.142 0c-36.768 1.679 4.253 32.995-16.484 49.5l-.005.004-.007-.01-.293.13c-14.525 5.877-30.696-17.716-31.166 7.076 7.67-11.506 11.167-.275 23.775-.977-6.123 8.09-3.121 21.664-13.33 23.872-18.65 4.033-32.297-18.638-31.16-32.868 2.525-31.601 27.29-45.968 51.881-44.488-32.55-6.518-60.143 20.307-59.335 48.137.927 31.91 17.857 47.526 43.84 49.624 36.768-1.678-4.253-32.996 16.484-49.5l.005-.004.007.01.294-.13c14.523-5.877 30.696 17.716 31.165-7.075-7.669 11.505-11.167.274-23.775.976 6.123-8.09 3.123-21.663 13.331-23.871 18.651-4.033 32.296 18.637 31.159 32.868-2.523 31.602-27.289 45.969-51.88 44.487 32.55 6.519 60.143-20.308 59.334-48.137-.926-31.909-17.857-47.525-43.84-49.624z"/></svg>