<svg xmlns="http://www.w3.org/2000/svg" width="100" height="100"><circle fill="#D9D2CB" cx="50" cy="49.998" r="50"/><path fill="#111314" d="M36.58 44.675c5.934-5.577 11.91-8.364 17.94-8.364 6.563 0 11.827 2.607 15.786 7.822 3.682 4.77 5.53 10.52 5.53 17.27 0 7.376-2.16 13.85-6.476 19.425C64.594 86.94 58.658 90 51.555 90c-8.547 0-15.38-3.69-20.504-11.062-4.59-6.477-6.882-14.167-6.882-23.07 0-9.44 2.607-18.142 7.824-26.102 5.213-7.958 12.184-13.602 20.906-16.928 4.947-1.888 10.168-2.84 15.65-2.84v4.185c-11.69.63-20.414 5.308-26.174 14.03-2.96 4.502-4.897 9.984-5.794 16.462zm-.812 8.092c-.086 1.618-.133 3.238-.133 4.857 0 6.203 1.078 11.96 3.236 17.27 2.786 6.92 6.884 10.384 12.28 10.384 4.674 0 8.18-2.38 10.52-7.15 1.797-3.685 2.697-8.136 2.697-13.356 0-5.57-.857-10.342-2.562-14.3-2.34-5.395-5.936-8.09-10.793-8.09-5.934-.002-11.018 3.463-15.244 10.385z"/></svg>