<svg xmlns="http://www.w3.org/2000/svg" width="100" height="100"><circle fill="#D9D2CB" cx="50" cy="49.998" r="50"/><path fill="#111314" d="M53.494 90H41.852v-1.238c0-7.396 2.328-16.66 6.98-27.808 7.035-16.8 13.52-29.673 19.453-38.624l.822-1.232H41.852c-3.93 0-6.92.82-8.975 2.463-2.06 1.646-3.582 4.388-4.586 8.223h-4.52L28.698 10h2.88c1.735.914 4.743 1.37 9.042 1.37h35.608v6.166c-1.275 1.83-2.918 4.75-4.926 8.768-3.838 7.485-7.352 16.208-10.553 26.163C56.003 67.17 53.583 79.677 53.493 90z"/></svg>