<svg xmlns="http://www.w3.org/2000/svg" width="100" height="100"><path fill="#F5A477" d="M85.35 14.637c9.05 9.05 14.65 21.55 14.65 35.36C100 77.613 77.613 100 50 100c-13.807 0-26.305-5.596-35.354-14.646"/><path fill="#D9D2CB" d="M14.646 85.354C5.596 76.307 0 63.804 0 49.997 0 22.384 22.387 0 50 0c13.802 0 26.3 5.593 35.35 14.637"/><path fill="#111314" d="M88.3 74.44c-1.718 4.098-5.13 6.144-10.24 6.144-.937 0-1.952.117-3.044.353-1.64.35-2.458.84-2.458 1.463 0 .194.136.42.41.674.272.254.508.38.703.38-.976 0-.313.028 1.988.087 2.303.06 3.747.09 4.333.09-3.393 1.987-9.07 2.903-17.028 2.75-2.614-.04-4.857-1.19-6.73-3.454-1.834-2.146-2.75-4.542-2.75-7.197 0-2.81.946-5.198 2.84-7.17 1.89-1.97 4.24-2.954 7.05-2.954.623 0 1.453.136 2.486.41 1.034.273 1.727.41 2.077.41 1.444 0 3.24-.596 5.385-1.787 2.146-1.19 3.16-1.785 3.043-1.785-.39 4.098-1.756 6.847-4.097 8.252-1.678.976-2.516 1.93-2.516 2.867 0 .583.35 1.054 1.052 1.404.546.274 1.15.41 1.815.41 1.014 0 2.008-.624 2.984-1.873.975-1.25 1.404-2.38 1.287-3.395-.116-1.17-.037-2.574.235-4.213.077-.47.36-1.043.848-1.727.488-.684.928-1.1 1.317-1.258 0 .35-.127.936-.38 1.755-.254.82-.38 1.427-.38 1.814 0 .86.234 1.522.703 1.99.7-.272 1.324-1.15 1.872-2.633.468-1.13.74-2.224.82-3.277-1.64-.077-3.21-.817-4.71-2.223-1.502-1.405-2.253-2.927-2.253-4.563 0-.274.036-.547.116-.82.232.35.583.897 1.053 1.638.66.977 1.17 1.462 1.52 1.462.468 0 .702-.485.702-1.462 0-1.248-.332-2.38-.995-3.394-.743-1.21-1.7-1.813-2.867-1.813-.548 0-1.366.29-2.458.877-1.093.583-2.088.876-2.983.876-.274 0-1.485-.35-3.63-1.053 3.783-.622 5.676-1.188 5.676-1.696 0-1.326-2.594-2.225-7.783-2.693-.508-.037-1.443-.116-2.81-.234.156-.193 1.27-.408 3.337-.644 1.755-.194 2.983-.292 3.685-.292 9.285 0 15.175 4.507 17.673 13.52.43-.357.645-.952.645-1.78 0-1.07-.312-2.415-.937-4.036-.235-.632-.607-1.58-1.113-2.846 3.198 4.075 4.8 7.938 4.8 11.584 0 1.92-.45 3.664-1.348 5.232-.583 1.056-1.678 2.408-3.276 4.057-1.6 1.645-2.692 2.92-3.278 3.82 2.146-.584 3.55-1.035 4.214-1.348 1.48-.662 2.828-1.657 4.037-2.982 0 .505-.215 1.267-.643 2.28zM62.786 51.444c0 .7-.39 1.148-1.17 1.345l-1.52.232c-.548.272-1.348 1.347-2.4 3.22-.118-.586-.292-1.403-.527-2.46-.352.04-.936.352-1.756.938-.35.272-.917.684-1.7 1.23.236-1.405 1.018-2.827 2.343-4.272 1.404-1.6 2.77-2.4 4.096-2.4 1.755 0 2.633.722 2.633 2.166zm10.182 5.383c0 .663-.36 1.22-1.083 1.667-.722.45-1.434.674-2.135.674-.938 0-1.777-.527-2.517-1.58-.898-1.287-1.814-2.125-2.75-2.518.194-.193.43-.293.704-.293.35 0 .944.274 1.783.818.837.55 1.375.82 1.61.82.195 0 .516-.27.964-.82.448-.544.946-.818 1.493-.818 1.288 0 1.93.686 1.93 2.05zM43.646 41.593l-2.866 9.674H16.96V49.2c1.156-1.29 3.69-3.89 7.606-7.805 2.357-2.358 4.692-4.85 7.005-7.476 1.158-1.288 2.05-2.403 2.668-3.336 1.38-2 2.07-4.045 2.07-6.138 0-2.045-.633-3.847-1.9-5.403-1.268-1.558-2.904-2.338-4.906-2.338-4.313 0-7.694 2.915-10.14 8.742l-2.137-.8c2.89-8.185 7.448-12.277 13.678-12.277 3.07 0 5.682 1.044 7.84 3.135 2.158 2.09 3.235 4.67 3.235 7.74 0 3.915-2.245 7.74-6.738 11.477l-4.668 3.867c-2.98 2.49-5.453 4.826-7.406 7.005-.136.135-.402.447-.802.936h12.41c1.912 0 3.36-.376 4.335-1.134.844-.667 1.67-1.936 2.47-3.803h2.066z"/></svg>