<svg xmlns="http://www.w3.org/2000/svg" width="100" height="100"><circle fill="#D7D1C9" cx="50.001" cy="50.139" r="50"/><path fill="#111314" d="M49.39 94.533c-3.242 3.24-8.498 3.24-11.741 0l-32.044-32.043c-3.239-3.241-3.239-8.499 0-11.741l45.007-45.007c3.243-3.241 8.5-3.241 11.741 0l32.043 32.044c3.241 3.241 3.241 8.497 0 11.739l-45.006 45.008z"/><path fill="#fff" d="M84.266 58.011h-36.005l13.183-9.384c-4.896-3.887-10.564-5.828-16.984-5.828-3.209 0-5.412.612-6.588 1.835-1.186 1.228-1.776 3.445-1.776 6.655 0 8.873 4.562 18.34 13.688 28.396l-10.389 10.525c-12.09-14.706-18.129-27.847-18.129-39.428 0-6.926 2.084-12.445 6.269-16.544 4.181-4.099 9.747-6.148 16.667-6.148 8.453 0 17.665 3.214 27.643 9.634l7.726-13.18 4.695 33.467z"/></svg>