<svg xmlns="http://www.w3.org/2000/svg" width="50" height="100"><path fill="#FCF9E1" d="M0 0v100c27.613 0 50-22.387 50-50.002C50 22.385 27.613 0 0 0z"/><path fill="#111314" d="M17.998 49.746c0-4.793-1.79-8.957-5.363-12.488-3.514-3.473-7.658-5.23-12.428-5.29v35.558c5.016-.055 9.225-1.73 12.617-5.037 3.45-3.36 5.174-7.613 5.174-12.744zM40.455 46.342c-2.86-4.207-5.428-6.31-7.697-6.31-1.85 0-3.197.882-4.037 2.65-.84 1.767-1.765 2.65-2.774 2.65-1.432 0-2.566-.51-3.406-1.517-.338-.334-1.01-1.428-2.02-3.28l4.29-3.028c1.515-1.01 2.272-2.102 2.272-3.277 0-.676-.213-1.727-.633-3.156-.423-1.43-.632-2.438-.632-3.027 0-1.262 1.684-2.398 5.05-3.406 3.698-1.01 6.474-1.765 8.325-2.27-8.498-1.514-14.09-2.27-16.78-2.27-4.29 0-6.605.59-6.94 1.765-.082.172-.02.93.19 2.273.21 1.344.315 2.143.315 2.395 0 2.523-1.223 3.785-3.658 3.785-1.18 0-2.902-.797-5.174-2.396 1.008-3.36 1.092-6.012.252-7.947-.252-.672-1.262-1.81-3.027-3.406-1.43-1.347-2.144-2.61-2.144-3.786 0-2.273 1.81-5.846 5.426-10.725-1.214.528-3.705 2.198-7.445 4.983v22.78c5.275.063 9.86 2.028 13.752 5.92 3.952 3.952 5.93 8.622 5.93 14.003.083 5.72-1.788 10.453-5.616 14.193-3.77 3.688-8.46 5.55-14.066 5.604v22.64C6.41 87.71 9.546 84.366 9.546 82.17c0-.42-.78-1.136-2.334-2.144-1.56-1.01-2.336-2.354-2.336-4.037 0-3.366 1.936-5.343 5.805-5.933 1.937 4.46 4.122 6.688 6.562 6.688.504 0 1.28-.254 2.334-.756 1.05-.507 1.744-.76 2.082-.76 2.438 0 4.75 4.292 6.938 12.87 1.684-7.484 2.523-13.037 2.523-16.652 0-3.785-.515-5.68-1.548-5.68-.344 0-1.033.13-2.064.38-1.033.25-1.848.378-2.45.378-.946 0-2.106-.63-3.48-1.893s-2.065-2.355-2.065-3.28c0-.673.8-2.226 2.398-4.67 2.86.675 4.753 1.01 5.68 1.01 2.27 0 3.782-1.026 4.54-3.09.76-2.06 1.81-3.093 3.154-3.093 1.85 0 6.057 1.852 12.617 5.55-3.367-4.79-5.85-8.365-7.445-10.718z"/></svg>