<svg xmlns="http://www.w3.org/2000/svg" width="100" height="100"><circle fill="#D9D2CB" cx="50" cy="50" r="50"/><path fill="#111314" d="M23 52.428c0-9.787 2.061-18.812 6.191-27.072 5.118-10.237 12.123-15.356 21.012-15.356 8.797 0 15.666 4.359 20.606 13.064 4.127 7.186 6.191 15.538 6.191 25.051 0 9.881-2.064 18.814-6.191 26.803-5.032 10.059-12.036 15.082-21.012 15.082-8.531 0-15.305-4.307-20.336-12.926-4.308-7.361-6.461-15.576-6.461-24.646zm11.309-4.444c0 12.926 1.93 22.984 5.795 30.168 2.691 5.025 6.146 7.541 10.367 7.541 10.146 0 15.221-10.506 15.221-31.518 0-9.244-.809-17.059-2.422-23.434-2.785-10.504-7.498-15.76-14.145-15.76-9.879 0-14.816 10.15-14.816 30.443v2.56z"/></svg>