<svg xmlns="http://www.w3.org/2000/svg" width="100" height="100"><path fill="#F5A477" d="M85.35 14.637c9.05 9.05 14.65 21.55 14.65 35.36C100 77.613 77.613 100 50 100c-13.807 0-26.305-5.596-35.354-14.646"/><path fill="#CAE0EF" d="M14.646 85.354C5.596 76.307 0 63.804 0 49.997 0 22.384 22.387 0 50 0c13.802 0 26.3 5.593 35.35 14.637"/><path fill="#111314" d="M88.3 74.44c-1.718 4.1-5.13 6.146-10.24 6.146-.937 0-1.952.115-3.044.35-1.64.352-2.458.84-2.458 1.465 0 .196.136.418.41.674.272.253.508.38.703.38-.976 0-.313.03 1.988.086 2.303.06 3.747.09 4.333.09-3.393 1.988-9.07 2.905-17.028 2.75-2.614-.038-4.857-1.19-6.73-3.452-1.834-2.146-2.75-4.545-2.75-7.197 0-2.81.946-5.198 2.84-7.17 1.89-1.967 4.24-2.952 7.05-2.952.623 0 1.453.136 2.486.408 1.034.273 1.727.41 2.077.41 1.444 0 3.24-.597 5.385-1.786s3.16-1.784 3.043-1.784c-.39 4.096-1.756 6.848-4.097 8.25-1.678.977-2.516 1.933-2.516 2.867 0 .586.35 1.054 1.052 1.406.546.27 1.15.407 1.815.407 1.014 0 2.008-.623 2.984-1.872.975-1.247 1.404-2.38 1.287-3.394-.116-1.17-.037-2.575.235-4.212.077-.47.36-1.045.848-1.726.488-.684.928-1.104 1.317-1.26 0 .352-.127.937-.38 1.754-.254.82-.38 1.427-.38 1.815 0 .86.234 1.524.703 1.99.7-.27 1.324-1.15 1.872-2.633.468-1.13.74-2.224.82-3.275-1.64-.077-3.21-.82-4.71-2.226-1.502-1.404-2.253-2.925-2.253-4.563 0-.27.036-.546.116-.82.232.354.583.9 1.053 1.64.66.975 1.17 1.463 1.52 1.463.468 0 .702-.488.702-1.462 0-1.25-.332-2.38-.995-3.395-.743-1.21-1.7-1.815-2.867-1.815-.548 0-1.366.292-2.458.878-1.093.584-2.088.877-2.983.877-.274 0-1.485-.352-3.63-1.053 3.783-.625 5.676-1.19 5.676-1.7 0-1.324-2.594-2.222-7.783-2.688-.508-.04-1.443-.118-2.81-.236.156-.194 1.27-.408 3.337-.644 1.755-.192 2.983-.293 3.685-.293 9.285 0 15.175 4.507 17.673 13.52.43-.357.645-.95.645-1.78 0-1.068-.312-2.412-.937-4.033-.235-.634-.607-1.584-1.113-2.848 3.198 4.075 4.8 7.938 4.8 11.583 0 1.92-.45 3.666-1.348 5.23-.583 1.06-1.678 2.412-3.276 4.06-1.6 1.645-2.692 2.92-3.278 3.82 2.146-.585 3.55-1.034 4.214-1.346 1.48-.664 2.828-1.66 4.037-2.985 0 .508-.215 1.27-.643 2.28zM62.786 51.444c0 .7-.39 1.15-1.17 1.347l-1.52.234c-.548.272-1.348 1.347-2.4 3.218-.118-.584-.292-1.403-.527-2.457-.352.038-.936.352-1.756.935-.35.274-.917.684-1.7 1.23.236-1.404 1.018-2.827 2.343-4.272 1.404-1.598 2.77-2.396 4.096-2.396 1.755 0 2.633.72 2.633 2.162zm10.182 5.384c0 .662-.36 1.22-1.083 1.668s-1.434.673-2.135.673c-.938 0-1.777-.525-2.517-1.582-.898-1.286-1.814-2.125-2.75-2.516.194-.195.43-.293.704-.293.35 0 .944.27 1.783.818.837.548 1.375.82 1.61.82.195 0 .516-.272.964-.82.448-.547.946-.82 1.493-.82 1.288 0 1.93.685 1.93 2.05zM41.116 48.156c-2.693 2.737-6.007 4.107-9.946 4.107-4.422 0-7.93-1.512-10.524-4.54-2.452-2.885-3.677-6.56-3.677-11.028 0-4.805 2.09-10.284 6.27-16.435 3.412-5.044 7.424-9.465 12.038-13.262-.673 3.077-1.01 5.262-1.01 6.558 0 2.98.936 5.89 2.812 8.723 2.306 3.362 4.06 5.862 5.262 7.496 1.874 2.835 2.812 5.6 2.812 8.287 0 3.992-1.348 7.353-4.038 10.093zm-.072-15.387c-.72-1.612-1.56-2.68-2.523-3.21.146.288.217.696.217 1.226 0 1.01-.287 2.45-.864 4.324l-.938 2.884c0 1.68.84 2.522 2.523 2.522 1.777 0 2.668-1.178 2.668-3.532 0-1.2-.362-2.606-1.082-4.215z"/></svg>