<svg xmlns="http://www.w3.org/2000/svg" width="100" height="100"><path fill="#A8C796" d="M85.35 14.637c9.05 9.05 14.65 21.55 14.65 35.36C100 77.613 77.613 100 50 100c-13.807 0-26.305-5.596-35.354-14.646"/><path fill="#D9D2CB" d="M14.646 85.354C5.596 76.307 0 63.804 0 49.997 0 22.384 22.387 0 50 0c13.804 0 26.3 5.593 35.35 14.637"/><path fill="#111314" d="M43.646 41.59l-2.866 9.677H16.96V49.2c1.156-1.29 3.69-3.892 7.606-7.805 2.357-2.36 4.692-4.85 7.005-7.476 1.158-1.29 2.05-2.403 2.668-3.337 1.38-2 2.07-4.046 2.07-6.138 0-2.045-.633-3.848-1.9-5.402-1.268-1.56-2.904-2.34-4.906-2.34-4.313 0-7.694 2.917-10.14 8.744l-2.137-.803c2.89-8.182 7.448-12.274 13.678-12.274 3.07 0 5.682 1.044 7.84 3.134 2.158 2.092 3.235 4.67 3.235 7.74 0 3.916-2.245 7.74-6.738 11.476l-4.668 3.87c-2.98 2.49-5.453 4.826-7.406 7.004-.136.136-.402.446-.802.935h12.41c1.912 0 3.36-.378 4.335-1.134.844-.67 1.67-1.936 2.47-3.805h2.066zM89.518 67.618c0 .758-.293 1.437-.88 2.043-.585.605-1.256.907-2.014.907-1.208 0-2.098-.567-2.663-1.702l-2.666-.112c-.568 0-1.684.246-3.346.737-1.777.49-2.798.888-3.064 1.19-.415.454-.755 1.514-1.02 3.177-.228 1.36-.34 2.363-.34 3.007 0 1.02.16 1.767.482 2.24.32.472.984.868 1.984 1.19 1 .318 1.616.5 1.844.538.15 0 .396-.018.737-.057h.682c.49 0 1.002.077 1.533.227.755.227 1.078.528.965.907-.53-.075-1.456.037-2.78.34l1.587.794c0 .454-.642.68-1.928.68-.343 0-.806-.074-1.39-.226-.587-.154-.975-.228-1.163-.228h-.737c-.04.38-.15.943-.34 1.7-.645-.037-1.4-.416-2.27-1.132-.87-.72-1.418-1.08-1.643-1.08-.228 0-.55.36-.965 1.08-.417.716-.625 1.207-.625 1.474-.49-.267-.905-.758-1.25-1.474-.15-.495-.32-.986-.508-1.478-.38.04-1.078.835-2.1 2.384h-.283c-.077-.113-.36-.906-.853-2.384-1.172-.375-2.267-.564-3.288-.564-.49 0-1.25.112-2.27.34l-1.586-.112c.225-.228.888-.663 1.984-1.305 1.285-.76 2.27-1.138 2.95-1.138.11 0 .262.02.453.058.188.04.34.058.454.058.263 0 .69-.142 1.277-.426s.926-.54 1.018-.766c.098-.23.145-.813.145-1.76 0-2.153-.568-3.76-1.703-4.82-.984-.943-2.608-1.624-4.876-2.04-.604 2.153-2.306 3.233-5.103 3.233-.91 0-1.815-.55-2.723-1.647-.905-1.098-1.36-2.1-1.36-3.007 0-1.4.585-2.55 1.757-3.46-.943-.98-1.416-1.983-1.416-3.005 0-.944.292-1.775.88-2.495.585-.716 1.352-1.133 2.295-1.248-.075-1.208.32-2.042 1.19-2.495-.416-.414-.623-1.15-.623-2.21 0-1.248.415-2.288 1.248-3.12.83-.83 1.872-1.248 3.117-1.248 1.363 0 2.48.474 3.347 1.417 1.097-3.74 3.458-5.612 7.088-5.612 1.89 0 3.554.756 4.99 2.27.53.565.794.868.794.905-.453 0-.225-.086.68-.254.91-.172 1.57-.258 1.986-.258 1.474 0 2.78.55 3.915 1.646.983.984 1.664 2.23 2.042 3.742.264.04.68.15 1.246.34.833.418 1.25 1.136 1.25 2.156 0 .19-.152.55-.454 1.08 2.42 1.36 3.63 3.25 3.63 5.67 0 .68-.266 1.626-.794 2.835.985.57 1.476 1.4 1.476 2.498zm-23.366 2.496v-.737c0-.87-.425-1.664-1.275-2.382-.85-.72-1.71-1.077-2.58-1.077-1.06 0-2.043.246-2.95.735 2.003-.11 4.272 1.04 6.805 3.46zm-1.02-7.03c-.568-.647-1.06-1.306-1.475-1.986-1.59.414-2.382.888-2.382 1.416.453-.037 1.116.047 1.984.256.867.21 1.493.313 1.87.313zm3.46-1.76v-2.497c-.91-.15-1.458-.226-1.645-.226v.852l1.646 1.87zm7.373-1.588c-.455-.19-1.305-.568-2.554-1.135v4.878c1.78-1.022 2.63-2.268 2.555-3.742zm3.116 6.69L77.836 64.9l-2.298 1.615c-.775.548-1.446 1.163-2.01 1.844 1.698-.91 3.554-1.55 5.554-1.93z"/></svg>