<svg xmlns="http://www.w3.org/2000/svg" width="100" height="100"><path fill="#D7D1C9" d="M100 49.998C100 77.613 77.616 100 50 100 22.387 100 0 77.613 0 49.998 0 22.385 22.387 0 50 0c27.616 0 50 22.385 50 49.998z"/><path fill="#111314" d="M74.355 80h-53.76v-2.712l42.635-57.22H44.25c-3.118.063-5.517.39-7.2.98-1.683.595-3.242 1.73-4.675 3.414-.125.126-.233.25-.327.374-.093.126-.203.25-.327.373-.25.374-.482.7-.7.98-.22.28-.42.578-.608.89-.062.188-.156.374-.28.56l-.374.563c-.126.374-.28.765-.467 1.168-.187.407-.406.89-.653 1.45l-3.367-.094v-14.49h51.05v2.523L33.31 76.165h18.605c2.805.063 5.033 0 6.685-.188 1.65-.187 3.193-.59 4.628-1.214l.514-.188.42-.188c.874-.436 1.715-.935 2.525-1.496.808-.56 1.62-1.215 2.43-1.963.56-.563 1.122-1.17 1.683-1.824.56-.655 1.153-1.387 1.777-2.197l2.43-3.46h3.553L74.355 80z"/></svg>