<svg xmlns="http://www.w3.org/2000/svg" width="100" height="100"><circle fill="#D9D2CB" cx="50" cy="49.998" r="50"/><path fill="#111314" d="M34.31 18.322V69.16c0 6.047 2.515 9.07 7.536 9.07h1.28v3.447H16.042V78.23h1.79c5.108 0 7.667-3.023 7.667-9.07V35.816c0-6.127-2.174-9.193-6.52-9.193h-2.682v-3.45h1.023c5.282 0 10.05-1.618 14.306-4.85h2.683zm20.057 27.46c4.684-4.423 9.408-6.644 14.18-6.644 5.11 0 9.236 2.05 12.39 6.135 2.896 3.746 4.34 8.305 4.34 13.668 0 5.792-1.702 10.86-5.108 15.2-3.747 4.855-8.43 7.28-14.05 7.28-6.643 0-12.006-2.894-16.098-8.683-3.576-5.11-5.365-11.156-5.365-18.14 0-7.49 2.043-14.372 6.135-20.632 4.084-6.258 9.58-10.707 16.477-13.348 3.83-1.45 7.92-2.174 12.26-2.174v3.322c-9.192.428-16.05 4.092-20.56 10.988-2.306 3.58-3.84 7.92-4.603 13.028zm-.64 6.263c-.082 1.273-.13 2.553-.13 3.83 0 4.938.853 9.496 2.56 13.672 2.213 5.445 5.445 8.17 9.707 8.17 3.66 0 6.43-1.87 8.3-5.62 1.364-2.894 2.044-6.43 2.044-10.603 0-4.34-.633-8.088-1.912-11.236-1.877-4.262-4.73-6.39-8.56-6.39-4.685 0-8.687 2.726-12.01 8.177z"/></svg>