<svg xmlns="http://www.w3.org/2000/svg" width="100" height="100"><circle fill="#D7D1C9" cx="49.875" cy="50.069" r="50"/><path fill="#111314" d="M94.65 55.916L84.08 68.644l-2.59-2.588c1.008-2.54 1.645-4.878 1.908-7.013.262-2.132.154-4.11-.324-5.934-.048-.24-.107-.468-.18-.683-.07-.217-.155-.42-.252-.612-.383-1.15-.96-2.23-1.727-3.235-.767-1.01-1.868-2.23-3.306-3.668l-7.553-7.695-35.093 35.095c-3.07 3.067-4.724 5.73-4.963 7.98-.24 2.255.864 4.604 3.31 7.05l1.007.862-2.733 2.73-23.012-23.01 2.732-2.732 1.15 1.15c2.397 2.493 4.722 3.62 6.976 3.38 2.253-.238 4.89-1.87 7.91-4.89l35.166-35.167-7.838-7.838c-2.205-2.11-4.087-3.584-5.645-4.422-1.56-.84-3.37-1.187-5.43-1.043-.288 0-.59.012-.9.035-.31.025-.635.06-.97.108-.624.048-1.175.12-1.653.216-.48.097-.936.168-1.367.217l-.395.107c-.12.023-.276.037-.468.036-.528.144-1.128.31-1.798.503-.673.19-1.51.408-2.518.647l-2.373-2.518L43.59 4.854l51.06 51.062z"/></svg>