<svg xmlns="http://www.w3.org/2000/svg" width="100" height="100"><circle fill="#D9D2CB" cx="50" cy="49.998" r="50"/><path fill="#111314" d="M37.967 19.79V68.33c0 5.707 2.428 8.555 7.282 8.555h1.148v3.322h-25.8v-3.323h1.662c4.938 0 7.406-2.848 7.406-8.555v-31.81c0-5.874-2.09-8.815-6.258-8.815H20.85V24.39h1.024c5.02 0 9.538-1.534 13.54-4.6h2.553zm21.717 32.19l-1.533-2.812 1.154-.64c3.83-2.38 7.387-4.786 10.666-7.216 3.274-2.426 4.917-5.17 4.917-8.238 0-2.13-.81-3.898-2.427-5.3-1.617-1.41-3.41-2.11-5.364-2.11-4.943 0-10.136 2.982-15.588 8.945l-2.553-1.92c5.62-8.515 12.517-12.776 20.692-12.776 3.576 0 6.602.895 9.07 2.684 2.896 1.965 4.346 4.645 4.346 8.05 0 2.388-1.024 4.726-3.067 7.022-1.195 1.28-3.238 3.025-6.133 5.24l-1.15 1.023c.51-.082 1.15-.13 1.92-.13 3.747 0 6.81 1.43 9.194 4.278 2.386 2.853 3.576 6.114 3.576 9.772 0 6.475-2.724 11.84-8.177 16.096-4.938 4.086-10.687 6.135-17.24 6.135-6.05 0-10.775-1.28-14.18-3.836l1.788-2.553c4.002 1.87 7.66 2.812 10.982 2.812 4.77 0 9.03-1.574 12.776-4.73 3.748-3.148 5.62-7.068 5.62-11.752 0-3.15-.937-5.83-2.808-8.045-1.877-2.216-4.346-3.323-7.412-3.323-2.722 0-5.747 1.11-9.068 3.323z"/></svg>