<svg xmlns="http://www.w3.org/2000/svg" width="100" height="100"><circle fill="#D9D2CB" cx="50" cy="49.998" r="50"/><path fill="#111314" d="M39.56 52.562l-2.017-3.77 1.337-.808c5.174-3.145 9.903-6.33 14.19-9.562 4.283-3.232 6.426-6.915 6.426-11.048 0-2.778-1.03-5.112-3.085-6.998-2.06-1.892-4.47-2.834-7.243-2.834-6.44 0-13.234 4-20.392 11.99l-3.354-2.558C32.875 15.658 41.988 10 52.763 10c4.757 0 8.795 1.168 12.122 3.503 3.77 2.607 5.655 6.153 5.655 10.642 0 3.23-1.35 6.374-4.04 9.426-1.528 1.8-4.226 4.133-8.083 7.005L56.8 41.788c.72-.09 1.573-.134 2.56-.134 4.938 0 9 1.887 12.19 5.657 3.187 3.772 4.782 8.17 4.782 13.197 0 8.532-3.595 15.667-10.774 21.416C58.91 87.31 51.233 90 42.526 90c-7.99 0-14.276-1.748-18.858-5.25l2.43-3.37c5.386 2.608 10.278 3.907 14.68 3.907 6.373 0 12.05-2.11 17.032-6.33 4.988-4.22 7.475-9.47 7.475-15.755 0-4.132-1.255-7.655-3.77-10.576-2.516-2.915-5.793-4.374-9.832-4.374-3.684 0-7.723 1.436-12.122 4.31z"/></svg>