<svg xmlns="http://www.w3.org/2000/svg" width="55.306" height="100"><path fill="#161818" d="M55.305 50.243c.06-5.344-1.64-10.74-4.967-14.928-1.607-1.77-2.93-3.787-4.633-5.46-3.754-3.727-9.375-3.975-13.896-6.322-.265-2.358-1.126-4.715-.605-7.093.16-.79.393-1.593-.03-2.348-1.185-2.733-.165-5.7-.376-8.548-.16-1.487-.058-3.308-1.476-4.227-.33 3.097-1.47 5.98-2.39 8.918-.427 2.29-.427 4.676-1.415 6.836.626 2.19-.614 4.03-1.956 5.647-2.967 1.52-6.496 1.88-9.078 4.11-1.84 1.56-3.828 2.93-5.887 4.202-1.546 1.932-3.257 3.796-3.946 6.24C1.894 40.605 1.566 45.08 0 48.987c-.03 5.8 1.146 12.043 4.85 16.692 2.65 2.187 4.502 5.132 7.148 7.32 2.54 1.516 5.252 2.762 7.875 4.127 1.71.4 3.475.595 5.176 1.06 1.378 7.11 2.32 14.39 5.09 21.132.92-2.77.808-5.736 1.6-8.533 1.12-4.135-1.175-8.44.118-12.5 1.938-1.733 5.17-.608 7.32-2.095 4.092-2.523 8.422-4.98 11.39-8.84 1.106-2.22 3.427-3.876 3.427-6.54.02-3.587 2.11-6.945 1.31-10.57zm-30.373 21.93c-2.965-.72-5.727-2.137-8.213-3.87-2.677-1.783-3.675-5.11-6.315-6.933-2.473-2.95-1.938-6.982-2.95-10.476.405-2.438.884-4.856 1.138-7.325 1.205-1.957 3.066-3.516 3.582-5.87 1.768-2.533 4.46-4.285 6.62-6.48 1.57-1.814 4.073-1.05 6.138-1.12-.205 2-.367 4.07.133 6.04.244 1.213.79 2.408.604 3.677-.414 2.7.598 5.407-.117 8.075-1.443 5.577.13 11.21.268 16.832-.205 2.488-.322 5-.888 7.45zm22.476-10.57c-1.963 1.398-3.637 3.112-5.35 4.786-2.98 2.06-5.924 4.24-9.47 5.27.32-2.53.632-5.132-.173-7.61-1.98-5.592.445-11.444.855-17.1-.36-3.364-.016-6.952-1.56-10.05-.2-2.326.806-4.573 1.487-6.763 2.342.935 4.547 2.197 6.496 3.82 2.354 1.765 5.96 2.91 6.488 6.2.27 2.16 2.634 3.466 2.565 5.677-.147 5.256.577 10.75-1.337 15.77z"/></svg>