<svg xmlns="http://www.w3.org/2000/svg" width="100" height="100"><path fill="#FCF9E1" d="M85.349 14.637c9.052 9.05 14.651 21.551 14.651 35.36 0 27.616-22.387 50.003-50 50.003-13.807 0-26.305-5.596-35.354-14.646"/><path fill="#F5A477" d="M14.646 85.354c-9.05-9.047-14.646-21.549-14.646-35.357 0-27.613 22.387-49.997 50-49.997 13.802 0 26.301 5.593 35.349 14.637"/><path fill="#111314" d="M88 73.112c-2.436-2.265-4.054-3.492-4.848-3.682-.576-.138-1.135.198-1.672 1.005-.537.808-1.291 1.093-2.268.859-.396-.095-1.175-.434-2.334-1.017-.938.885-1.441 1.471-1.511 1.758-.095.398.089.938.551 1.622.46.684.894 1.072 1.301 1.17.257.061.621.091 1.09.089.468-.001.777.015.927.051.443.104.469.971.078 2.597-.37 1.552-1.302 3.852-2.793 6.892-.059-3.909-.61-5.989-1.656-6.239-.145-.035-.469.003-.972.111-.505.107-.864.137-1.08.085-1.048-.251-1.758-1.432-2.131-3.546-1.723-.144-2.757.506-3.103 1.95-.174.725.023 1.382.589 1.975.563.592.823.979.782 1.16-.233.977-2.021 2.133-5.356 3.473-1.776.721-3.007 1.227-3.688 1.522.659-.528 1.369-1.256 2.127-2.182.862-1.056 1.371-1.906 1.528-2.558.086-.359-.209-.966-.884-1.815-.676-.848-.926-1.633-.753-2.355.146-.614.543-1.319 1.194-2.12-.341-.654-.835-1.06-1.485-1.215-1.444-.347-2.279-.049-2.504.891l-.35 1.462c-.25 1.2-1.296 1.58-3.138 1.14-1.409-.338-3.696-1.229-6.864-2.673 3.981-.04 6.118-.675 6.411-1.902-.032.145-.003-.307.097-1.353.122-1.154 1.16-1.976 3.108-2.464.072-1.738-.594-2.777-2.004-3.114-.216-.052-.705.232-1.463.853-.761.619-1.393.87-1.898.748-.867-.205-1.763-1.413-2.684-3.62-.427-1.095-1.088-2.723-1.983-4.885l2.182 1.897c.963.765 1.77 1.225 2.419 1.382.506.12 1.108-.204 1.808-.973.699-.768 1.446-1.058 2.24-.867.111.027.78.415 2.013 1.169.937-.883 1.466-1.577 1.588-2.083.102-.434-.04-.993-.431-1.678-.39-.686-.802-1.079-1.235-1.184-.181-.043-.473-.057-.878-.039-.405.019-.698.005-.879-.038-.649-.155-.781-1.045-.392-2.671.102-.434 1.11-2.809 3.022-7.123-.166.531-.173 1.6-.021 3.202.181 1.953.687 3.027 1.518 3.228.144.033.459-.005.946-.119.485-.112.852-.139 1.104-.078.83.198 1.404.833 1.723 1.901l.463 1.655c.758.183 1.455.064 2.09-.357.636-.421 1.046-1.011 1.227-1.769.189-.794 0-1.479-.568-2.055-.569-.576-.829-.971-.775-1.188.181-.758 1.68-1.755 4.495-2.99 2.26-.985 3.709-1.537 4.349-1.651-2.054 1.724-3.199 3.07-3.432 4.047-.121.506.055 1.121.531 1.847.595.867.912 1.459.95 1.772.161.919-.146 2.046-.925 3.389.811.92 1.47 1.439 1.977 1.561 1.045.25 1.699-.167 1.958-1.25.026-.108.063-.462.112-1.062.046-.599.098-.931.151-.995.266-.471 1.319-.487 3.161-.045 1.156.277 3.479 1.175 6.973 2.699-.847.026-2.116.065-3.809.12-1.55.087-2.389.402-2.519.943-.06.253-.074.708-.04 1.364.034.657.017 1.132-.053 1.421-.12.506-.559.896-1.312 1.175l-2.155.859c.245.898.42 1.437.531 1.616.259.52.692.854 1.306 1.001.434.104.922-.18 1.465-.854.542-.672 1.212-.913 2.007-.722.975.232 1.861 1.398 2.657 3.499.446 1.176 1.144 2.967 2.097 5.371zm-11.274-6.02c.552-2.312.184-4.52-1.108-6.623-1.292-2.104-3.094-3.433-5.404-3.986-2.348-.561-4.573-.206-6.671 1.069-2.099 1.271-3.448 3.078-4.046 5.417-.59 2.303-.21 4.504 1.141 6.603 1.35 2.098 3.18 3.425 5.493 3.978 2.454.587 4.697.274 6.725-.941 2.026-1.213 3.316-3.054 3.87-5.517zm-.815-.195c-.526 2.203-1.703 3.85-3.53 4.939-1.826 1.09-3.843 1.373-6.044.846-2.131-.51-3.777-1.687-4.94-3.531-1.163-1.844-1.489-3.83-.979-5.962.503-2.095 1.698-3.708 3.592-4.842 1.896-1.129 3.889-1.445 5.984-.943 2.094.5 3.727 1.694 4.898 3.577 1.171 1.886 1.512 3.857 1.019 5.916z"/><path fill="#111314" d="M51.937 38.077c-1.718 4.099-5.13 6.146-10.24 6.146-.937 0-1.952.115-3.044.349-1.639.353-2.457.841-2.457 1.465 0 .195.136.418.409.674.272.253.508.38.703.38-.977 0-.313.03 1.987.086 2.302.06 3.746.089 4.332.089-3.395 1.988-9.07 2.906-17.029 2.749-2.614-.037-4.857-1.188-6.729-3.45-1.834-2.147-2.75-4.546-2.75-7.197 0-2.81.945-5.199 2.839-7.17 1.89-1.968 4.242-2.954 7.051-2.954.623 0 1.453.137 2.486.409 1.034.273 1.727.409 2.077.409 1.444 0 3.238-.596 5.384-1.785 2.146-1.19 3.161-1.785 3.044-1.785-.391 4.096-1.756 6.848-4.097 8.251-1.679.977-2.516 1.933-2.516 2.867 0 .586.349 1.054 1.052 1.406.546.271 1.151.408 1.815.408 1.014 0 2.008-.623 2.984-1.872.974-1.247 1.403-2.379 1.286-3.395-.115-1.17-.037-2.576.235-4.212.077-.47.361-1.045.848-1.726.488-.684.928-1.104 1.317-1.261 0 .353-.128.938-.381 1.755-.254.819-.38 1.427-.38 1.815 0 .859.233 1.522.702 1.99.702-.272 1.325-1.151 1.872-2.634.468-1.131.74-2.224.82-3.276-1.64-.076-3.211-.819-4.712-2.225-1.502-1.404-2.252-2.926-2.252-4.563 0-.272.037-.546.117-.819.232.352.583.899 1.054 1.639.661.974 1.17 1.462 1.521 1.462.468 0 .701-.488.701-1.462 0-1.248-.331-2.379-.994-3.394-.742-1.211-1.698-1.814-2.867-1.814-.548 0-1.366.292-2.458.878-1.093.584-2.088.877-2.982.877-.274 0-1.484-.353-3.63-1.054 3.783-.624 5.676-1.189 5.676-1.698 0-1.326-2.594-2.223-7.783-2.69-.507-.038-1.442-.116-2.808-.235.155-.193 1.268-.408 3.336-.644 1.755-.192 2.983-.293 3.685-.293 9.285 0 15.175 4.507 17.673 13.521.431-.358.646-.95.646-1.78 0-1.069-.312-2.413-.937-4.035-.235-.633-.607-1.583-1.113-2.847 3.197 4.075 4.8 7.937 4.8 11.583 0 1.92-.451 3.666-1.348 5.231-.583 1.06-1.678 2.412-3.276 4.059-1.599 1.646-2.691 2.92-3.277 3.822 2.146-.586 3.552-1.036 4.215-1.347 1.48-.664 2.827-1.66 4.036-2.985-.001.51-.216 1.27-.643 2.282zm-25.515-22.997c0 .702-.391 1.151-1.17 1.347l-1.521.234c-.548.271-1.347 1.346-2.398 3.218-.118-.584-.293-1.404-.528-2.458-.351.039-.936.353-1.755.936-.351.273-.917.684-1.698 1.229.235-1.404 1.017-2.826 2.342-4.271 1.404-1.599 2.771-2.397 4.096-2.397 1.755-.001 2.632.72 2.632 2.162zm10.182 5.385c0 .661-.36 1.22-1.083 1.668-.722.448-1.434.673-2.135.673-.938 0-1.777-.525-2.517-1.582-.898-1.285-1.814-2.124-2.751-2.515.193-.195.429-.293.704-.293.35 0 .944.271 1.783.819.837.548 1.374.819 1.609.819.195 0 .517-.271.965-.819s.945-.819 1.493-.819c1.289 0 1.932.684 1.932 2.049z"/></svg>