<svg xmlns="http://www.w3.org/2000/svg" width="100" height="100"><circle fill="#D9D2CB" cx="50" cy="49.998" r="50"/><path fill="#111314" d="M35.306 18.633v50.44c0 5.997 2.567 8.997 7.693 8.997h1.304v3.42H17.438v-3.42h1.727c4.93 0 7.4-3 7.4-8.998v-33.08c0-6.08-2.155-9.123-6.467-9.123h-2.66v-3.425h1.016c5.238 0 9.97-1.604 14.19-4.812h2.662zm9.76 33.328c0-7.856 1.646-15.08 4.94-21.667C54.148 22.1 59.81 18 66.988 18c6.93 0 12.422 3.508 16.476 10.516 3.296 5.748 4.945 12.38 4.945 19.898 0 7.86-1.65 15.04-4.946 21.545C79.324 77.987 73.707 82 66.61 82c-6.84 0-12.292-3.465-16.35-10.395-3.465-5.828-5.194-12.376-5.194-19.644zm9.122-3.675c0 6.68.718 12.676 2.156 17.996 2.197 8.196 5.785 12.296 10.772 12.296 8.11 0 12.165-8.447 12.165-25.346 0-20.87-4.393-31.3-13.18-31.3-7.942 0-11.913 8.104-11.913 24.327v2.028z"/></svg>