<svg xmlns="http://www.w3.org/2000/svg" width="100" height="100"><path fill="#D9D2CB" d="M100 49.998C100 77.613 77.617 100 50 100 22.387 100 0 77.613 0 49.998 0 22.385 22.387 0 50 0c27.617 0 50 22.385 50 49.998z"/><path fill="#111314" d="M56.64 80v-3.297c4.704-.52 7.06-1.887 7.06-4.082 0-1.58-.63-3.163-1.883-4.745L48.81 51.865 38.534 63.977c-2.57 2.973-3.863 5.432-3.863 7.355 0 2.975 2.355 4.77 7.07 5.387V80h-25.05v-3.287c3.17-.61 5.866-1.752 8.1-3.416 1.54-1.223 3.638-3.37 6.286-6.438l15.45-17.915-17.868-21.66c-2.316-2.797-4.12-4.633-5.402-5.51-1.723-1.225-4.12-2.012-7.203-2.36V16h29.54v3.285c-4.454.877-6.677 2.234-6.677 4.074 0 1.23.594 2.585 1.793 4.07l11.817 14.323 9.508-11.69c1.71-2.105 2.57-3.942 2.57-5.52 0-2.63-2.105-4.34-6.3-5.13V16h23.51v3.29c-2.054.44-3.472.835-4.23 1.19-2.57 1.228-6.495 4.868-11.796 10.92-.852.967-4.454 5.39-10.79 13.284l18.977 23.363c4.113 5.078 8.305 7.97 12.586 8.666V80H56.64z"/></svg>