<svg xmlns="http://www.w3.org/2000/svg" width="100" height="100"><path fill="#CAE0EF" d="M85.35 14.637c9.05 9.05 14.65 21.55 14.65 35.36C100 77.613 77.614 100 50 100c-13.807 0-26.306-5.596-35.355-14.646"/><path fill="#D9D2CB" d="M14.646 85.354C5.596 76.307 0 63.804 0 49.997 0 22.384 22.386 0 50 0c13.803 0 26.3 5.593 35.35 14.637"/><path fill="#111314" d="M76.722 83.675c-2.692 2.74-6.008 4.11-9.947 4.11-4.422 0-7.93-1.515-10.524-4.542-2.45-2.883-3.675-6.558-3.675-11.028 0-4.804 2.09-10.28 6.27-16.434 3.41-5.045 7.424-9.466 12.038-13.262-.673 3.076-1.01 5.262-1.01 6.56 0 2.98.937 5.886 2.81 8.72 2.308 3.366 4.062 5.865 5.263 7.497 1.874 2.835 2.81 5.6 2.81 8.29.002 3.99-1.343 7.353-4.034 10.09zm-.072-15.388c-.72-1.61-1.562-2.68-2.523-3.208.145.287.215.697.215 1.224 0 1.01-.287 2.454-.863 4.325l-.94 2.883c0 1.68.84 2.523 2.523 2.523 1.777 0 2.668-1.177 2.668-3.532 0-1.2-.36-2.608-1.08-4.217zM43.646 41.593l-2.866 9.674H16.96V49.2c1.156-1.29 3.69-3.89 7.606-7.805 2.357-2.358 4.692-4.85 7.005-7.476 1.158-1.288 2.05-2.403 2.668-3.336 1.38-2 2.07-4.045 2.07-6.138 0-2.045-.633-3.847-1.9-5.403-1.268-1.558-2.904-2.338-4.906-2.338-4.313 0-7.694 2.915-10.14 8.742l-2.137-.8c2.89-8.185 7.448-12.277 13.678-12.277 3.07 0 5.682 1.044 7.84 3.135 2.158 2.09 3.235 4.67 3.235 7.74 0 3.915-2.245 7.74-6.738 11.477l-4.668 3.867c-2.98 2.49-5.453 4.826-7.406 7.005-.136.135-.402.447-.802.936h12.41c1.912 0 3.36-.376 4.335-1.134.844-.667 1.67-1.936 2.47-3.803h2.066z"/></svg>