<svg xmlns="http://www.w3.org/2000/svg" width="100" height="100"><circle fill="#D9D2CB" cx="50" cy="50" r="50"/><path fill="#111314" d="M23 52.428c0-9.787 2.06-18.812 6.19-27.072C34.31 15.12 41.315 10 50.204 10 59 10 65.87 14.36 70.81 23.064 74.935 30.25 77 38.602 77 48.114c0 9.882-2.064 18.815-6.19 26.804C65.776 84.978 58.772 90 49.796 90c-8.53 0-15.305-4.307-20.336-12.926C25.154 69.714 23 61.498 23 52.428zm11.31-4.444c0 12.926 1.93 22.984 5.794 30.168 2.69 5.025 6.146 7.54 10.367 7.54 10.147 0 15.222-10.505 15.222-31.517 0-9.244-.81-17.06-2.422-23.434-2.785-10.503-7.498-15.76-14.145-15.76-9.88 0-14.816 10.15-14.816 30.444v2.56z"/></svg>