<svg xmlns="http://www.w3.org/2000/svg" width="100" height="100"><circle fill="#FBF8E0" cx="50" cy="50.069" r="50"/><path fill="#111314" d="M34.564 77.88c1.674-1.962 6.073-1.816 6.656 2.14.354 2.41 1 10.11 1.808 13.346.427 1.712 1.257 3.155 2.34 3.225 1.92.125 6.613-3.748 7.613-5.565 1.774-3.23 3.06-6.877 4.27-10.784.476-1.524 2.1-1.598 2.995-.122 1.665 2.753 4.89 7.428 7.625 10.794.722.887 1.59.788 1.793-.628.73-5.124 1.84-11.178 3.86-16.653.667-1.808 2.552-2.01 4.03-1.11.836.508 3.53 1.853 4.547 2.167 1.747.54 3.232.658 5.476-1.01 1.722-1.282 1.854-2.533.954-3.905-1.847-2.82-4.365-4.995-6.375-7.91-1.108-1.607-.998-2.753.407-3.585 3.61-2.14 6.763-4.583 9.646-6.955 1.06-.87 1.827-2.167 2.07-4.38.35-3.172.56-4.754-.833-5.148-1.367-.39-2.198.59-7.983 2.088-1.374.355-2.97.57-3.51-.167-.555-.758-.188-2.205.997-3.51 1.774-1.96 4.088-4.28 5.895-6.986.866-1.3 1.938-3.412 1.088-4.68-.93-1.384-3.298-.618-4.414-.127-1.555.685-4.61 1.34-6.47 1.608-2.42.353-4.232.26-4.97-.516-.66-.692-.863-2.343-.15-4.16 1.055-2.678 2.958-5.136 4.528-6.448 1.396-1.166 1.275-1.848.204-2.753-.858-.726-3.48-1.218-5.473-.613-2.938.89-5.73 2.35-8.334 4.31-1.47 1.104-3.445 1.654-5.008 1.385-1.283-.22-2.67-1.268-3.03-3.363-.802-4.66-1.85-9.36-3.03-11.993-.722-1.608-1.27-2.192-2.255-2.182-.96.01-1.57.776-2.403 2.365-1.322 2.527-2.68 7.618-3.695 11.81-.592 2.438-1.68 3.402-3.604 4.563-1.07.647-2.087.222-2.642-1.146-.553-1.363-2.465-5.932-3.086-7.8-.407-1.218-.906-1.292-1.7-.128-1.812 2.653-4.823 7.706-6.136 10.48-.775 1.635-.94 3.163.073 4.193 1.355 1.377 1.883 2.063 1.108 2.864-.536.554-2.913.185-5.52-.407-1.725-.392-4.663-.85-7.343 0-2.212.703-3.63 1.833-3.844 3.277-.17 1.158 2.107 4.43 3.444 5.556.99.834 1.446 1.512 1.547 2.237.204 1.478 0 3.382-.83 4.62-.44.65-1.83.665-4.62.83-6.254.373-8.986 1.564-9.297 6.007-.223 3.19 2.1 5.09 5.618 4.25 1.566-.373 2.977-.517 4.732-.148 1.72.362 4.822 1.275 4.842 2.94.022 2.068-3.217 2.55-6.344 3.71-1.248.464-.92 1.667.135 1.852 1.035.18 12.755 3.258 14.945 5.948 1.213 1.49-.172 4.784-.976 6.692-.788 1.873-.388 7.355.333 7.54.752.192 2.458-1.535 3.63-2.762 1.496-1.564 3.126-3.347 4.667-5.152z"/><path stroke="#FBF8E0" stroke-width="2.5" stroke-miterlimit="10" d="M69.888 50.07c0 10.98-8.903 19.884-19.884 19.884-10.988 0-19.89-8.902-19.89-19.885 0-10.982 8.9-19.885 19.89-19.885 10.98 0 19.884 8.903 19.884 19.884z" fill="none"/></svg>