<svg xmlns="http://www.w3.org/2000/svg" width="100" height="100"><path fill="#FCF9E1" d="M85.35 14.637c9.05 9.05 14.65 21.55 14.65 35.36C100 77.613 77.613 100 50 100c-13.807 0-26.305-5.596-35.354-14.646"/><path fill="#A8C796" d="M14.646 85.354C5.596 76.307 0 63.804 0 49.997 0 22.384 22.387 0 50 0c13.802 0 26.3 5.593 35.35 14.637"/><path fill="#111314" d="M88 73.112c-2.436-2.265-4.054-3.492-4.848-3.682-.576-.14-1.135.198-1.672 1.003-.537.81-1.29 1.095-2.268.86-.396-.094-1.175-.433-2.334-1.017-.938.885-1.44 1.47-1.51 1.758-.096.4.088.938.55 1.623.46.682.894 1.072 1.3 1.17.258.06.622.09 1.09.09.47-.002.778.014.928.05.443.104.47.97.078 2.595-.37 1.554-1.302 3.854-2.793 6.893-.058-3.91-.61-5.99-1.655-6.238-.145-.035-.47.003-.972.11-.505.108-.864.138-1.08.085-1.048-.25-1.758-1.433-2.13-3.545-1.724-.146-2.758.506-3.104 1.95-.175.725.022 1.382.588 1.974.563.593.823.98.782 1.16-.233.978-2.02 2.135-5.356 3.475-1.776.72-3.007 1.227-3.688 1.522.66-.528 1.37-1.256 2.127-2.182.862-1.056 1.37-1.906 1.528-2.558.087-.36-.208-.966-.883-1.815-.676-.848-.926-1.633-.753-2.355.146-.614.543-1.32 1.194-2.12-.34-.654-.835-1.06-1.485-1.215-1.444-.348-2.28-.05-2.504.89l-.35 1.463c-.25 1.2-1.297 1.58-3.14 1.14-1.408-.338-3.695-1.23-6.863-2.674 3.98-.038 6.118-.673 6.41-1.902-.03.146-.002-.305.098-1.352.122-1.153 1.16-1.975 3.108-2.463.072-1.738-.594-2.777-2.004-3.114-.217-.053-.706.23-1.464.85-.76.62-1.393.872-1.898.75-.867-.205-1.763-1.413-2.684-3.62-.427-1.095-1.088-2.723-1.983-4.886.728.633 1.454 1.267 2.183 1.896.963.767 1.77 1.226 2.42 1.382.505.122 1.107-.202 1.807-.97.7-.77 1.446-1.06 2.24-.868.11.027.78.415 2.013 1.17.937-.884 1.466-1.578 1.588-2.084.103-.434-.04-.994-.43-1.678-.39-.687-.802-1.08-1.235-1.184-.18-.045-.473-.057-.878-.04-.405.02-.698.006-.88-.037-.648-.156-.78-1.044-.39-2.67.1-.434 1.11-2.81 3.02-7.124-.165.532-.172 1.6-.02 3.203.18 1.952.687 3.024 1.518 3.227.144.032.46-.007.946-.12.486-.11.853-.138 1.105-.078.83.198 1.404.833 1.723 1.9l.463 1.656c.76.183 1.456.064 2.09-.357.637-.423 1.047-1.012 1.228-1.77.19-.794 0-1.48-.568-2.057-.57-.574-.83-.97-.775-1.187.18-.758 1.68-1.755 4.495-2.99 2.26-.987 3.71-1.537 4.35-1.653-2.055 1.726-3.2 3.072-3.433 4.05-.12.505.055 1.12.53 1.846.596.866.913 1.458.95 1.77.162.918-.145 2.047-.924 3.39.81.92 1.47 1.438 1.977 1.56 1.045.25 1.7-.166 1.958-1.25.026-.108.063-.46.112-1.06.046-.6.098-.932.15-.996.267-.47 1.32-.487 3.162-.045 1.156.274 3.48 1.174 6.973 2.698l-3.81.118c-1.55.09-2.388.404-2.518.945-.06.254-.074.71-.04 1.365.034.657.017 1.132-.053 1.42-.12.506-.56.896-1.312 1.174l-2.155.86c.245.898.42 1.437.53 1.616.26.518.693.854 1.307 1 .434.104.922-.18 1.465-.853.54-.672 1.21-.913 2.006-.722.975.233 1.86 1.4 2.657 3.5.446 1.177 1.144 2.966 2.097 5.372zm-11.274-6.02c.552-2.312.184-4.52-1.108-6.625s-3.094-3.433-5.404-3.984c-2.348-.56-4.573-.206-6.67 1.07-2.1 1.27-3.45 3.077-4.047 5.415-.59 2.302-.21 4.504 1.14 6.604 1.35 2.097 3.18 3.425 5.494 3.978 2.455.587 4.698.273 6.726-.94 2.026-1.214 3.316-3.055 3.87-5.518zm-.815-.195c-.525 2.202-1.702 3.85-3.53 4.94-1.825 1.09-3.842 1.372-6.043.845-2.13-.512-3.777-1.687-4.94-3.533-1.163-1.843-1.49-3.83-.98-5.96.504-2.096 1.7-3.71 3.593-4.843 1.896-1.13 3.89-1.445 5.984-.943 2.094.5 3.727 1.692 4.898 3.577 1.17 1.887 1.512 3.858 1.02 5.917zM51.64 34.315c0 .758-.293 1.438-.88 2.042-.585.605-1.257.91-2.015.91-1.207 0-2.098-.57-2.663-1.703l-2.666-.115c-.568 0-1.685.246-3.346.737-1.777.49-2.798.89-3.064 1.19-.414.453-.755 1.513-1.02 3.176-.228 1.36-.34 2.364-.34 3.007 0 1.02.16 1.77.48 2.24.322.474.985.87 1.985 1.19 1.002.32 1.617.502 1.845.538.15 0 .396-.018.737-.057h.68c.492 0 1.002.078 1.533.23.755.228 1.077.53.965.908-.53-.077-1.456.037-2.778.34l1.586.793c0 .456-.643.682-1.928.682-.342 0-.805-.076-1.39-.226-.587-.153-.975-.227-1.163-.227h-.736c-.038.375-.15.942-.34 1.7-.645-.04-1.4-.417-2.27-1.137-.87-.716-1.418-1.077-1.643-1.077-.228 0-.55.36-.965 1.077-.417.72-.624 1.21-.624 1.476-.49-.266-.905-.757-1.25-1.477-.15-.49-.32-.982-.508-1.474-.38.038-1.077.83-2.1 2.382h-.283c-.076-.115-.36-.91-.852-2.383-1.172-.38-2.268-.568-3.288-.568-.49 0-1.25.115-2.27.34l-1.586-.112c.226-.228.89-.66 1.984-1.304 1.284-.756 2.27-1.135 2.95-1.135.11 0 .263.02.453.058.188.038.34.056.454.056.264 0 .69-.14 1.276-.426.586-.28.927-.537 1.02-.764.097-.228.144-.813.144-1.76 0-2.154-.568-3.76-1.703-4.82-.983-.945-2.608-1.625-4.877-2.04-.604 2.154-2.307 3.232-5.103 3.232-.91 0-1.815-.55-2.723-1.646-.905-1.096-1.36-2.098-1.36-3.005 0-1.4.585-2.553 1.757-3.462-.943-.98-1.417-1.983-1.417-3.004 0-.948.292-1.778.88-2.5.585-.715 1.352-1.132 2.296-1.244-.075-1.21.32-2.042 1.19-2.496-.416-.416-.623-1.153-.623-2.21 0-1.248.414-2.29 1.247-3.12.83-.833 1.872-1.25 3.117-1.25 1.364 0 2.48.477 3.35 1.42 1.097-3.743 3.458-5.615 7.088-5.615 1.89 0 3.554.756 4.99 2.27.53.567.793.87.793.906-.45 0-.224-.084.682-.254.91-.17 1.568-.256 1.986-.256 1.474 0 2.778.548 3.915 1.646.982.983 1.663 2.23 2.042 3.743.263.038.68.15 1.246.338.832.42 1.25 1.135 1.25 2.156 0 .19-.153.55-.455 1.077 2.42 1.362 3.63 3.253 3.63 5.674 0 .68-.265 1.626-.793 2.835.986.567 1.478 1.4 1.478 2.495zM28.273 36.81v-.734c0-.87-.425-1.665-1.276-2.382-.85-.718-1.71-1.078-2.58-1.078-1.06 0-2.042.244-2.95.736 2.005-.114 4.273 1.04 6.806 3.46zm-1.02-7.03c-.567-.645-1.06-1.306-1.475-1.986-1.59.417-2.382.89-2.382 1.417.452-.034 1.115.05 1.983.26.87.206 1.495.31 1.872.31zm3.462-1.76v-2.494c-.91-.15-1.46-.228-1.646-.228v.85l1.645 1.873zm7.37-1.587c-.453-.19-1.304-.567-2.553-1.134v4.876c1.78-1.02 2.628-2.27 2.554-3.743zm3.117 6.693l-1.246-1.532c-.755.53-1.52 1.067-2.298 1.617-.775.55-1.445 1.163-2.01 1.843 1.698-.908 3.553-1.55 5.554-1.927z"/></svg>