<svg xmlns="http://www.w3.org/2000/svg" width="100" height="100"><circle fill="#D9D2CB" cx="50" cy="49.998" r="50"/><path fill="#111314" d="M52.307 6.25v27.246c0 3.26 1.37 4.89 4.117 4.89h.715v1.864H42.642v-1.865h.91c2.656 0 3.98-1.63 3.98-4.89V15.624c0-3.297-1.145-4.947-3.434-4.947H42.64V8.87h.523c2.832 0 5.395-.874 7.688-2.62h1.454zM61.553 80.504L59.05 88.96H38.23v-1.81c1.01-1.127 3.226-3.4 6.647-6.822 2.062-2.062 4.102-4.238 6.12-6.53 1.013-1.13 1.79-2.103 2.333-2.92 1.207-1.745 1.81-3.534 1.81-5.362 0-1.79-.556-3.363-1.66-4.723-1.106-1.363-2.532-2.045-4.286-2.045-3.773 0-6.727 2.55-8.863 7.643l-1.866-.7c2.527-7.15 6.508-10.73 11.953-10.73 2.684 0 4.965.914 6.855 2.74 1.887 1.828 2.828 4.082 2.828 6.766 0 3.422-1.965 6.766-5.89 10.03l-4.083 3.38c-2.605 2.182-4.766 4.223-6.473 6.127-.117.115-.352.39-.7.816h10.85c1.667 0 2.933-.33 3.788-.993.734-.582 1.457-1.69 2.156-3.322h1.805zM20.732 49.455v-2.91H79.06v2.91H20.732z"/></svg>