<svg xmlns="http://www.w3.org/2000/svg" width="100" height="100"><path fill="#FCF9E1" d="M85.35 14.637c9.05 9.05 14.65 21.55 14.65 35.36C100 77.613 77.613 100 50 100c-13.807 0-26.305-5.596-35.354-14.646"/><path fill="#F5A477" d="M14.646 85.354C5.596 76.307 0 63.804 0 49.997 0 22.384 22.387 0 50 0c13.802 0 26.3 5.593 35.35 14.637"/><path fill="#111314" d="M88 73.112c-2.436-2.265-4.054-3.492-4.848-3.682-.576-.138-1.135.198-1.672 1.005-.537.808-1.29 1.093-2.268.86-.396-.096-1.175-.435-2.334-1.018-.938.885-1.44 1.47-1.51 1.758-.096.398.088.938.55 1.622.46.684.894 1.072 1.3 1.17.258.06.622.09 1.09.09.47-.002.778.014.928.05.443.104.47.97.078 2.597-.37 1.552-1.302 3.852-2.793 6.892-.058-3.91-.61-5.99-1.655-6.24-.145-.034-.47.004-.972.112-.505.107-.864.137-1.08.085-1.048-.25-1.758-1.432-2.13-3.546-1.724-.144-2.758.506-3.104 1.95-.175.725.022 1.382.588 1.975.563.592.823.98.782 1.16-.233.977-2.02 2.133-5.356 3.473-1.776.72-3.007 1.227-3.688 1.522.66-.528 1.37-1.256 2.127-2.182.862-1.056 1.37-1.906 1.528-2.558.087-.36-.208-.966-.883-1.815-.676-.848-.926-1.633-.753-2.355.146-.614.543-1.32 1.194-2.12-.34-.654-.835-1.06-1.485-1.215-1.444-.347-2.28-.05-2.504.89l-.35 1.463c-.25 1.2-1.297 1.58-3.14 1.14-1.408-.338-3.695-1.23-6.863-2.673 3.98-.04 6.118-.675 6.41-1.902-.03.145-.002-.307.098-1.353.122-1.154 1.16-1.976 3.108-2.464.072-1.738-.594-2.777-2.004-3.114-.217-.053-.706.23-1.464.852-.76.62-1.393.87-1.898.748-.867-.205-1.763-1.413-2.684-3.62-.427-1.095-1.088-2.723-1.983-4.885l2.183 1.897c.963.765 1.77 1.225 2.42 1.382.505.12 1.107-.204 1.807-.973.7-.767 1.446-1.057 2.24-.866.11.027.78.415 2.013 1.17.937-.884 1.466-1.578 1.588-2.084.103-.434-.04-.993-.43-1.678-.39-.686-.802-1.08-1.235-1.184-.18-.043-.473-.057-.878-.04-.405.02-.698.006-.88-.037-.648-.154-.78-1.044-.39-2.67.1-.434 1.11-2.81 3.02-7.123-.165.53-.172 1.6-.02 3.202.18 1.952.687 3.026 1.518 3.227.144.033.46-.005.946-.12.486-.11.853-.138 1.105-.077.83.198 1.404.833 1.723 1.9l.463 1.656c.76.183 1.456.064 2.09-.357.637-.422 1.047-1.012 1.228-1.77.19-.794 0-1.48-.568-2.055-.57-.576-.83-.97-.775-1.188.18-.758 1.68-1.755 4.495-2.99 2.26-.985 3.71-1.537 4.35-1.65-2.055 1.723-3.2 3.07-3.433 4.046-.12.506.055 1.12.53 1.847.596.867.913 1.46.95 1.772.162.92-.145 2.046-.924 3.39.81.92 1.47 1.438 1.977 1.56 1.045.25 1.7-.167 1.958-1.25.026-.108.063-.462.112-1.062.046-.6.098-.93.15-.995.267-.47 1.32-.487 3.162-.045 1.156.277 3.48 1.175 6.973 2.7-.847.025-2.116.064-3.81.12-1.55.086-2.388.4-2.518.942-.06.253-.074.708-.04 1.364.034.657.017 1.132-.053 1.42-.12.507-.56.897-1.312 1.176l-2.155.86c.245.897.42 1.436.53 1.615.26.52.693.854 1.307 1 .434.105.922-.18 1.465-.853.54-.672 1.21-.913 2.006-.722.975.232 1.86 1.398 2.657 3.5.446 1.175 1.144 2.966 2.097 5.37zm-11.274-6.02c.552-2.312.184-4.52-1.108-6.623-1.292-2.105-3.094-3.434-5.404-3.987-2.348-.56-4.573-.206-6.67 1.07-2.1 1.27-3.45 3.077-4.047 5.416-.59 2.302-.21 4.503 1.14 6.602 1.35 2.098 3.18 3.425 5.494 3.978 2.455.587 4.698.274 6.726-.94 2.026-1.214 3.316-3.055 3.87-5.518zm-.815-.195c-.525 2.203-1.702 3.85-3.53 4.94-1.825 1.09-3.842 1.372-6.043.845-2.13-.51-3.777-1.687-4.94-3.53-1.163-1.845-1.49-3.83-.98-5.963.504-2.096 1.7-3.71 3.593-4.843 1.896-1.13 3.89-1.445 5.984-.943 2.094.5 3.727 1.694 4.898 3.577 1.17 1.887 1.512 3.858 1.02 5.917zM51.937 38.077c-1.718 4.1-5.13 6.146-10.24 6.146-.937 0-1.952.115-3.044.35-1.64.352-2.457.84-2.457 1.464 0 .195.136.418.41.674.27.254.507.38.702.38-.977 0-.313.03 1.987.087 2.302.06 3.746.09 4.332.09-3.395 1.987-9.07 2.905-17.03 2.748-2.613-.037-4.856-1.188-6.728-3.45-1.835-2.147-2.75-4.546-2.75-7.197 0-2.81.944-5.2 2.838-7.17 1.89-1.968 4.242-2.954 7.05-2.954.624 0 1.454.137 2.487.41 1.034.272 1.727.408 2.077.408 1.444 0 3.238-.596 5.384-1.785 2.146-1.19 3.16-1.785 3.044-1.785-.39 4.096-1.756 6.848-4.097 8.25-1.68.978-2.516 1.934-2.516 2.868 0 .586.35 1.054 1.052 1.406.545.27 1.15.408 1.814.408 1.014 0 2.008-.623 2.984-1.872.974-1.247 1.403-2.38 1.286-3.395-.115-1.17-.037-2.576.235-4.212.076-.47.36-1.045.847-1.726.488-.685.928-1.105 1.317-1.262 0 .353-.128.938-.38 1.755-.255.82-.38 1.427-.38 1.815 0 .86.232 1.522.7 1.99.703-.272 1.326-1.15 1.873-2.634.468-1.13.74-2.224.82-3.276-1.64-.076-3.21-.82-4.712-2.225-1.502-1.404-2.252-2.926-2.252-4.563 0-.272.037-.546.117-.82.232.353.583.9 1.054 1.64.66.974 1.17 1.462 1.52 1.462.47 0 .702-.488.702-1.462 0-1.248-.33-2.38-.994-3.394-.742-1.21-1.698-1.814-2.867-1.814-.548 0-1.366.292-2.458.878-1.093.584-2.088.877-2.982.877-.274 0-1.484-.353-3.63-1.054 3.783-.624 5.676-1.19 5.676-1.698 0-1.326-2.593-2.223-7.782-2.69-.507-.038-1.442-.116-2.808-.235.155-.193 1.268-.408 3.336-.644 1.755-.192 2.983-.293 3.685-.293 9.286 0 15.176 4.507 17.674 13.52.43-.357.646-.95.646-1.78 0-1.068-.312-2.412-.937-4.034-.235-.634-.607-1.584-1.113-2.848 3.197 4.075 4.8 7.937 4.8 11.583 0 1.92-.45 3.666-1.348 5.23-.583 1.06-1.678 2.413-3.276 4.06-1.6 1.646-2.69 2.92-3.277 3.822 2.145-.586 3.55-1.036 4.214-1.347 1.48-.664 2.827-1.66 4.036-2.985 0 .51-.216 1.27-.643 2.282zM26.422 15.08c0 .702-.39 1.15-1.17 1.347l-1.52.234c-.55.272-1.348 1.347-2.4 3.22-.117-.585-.292-1.405-.527-2.46-.35.04-.936.354-1.755.937-.35.273-.917.684-1.698 1.23.235-1.405 1.017-2.827 2.342-4.272 1.404-1.6 2.77-2.397 4.096-2.397 1.755 0 2.632.72 2.632 2.162zm10.182 5.385c0 .66-.36 1.22-1.083 1.668-.72.448-1.433.673-2.134.673-.938 0-1.777-.525-2.517-1.582-.9-1.285-1.815-2.124-2.752-2.515.193-.196.43-.294.704-.294.35 0 .944.27 1.783.82.837.547 1.374.818 1.61.818.194 0 .516-.27.964-.82s.944-.818 1.492-.818c1.29 0 1.932.684 1.932 2.05z"/></svg>