<svg xmlns="http://www.w3.org/2000/svg" width="100" height="100"><circle fill="#D7D1C9" cx="50.001" cy="50" r="50"/><path fill="#111314" d="M37.843 89.157l2.355-4.08L50 98.88l9.802-13.803 2.356 4.08 4.338.05L75 93.303l.708-9.412 2.125-3.784-2.355-4.08 16.856-1.586-7.054-15.39h4.71l2.213-3.73L100 50l-7.797-5.32-2.213-3.73h-4.71l7.053-15.39-16.855-1.587 2.355-4.08-2.126-3.782L75 6.7l-8.504 4.092-4.338.05-2.356 4.08L50 1.118l-9.802 13.804-2.355-4.08-4.338-.05L25 6.7l-.707 9.41-2.125 3.783 2.355 4.08L7.667 25.56l7.055 15.39h-4.71l-2.214 3.732L0 50l7.797 5.32 2.214 3.73h4.712L7.668 74.44l16.855 1.587-2.355 4.08 2.125 3.782L25 93.3l8.505-4.093z"/><path fill="#fff" d="M34.895 80.21L50 55.876 65.105 80.21v4.05l3.505 2.022 3.506-2.024v-4.046l-3.506-2.024-13.522-25.25 28.63-.914 3.505 2.024 3.504-2.023v-4.05l-3.504-2.022-3.506 2.023-28.63-.913 13.524-25.25 3.507-2.024v-4.047L68.61 13.72l-3.503 2.022v4.047L50 44.124 34.897 19.79v-4.05L31.39 13.72l-3.507 2.025v4.046l3.506 2.022 13.523 25.25-28.628.914-3.507-2.023-3.503 2.022v4.05l3.503 2.022 3.507-2.023 28.628.913-13.523 25.25-3.505 2.024v4.048l3.505 2.023 3.505-2.022zM57.05 22.393L50 34.68l-7.05-12.287L50 10.103zM29.617 30.09l7.117 12.25-14.167-.04-7.117-12.248zM22.566 57.697l14.167-.038-7.117 12.248-14.167.04zM42.95 77.608L50 65.318l7.05 12.29L50 89.896zM70.384 69.91l-7.117-12.25 14.167.04 7.117 12.248zM77.435 42.303l-14.167.038 7.117-12.248 14.166-.04z"/></svg>