<svg xmlns="http://www.w3.org/2000/svg" width="100" height="100"><path fill="#FCF9E1" d="M85.349 14.637c9.052 9.05 14.651 21.551 14.651 35.36 0 27.616-22.387 50.003-50 50.003-13.807 0-26.305-5.596-35.354-14.646"/><path fill="#A8C796" d="M14.646 85.354c-9.05-9.047-14.646-21.549-14.646-35.357 0-27.613 22.387-49.997 50-49.997 13.802 0 26.301 5.593 35.349 14.637"/><path fill="#111314" d="M88 73.112c-2.436-2.265-4.054-3.492-4.848-3.682-.576-.139-1.135.198-1.672 1.003-.537.809-1.291 1.095-2.268.861-.396-.095-1.175-.434-2.334-1.018-.938.885-1.441 1.471-1.511 1.758-.095.399.089.938.551 1.623.46.682.894 1.072 1.301 1.17.257.061.621.091 1.09.089.468-.001.777.015.927.051.443.104.469.971.078 2.595-.37 1.554-1.302 3.854-2.793 6.893-.059-3.909-.61-5.99-1.656-6.238-.145-.035-.469.003-.972.111-.505.107-.864.137-1.08.084-1.048-.25-1.758-1.433-2.131-3.545-1.723-.146-2.757.506-3.103 1.95-.174.725.023 1.382.589 1.974.563.592.823.98.782 1.16-.233.977-2.021 2.134-5.356 3.474-1.776.721-3.007 1.227-3.688 1.522.659-.528 1.369-1.256 2.127-2.182.862-1.056 1.371-1.906 1.528-2.558.086-.359-.209-.966-.884-1.815-.676-.848-.926-1.633-.753-2.355.146-.614.543-1.321 1.194-2.12-.341-.654-.835-1.06-1.485-1.215-1.444-.348-2.279-.049-2.504.89l-.35 1.463c-.25 1.2-1.296 1.579-3.138 1.14-1.409-.338-3.696-1.229-6.864-2.674 3.981-.039 6.118-.674 6.411-1.903-.032.146-.003-.305.097-1.352.122-1.153 1.16-1.975 3.108-2.463.072-1.738-.594-2.777-2.004-3.114-.216-.052-.705.232-1.463.851-.761.621-1.393.872-1.898.75-.867-.205-1.763-1.413-2.684-3.62-.427-1.095-1.088-2.723-1.983-4.886.727.633 1.453 1.267 2.182 1.896.963.767 1.77 1.226 2.419 1.382.506.122 1.108-.202 1.808-.971.699-.768 1.446-1.058 2.24-.867.111.027.78.415 2.013 1.169.937-.883 1.466-1.577 1.588-2.083.102-.434-.04-.994-.431-1.678-.39-.687-.802-1.08-1.235-1.184-.181-.045-.473-.057-.878-.039-.405.019-.698.005-.879-.038-.649-.157-.781-1.045-.392-2.671.102-.434 1.11-2.809 3.022-7.124-.166.532-.173 1.601-.021 3.203.181 1.953.687 3.025 1.518 3.228.144.032.459-.007.946-.119.485-.112.852-.139 1.104-.079.83.199 1.404.834 1.723 1.902l.463 1.655c.758.183 1.455.064 2.09-.357.636-.422 1.046-1.011 1.227-1.769.189-.794 0-1.479-.568-2.057-.569-.574-.829-.971-.775-1.187.181-.758 1.68-1.755 4.495-2.99 2.26-.987 3.709-1.537 4.349-1.653-2.054 1.726-3.199 3.072-3.432 4.049-.121.506.055 1.121.531 1.847.595.867.912 1.459.95 1.772.161.917-.146 2.046-.925 3.389.811.92 1.47 1.438 1.977 1.56 1.045.251 1.699-.166 1.958-1.249.026-.109.063-.462.112-1.062.046-.599.098-.931.151-.995.266-.471 1.319-.487 3.161-.045 1.156.275 3.479 1.175 6.973 2.699l-3.809.118c-1.55.089-2.389.404-2.519.945-.06.253-.074.708-.04 1.364.034.657.017 1.132-.053 1.419-.12.507-.559.897-1.312 1.175l-2.155.861c.245.898.42 1.437.531 1.616.259.518.692.854 1.306 1 .434.104.922-.181 1.465-.853.542-.672 1.212-.913 2.007-.722.975.232 1.861 1.398 2.657 3.498.446 1.178 1.144 2.967 2.097 5.373zm-11.274-6.02c.552-2.312.184-4.521-1.108-6.625s-3.094-3.433-5.404-3.984c-2.348-.561-4.573-.206-6.671 1.069-2.099 1.27-3.448 3.078-4.046 5.416-.59 2.302-.21 4.504 1.141 6.604 1.35 2.097 3.18 3.425 5.493 3.978 2.454.587 4.697.273 6.725-.941 2.026-1.213 3.316-3.054 3.87-5.517zm-.815-.195c-.526 2.202-1.703 3.85-3.53 4.939-1.826 1.09-3.843 1.373-6.044.846-2.131-.512-3.777-1.687-4.94-3.533-1.163-1.842-1.489-3.829-.979-5.96.503-2.095 1.698-3.708 3.592-4.842 1.896-1.13 3.889-1.445 5.984-.943 2.094.5 3.727 1.692 4.898 3.577 1.171 1.886 1.512 3.857 1.019 5.916z"/><path fill="#111314" d="M51.64 34.315c0 .758-.293 1.438-.879 2.042-.586.605-1.258.909-2.016.909-1.207 0-2.098-.568-2.663-1.702l-2.666-.115c-.568 0-1.685.247-3.346.738-1.777.491-2.798.89-3.064 1.191-.414.452-.755 1.512-1.02 3.175-.228 1.361-.339 2.364-.339 3.007 0 1.021.16 1.769.48 2.24.321.474.984.87 1.984 1.191 1.001.32 1.616.501 1.844.537.151 0 .396-.018.737-.057h.681c.491 0 1.001.077 1.532.228.755.229 1.077.53.965.909-.531-.077-1.456.037-2.778.34l1.586.793c0 .455-.643.681-1.928.681-.342 0-.805-.076-1.39-.226-.587-.153-.975-.227-1.163-.227h-.736c-.039.376-.151.943-.341 1.7-.645-.039-1.399-.416-2.27-1.136-.87-.716-1.418-1.077-1.643-1.077-.228 0-.551.361-.965 1.077-.417.72-.624 1.211-.624 1.476-.491-.265-.905-.756-1.249-1.476-.151-.491-.321-.982-.509-1.474-.379.039-1.077.832-2.099 2.383h-.284c-.076-.115-.36-.909-.852-2.383-1.172-.378-2.268-.567-3.288-.567-.491 0-1.249.115-2.27.34l-1.586-.112c.225-.228.888-.661 1.983-1.304 1.284-.756 2.269-1.135 2.949-1.135.112 0 .264.02.454.057.188.038.341.056.454.056.263 0 .689-.141 1.275-.426.586-.281.927-.537 1.019-.764.098-.228.145-.813.145-1.76 0-2.154-.568-3.761-1.703-4.82-.983-.945-2.608-1.625-4.877-2.04-.604 2.154-2.307 3.232-5.103 3.232-.909 0-1.815-.549-2.723-1.646-.905-1.096-1.361-2.098-1.361-3.005 0-1.399.586-2.553 1.758-3.462-.944-.981-1.418-1.983-1.418-3.004 0-.947.292-1.777.879-2.498.586-.716 1.353-1.133 2.297-1.245-.074-1.211.321-2.042 1.191-2.496-.416-.416-.623-1.153-.623-2.211 0-1.247.414-2.288 1.247-3.119.83-.833 1.872-1.25 3.117-1.25 1.363 0 2.479.477 3.348 1.42 1.098-3.743 3.459-5.615 7.089-5.615 1.89 0 3.554.756 4.99 2.269.53.568.793.87.793.907-.452 0-.225-.085.681-.255.909-.17 1.568-.256 1.986-.256 1.474 0 2.778.548 3.915 1.646.982.983 1.663 2.229 2.042 3.743.263.039.679.151 1.246.339.831.419 1.248 1.135 1.248 2.156 0 .189-.152.549-.454 1.077 2.419 1.361 3.63 3.252 3.63 5.673 0 .679-.265 1.626-.793 2.835.986.568 1.478 1.402 1.478 2.496zm-23.367 2.496v-.735c0-.87-.425-1.665-1.276-2.382-.851-.718-1.71-1.078-2.58-1.078-1.06 0-2.042.244-2.949.736 2.004-.114 4.272 1.041 6.805 3.459zm-1.021-7.032c-.566-.644-1.058-1.305-1.474-1.985-1.589.417-2.382.889-2.382 1.417.452-.035 1.115.048 1.983.258.87.207 1.496.31 1.873.31zm3.463-1.758v-2.495c-.91-.15-1.459-.228-1.646-.228v.85l1.646 1.873zm7.371-1.588c-.454-.189-1.305-.567-2.554-1.134v4.877c1.779-1.021 2.628-2.27 2.554-3.743zm3.116 6.693l-1.246-1.532c-.755.53-1.521 1.067-2.298 1.617-.775.549-1.445 1.162-2.011 1.842 1.699-.908 3.554-1.549 5.555-1.927z"/></svg>