<svg xmlns="http://www.w3.org/2000/svg" width="100" height="100"><path fill="#FCF9E1" d="M85.35 14.637c9.05 9.05 14.65 21.55 14.65 35.36C100 77.613 77.614 100 50 100c-13.807 0-26.306-5.596-35.355-14.646"/><path fill="#D9D2CB" d="M14.646 85.354C5.596 76.307 0 63.804 0 49.997 0 22.384 22.386 0 50 0c13.803 0 26.3 5.593 35.35 14.637"/><path fill="#111314" d="M43.646 41.59l-2.866 9.677H16.96V49.2c1.156-1.29 3.69-3.892 7.606-7.805 2.357-2.36 4.692-4.85 7.005-7.476 1.158-1.29 2.05-2.403 2.668-3.337 1.38-2 2.07-4.046 2.07-6.138 0-2.045-.633-3.848-1.9-5.402-1.268-1.56-2.904-2.34-4.906-2.34-4.313 0-7.694 2.917-10.14 8.744l-2.137-.803c2.89-8.182 7.448-12.274 13.678-12.274 3.07 0 5.682 1.044 7.84 3.134 2.158 2.092 3.235 4.67 3.235 7.74 0 3.916-2.245 7.74-6.738 11.476l-4.668 3.87c-2.98 2.49-5.453 4.826-7.406 7.004-.136.136-.402.446-.802.935h12.41c1.912 0 3.36-.378 4.335-1.134.844-.67 1.67-1.936 2.47-3.805h2.066zM88 73.112c-2.436-2.265-4.054-3.492-4.847-3.682-.577-.138-1.135.198-1.672 1.005-.536.808-1.29 1.093-2.268.86-.396-.096-1.175-.435-2.333-1.018-.94.885-1.442 1.47-1.51 1.758-.096.398.087.938.55 1.622.46.684.893 1.072 1.3 1.17.257.06.62.09 1.09.09.467-.002.777.014.926.05.444.104.47.97.078 2.597-.37 1.552-1.302 3.852-2.793 6.892-.057-3.91-.608-5.99-1.655-6.24-.145-.034-.47.004-.972.112-.504.107-.864.137-1.08.085-1.047-.25-1.758-1.432-2.13-3.546-1.723-.144-2.757.506-3.103 1.95-.173.725.024 1.382.59 1.975.563.592.823.98.782 1.16-.234.977-2.02 2.133-5.356 3.473-1.777.72-3.006 1.227-3.687 1.522.657-.528 1.368-1.256 2.125-2.182.863-1.056 1.372-1.906 1.53-2.558.085-.36-.21-.966-.884-1.815-.675-.848-.925-1.633-.752-2.355.146-.614.543-1.32 1.194-2.12-.34-.654-.834-1.06-1.486-1.215-1.444-.347-2.278-.05-2.503.89l-.35 1.463c-.25 1.2-1.295 1.58-3.137 1.14-1.41-.338-3.696-1.23-6.864-2.673 3.982-.04 6.118-.675 6.41-1.902-.03.145-.002-.307.097-1.353.122-1.154 1.16-1.976 3.108-2.464.072-1.738-.593-2.777-2.003-3.114-.216-.053-.706.23-1.463.852-.76.62-1.393.87-1.898.748-.867-.205-1.762-1.413-2.684-3.62-.426-1.095-1.087-2.723-1.983-4.885l2.18 1.897c.964.765 1.77 1.225 2.42 1.382.506.12 1.108-.204 1.808-.973.698-.767 1.445-1.057 2.24-.866.11.027.78.415 2.012 1.17.937-.884 1.466-1.578 1.587-2.084.102-.434-.04-.993-.43-1.678-.39-.686-.802-1.08-1.236-1.184-.18-.043-.472-.057-.877-.04-.404.02-.697.006-.878-.037-.65-.154-.78-1.044-.392-2.67.102-.434 1.11-2.81 3.023-7.123-.166.53-.173 1.6-.02 3.202.18 1.952.686 3.026 1.517 3.227.144.033.458-.005.945-.12.485-.11.853-.138 1.105-.077.83.198 1.404.833 1.722 1.9l.463 1.656c.757.183 1.454.064 2.09-.357.635-.422 1.045-1.012 1.226-1.77.19-.794 0-1.48-.567-2.055-.57-.576-.83-.97-.775-1.188.18-.758 1.68-1.755 4.495-2.99 2.26-.985 3.71-1.537 4.35-1.65-2.055 1.723-3.2 3.07-3.432 4.046-.12.506.056 1.12.532 1.847.595.867.91 1.46.95 1.772.16.92-.146 2.046-.925 3.39.81.92 1.47 1.438 1.977 1.56 1.044.25 1.698-.167 1.958-1.25.026-.108.063-.462.112-1.062.046-.6.098-.93.15-.995.268-.47 1.32-.487 3.163-.045 1.156.277 3.48 1.175 6.972 2.7-.848.025-2.117.064-3.81.12-1.55.086-2.388.4-2.52.942-.058.253-.073.708-.04 1.364.035.657.018 1.132-.052 1.42-.12.507-.558.897-1.31 1.176l-2.157.86c.247.897.42 1.436.532 1.615.26.52.692.854 1.307 1 .433.105.92-.18 1.464-.853.542-.672 1.212-.913 2.006-.722.975.232 1.86 1.398 2.657 3.5.442 1.175 1.14 2.966 2.093 5.37zm-11.275-6.02c.552-2.312.184-4.52-1.108-6.623-1.292-2.105-3.094-3.434-5.404-3.987-2.348-.56-4.574-.206-6.672 1.07-2.097 1.27-3.446 3.077-4.044 5.416-.59 2.302-.21 4.503 1.14 6.602 1.35 2.098 3.18 3.425 5.493 3.978 2.454.587 4.697.274 6.724-.94 2.028-1.214 3.318-3.055 3.87-5.518zm-.813-.195c-.527 2.203-1.703 3.85-3.53 4.94-1.827 1.09-3.843 1.372-6.045.845-2.13-.51-3.778-1.687-4.94-3.53-1.164-1.845-1.49-3.83-.98-5.963.503-2.096 1.7-3.71 3.593-4.843 1.896-1.13 3.89-1.445 5.983-.943 2.094.5 3.728 1.694 4.9 3.577 1.17 1.887 1.51 3.858 1.02 5.917z"/></svg>