<svg xmlns="http://www.w3.org/2000/svg" width="100" height="100"><path fill="#CAE0EF" d="M85.35 14.637c9.05 9.05 14.65 21.55 14.65 35.36C100 77.613 77.613 100 50 100c-13.807 0-26.305-5.596-35.354-14.646"/><path fill="#A8C796" d="M14.646 85.354C5.596 76.307 0 63.804 0 49.997 0 22.384 22.387 0 50 0c13.802 0 26.3 5.593 35.35 14.637"/><path fill="#111314" d="M76.723 83.675c-2.693 2.74-6.008 4.11-9.946 4.11-4.423 0-7.93-1.515-10.524-4.542-2.452-2.883-3.678-6.558-3.678-11.028 0-4.804 2.09-10.28 6.272-16.434 3.41-5.045 7.424-9.466 12.037-13.262-.675 3.076-1.01 5.262-1.01 6.56 0 2.98.936 5.886 2.812 8.72 2.306 3.366 4.06 5.865 5.262 7.497 1.873 2.835 2.812 5.6 2.812 8.29 0 3.99-1.348 7.353-4.037 10.09zm-.075-15.388c-.72-1.61-1.56-2.68-2.52-3.208.145.287.215.697.215 1.224 0 1.01-.287 2.454-.864 4.325l-.94 2.883c0 1.68.84 2.523 2.522 2.523 1.778 0 2.67-1.177 2.67-3.532 0-1.2-.362-2.608-1.084-4.217zM51.64 34.285c0 .757-.293 1.437-.88 2.043-.585.604-1.257.905-2.015.905-1.207 0-2.098-.566-2.663-1.7l-2.666-.113c-.568 0-1.685.245-3.346.736-1.777.49-2.798.888-3.064 1.19-.414.455-.755 1.515-1.02 3.178-.228 1.36-.34 2.363-.34 3.007 0 1.02.16 1.768.48 2.24.322.473.985.87 1.985 1.19 1.002.32 1.617.502 1.845.538.15 0 .396-.018.737-.056h.68c.492 0 1.002.077 1.533.227.755.225 1.077.527.965.905-.53-.073-1.456.04-2.778.34l1.586.796c0 .455-.643.68-1.928.68-.342 0-.805-.074-1.39-.225-.587-.154-.975-.23-1.163-.23h-.736c-.038.38-.15.945-.34 1.703-.645-.04-1.4-.417-2.27-1.134-.87-.72-1.418-1.078-1.643-1.078-.228 0-.55.36-.965 1.078-.417.717-.624 1.208-.624 1.474-.49-.266-.905-.757-1.25-1.474-.15-.494-.32-.985-.508-1.477-.38.038-1.077.835-2.1 2.384h-.283c-.076-.113-.36-.906-.852-2.383-1.172-.376-2.268-.565-3.288-.565-.49 0-1.25.112-2.27.34l-1.586-.11c.226-.23.89-.664 1.984-1.307 1.284-.758 2.27-1.136 2.95-1.136.11 0 .263.02.453.057.188.04.34.058.454.058.264 0 .69-.143 1.276-.427.586-.283.927-.538 1.02-.765.097-.23.144-.813.144-1.76 0-2.153-.568-3.76-1.703-4.82-.983-.943-2.608-1.624-4.877-2.042-.604 2.155-2.307 3.235-5.103 3.235-.91 0-1.815-.547-2.723-1.645-.905-1.1-1.36-2.1-1.36-3.007 0-1.4.585-2.55 1.757-3.46-.943-.982-1.417-1.983-1.417-3.005 0-.945.292-1.777.88-2.496.585-.716 1.352-1.134 2.296-1.25-.075-1.206.32-2.04 1.19-2.493-.416-.416-.623-1.152-.623-2.212 0-1.247.414-2.287 1.247-3.12.83-.83 1.872-1.248 3.117-1.248 1.364 0 2.48.474 3.35 1.418 1.097-3.742 3.458-5.614 7.088-5.614 1.89 0 3.554.757 4.99 2.27.53.565.793.87.793.906-.45 0-.224-.086.682-.255.91-.17 1.568-.256 1.986-.256 1.474 0 2.778.548 3.915 1.645.982.984 1.663 2.23 2.042 3.742.263.038.68.15 1.246.34.832.418 1.25 1.135 1.25 2.156 0 .19-.153.55-.455 1.078 2.42 1.362 3.63 3.252 3.63 5.67 0 .682-.265 1.63-.793 2.838.986.568 1.478 1.4 1.478 2.497zM28.273 36.78v-.736c0-.87-.425-1.664-1.276-2.382-.85-.72-1.71-1.077-2.58-1.077-1.06 0-2.042.245-2.95.735 2.005-.11 4.273 1.04 6.806 3.46zm-1.02-7.03c-.567-.646-1.06-1.306-1.475-1.986-1.59.415-2.382.888-2.382 1.416.452-.037 1.115.048 1.983.256.87.21 1.495.314 1.872.314zm3.462-1.76v-2.496c-.91-.15-1.46-.227-1.646-.227v.85l1.645 1.873zm7.37-1.588c-.453-.19-1.304-.567-2.553-1.135v4.877c1.78-1.022 2.628-2.268 2.554-3.742zm3.117 6.692l-1.246-1.53-2.298 1.616c-.775.547-1.445 1.163-2.01 1.844 1.698-.91 3.553-1.55 5.554-1.93z"/></svg>