<svg xmlns="http://www.w3.org/2000/svg" width="100" height="100"><circle fill="#D9D2CB" cx="50" cy="49.998" r="50"/><path fill="#111314" d="M40.965 49.463l-1.746-1.21c-5.12-3.503-8.493-6.33-10.108-8.49-2.066-2.69-3.096-5.83-3.096-9.426 0-6.105 2.557-11.087 7.678-14.95C38.45 11.798 43.974 10 50.262 10c5.922 0 11.18 1.573 15.756 4.713 5.203 3.503 7.812 8.127 7.812 13.876 0 7.003-4.898 12.66-14.682 16.966 11.13 5.388 16.7 12.884 16.7 22.492 0 6.914-2.647 12.39-7.95 16.434C63.146 88.164 57.17 90 49.99 90c-6.734 0-12.525-1.703-17.377-5.12-5.568-3.855-8.348-8.975-8.348-15.348s2.963-11.63 8.89-15.76c1.615-1.075 4.222-2.51 7.81-4.31zm4.572 1.912c-8.08 3.677-12.11 9.466-12.11 17.36 0 5.114 1.634 9.22 4.915 12.315 3.277 3.097 7.475 4.643 12.594 4.643 4.574 0 8.46-1.232 11.646-3.695 3.186-2.464 4.78-5.89 4.78-10.28 0-6.626-4.366-12-13.097-16.122l-8.728-4.22zm9.03-7.973c7.09-3.14 10.642-7.854 10.642-14.14 0-4.31-1.507-7.765-4.51-10.374-3.013-2.603-6.716-3.906-11.114-3.906-3.684 0-6.87.99-9.562 2.964-2.965 2.154-4.443 5.03-4.443 8.62 0 4.4 2.063 7.948 6.196 10.643.805.536 4.396 2.285 10.775 5.25l2.018.942z"/></svg>