<svg xmlns="http://www.w3.org/2000/svg" width="188" height="100"><path fill="#D9D2CB" d="M138 0H50C22.385 0 0 22.385 0 49.998 0 77.613 22.385 100 50 100h88c27.612 0 50-22.387 50-50.002C188 22.385 165.61 0 138 0z"/><path fill="#111314" d="M43.578 13v59.3c0 7.096 2.98 10.64 8.957 10.64h1.56V87H22.542v-4.06h1.98c5.778 0 8.665-3.545 8.665-10.64V33.4c0-7.177-2.494-10.77-7.475-10.77h-3.17v-3.928h1.143c6.162 0 11.74-1.903 16.725-5.703h3.168zM63.125 52.245c0-9.052 1.908-17.402 5.73-25.042C73.584 17.733 80.064 13 88.288 13c8.136 0 14.49 4.03 19.058 12.083 3.818 6.646 5.73 14.372 5.73 23.172 0 9.142-1.91 17.403-5.73 24.795C102.695 82.352 96.218 87 87.912 87c-7.89 0-14.156-3.984-18.81-11.958-3.985-6.81-5.977-14.407-5.977-22.797zm10.46-4.11c0 11.957 1.786 21.26 5.362 27.906 2.488 4.65 5.684 6.976 9.588 6.976 9.385 0 14.08-9.718 14.08-29.152 0-8.553-.748-15.78-2.24-21.677C97.8 22.47 93.44 17.61 87.29 17.61c-9.138 0-13.704 9.387-13.704 28.157v2.367zM124.46 52.245c0-9.052 1.907-17.402 5.728-25.042C134.92 17.733 141.4 13 149.623 13c8.137 0 14.49 4.03 19.06 12.083 3.817 6.646 5.728 14.372 5.728 23.172 0 9.142-1.91 17.403-5.728 24.795C164.03 82.352 157.552 87 149.246 87c-7.89 0-14.156-3.984-18.81-11.958-3.985-6.81-5.977-14.407-5.977-22.797zm10.46-4.11c0 11.957 1.785 21.26 5.36 27.906 2.49 4.65 5.685 6.976 9.59 6.976 9.384 0 14.08-9.718 14.08-29.152 0-8.553-.75-15.78-2.24-21.677-2.577-9.718-6.937-14.578-13.085-14.578-9.14 0-13.705 9.387-13.705 28.157v2.367z"/></svg>