<svg xmlns="http://www.w3.org/2000/svg" width="100" height="100"><circle fill="#F5A477" cx="50" cy="50" r="50"/><path fill="#111314" d="M91.965 66.617C88.23 75.53 80.805 79.984 69.69 79.984c-2.037 0-4.246.254-6.62.762-3.565.764-5.347 1.828-5.347 3.186 0 .424.295.91.89 1.463.593.553 1.105.826 1.528.826-2.122 0-.68.065 4.327.192 5.008.127 8.148.19 9.422.19-7.384 4.327-19.733 6.32-37.044 5.983-5.688-.084-10.566-2.588-14.64-7.51-3.99-4.668-5.983-9.887-5.983-15.658 0-6.11 2.057-11.307 6.176-15.594 4.112-4.283 9.228-6.428 15.337-6.428 1.357 0 3.16.297 5.41.89 2.248.595 3.756.892 4.518.892 3.14 0 7.045-1.293 11.713-3.883 4.666-2.588 6.875-3.883 6.62-3.883-.85 8.913-3.82 14.896-8.913 17.95-3.648 2.123-5.473 4.2-5.473 6.236 0 1.273.764 2.293 2.29 3.057 1.19.594 2.503.89 3.946.89 2.207 0 4.37-1.356 6.494-4.07 2.12-2.718 3.055-5.177 2.8-7.386-.253-2.545-.083-5.602.51-9.164.17-1.02.784-2.27 1.845-3.754 1.06-1.487 2.016-2.4 2.865-2.74 0 .763-.275 2.038-.828 3.82s-.826 3.1-.826 3.946c0 1.867.508 3.31 1.527 4.326 1.525-.592 2.883-2.502 4.074-5.73 1.015-2.458 1.608-4.835 1.78-7.126-3.566-.17-6.982-1.78-10.248-4.838-3.268-3.057-4.9-6.365-4.9-9.928 0-.594.082-1.188.256-1.783.508.764 1.27 1.953 2.29 3.564 1.442 2.122 2.546 3.183 3.31 3.183 1.017 0 1.526-1.06 1.526-3.182 0-2.714-.723-5.175-2.164-7.382-1.613-2.63-3.693-3.947-6.238-3.947-1.19 0-2.97.638-5.344 1.91-2.38 1.272-4.543 1.91-6.492 1.91-.596 0-3.23-.765-7.895-2.292 8.23-1.355 12.35-2.586 12.35-3.69 0-2.886-5.646-4.84-16.93-5.856-1.106-.084-3.142-.254-6.112-.51.338-.424 2.758-.89 7.258-1.4 3.818-.422 6.492-.637 8.018-.637 20.197 0 33.012 9.805 38.443 29.408.934-.773 1.402-2.066 1.402-3.87 0-2.325-.68-5.25-2.038-8.778-.512-1.375-1.318-3.44-2.42-6.193 6.957 8.867 10.44 17.27 10.44 25.2 0 4.177-.98 7.972-2.93 11.38-1.27 2.303-3.65 5.244-7.128 8.826-3.48 3.58-5.857 6.352-7.13 8.312 4.667-1.27 7.724-2.248 9.167-2.928 3.224-1.44 6.15-3.607 8.784-6.492 0 1.106-.466 2.762-1.4 4.967zM36.463 16.592c0 1.525-.85 2.502-2.545 2.926l-3.31.51c-1.19.594-2.93 2.928-5.22 7-.256-1.27-.637-3.053-1.146-5.346-.764.086-2.035.764-3.818 2.037-.764.593-1.996 1.483-3.693 2.67.513-3.054 2.208-6.147 5.095-9.292 3.055-3.477 6.025-5.217 8.91-5.217 3.818 0 5.728 1.573 5.728 4.712zm22.15 11.71c0 1.442-.785 2.653-2.355 3.628-1.57.977-3.12 1.465-4.646 1.465-2.037 0-3.863-1.146-5.473-3.438-1.956-2.8-3.948-4.625-5.985-5.477.424-.422.934-.635 1.53-.635.763 0 2.054.594 3.88 1.78 1.824 1.19 2.99 1.784 3.502 1.784.424 0 1.123-.595 2.1-1.784.975-1.188 2.057-1.78 3.246-1.78 2.8 0 4.2 1.486 4.2 4.455z"/></svg>