<svg xmlns="http://www.w3.org/2000/svg" width="100" height="100"><path fill="#CAE0EF" d="M85.35 14.637c9.05 9.05 14.65 21.55 14.65 35.36C100 77.613 77.613 100 50 100c-13.807 0-26.306-5.596-35.355-14.646"/><path fill="#FCF9E1" d="M14.646 85.354C5.596 76.307 0 63.804 0 49.997 0 22.384 22.386 0 50 0c13.803 0 26.3 5.593 35.35 14.637"/><path fill="#111314" d="M76.722 83.675c-2.693 2.74-6.007 4.11-9.946 4.11-4.423 0-7.93-1.515-10.525-4.542-2.45-2.883-3.675-6.558-3.675-11.028 0-4.804 2.09-10.28 6.27-16.434 3.41-5.045 7.424-9.466 12.038-13.262-.672 3.076-1.01 5.262-1.01 6.56 0 2.98.936 5.886 2.813 8.72 2.305 3.366 4.06 5.865 5.26 7.497 1.875 2.835 2.813 5.6 2.813 8.29 0 3.99-1.348 7.353-4.038 10.09zm-.07-15.388c-.723-1.61-1.563-2.68-2.525-3.208.145.287.216.697.216 1.224 0 1.01-.287 2.454-.864 4.325l-.94 2.883c0 1.68.84 2.523 2.525 2.523 1.776 0 2.667-1.177 2.667-3.532 0-1.2-.36-2.608-1.08-4.217zM54.667 38.264C52.23 36 50.613 34.772 49.82 34.582c-.578-.138-1.136.198-1.673 1.005-.537.808-1.292 1.094-2.268.86-.398-.096-1.176-.435-2.334-1.018-.938.884-1.44 1.47-1.51 1.757-.096.398.088.938.55 1.622.46.683.893 1.07 1.3 1.17.257.06.622.09 1.09.088.468 0 .777.015.926.05.444.105.47.972.08 2.598-.37 1.552-1.303 3.852-2.795 6.892-.058-3.91-.61-5.99-1.655-6.24-.145-.034-.47.004-.972.112-.505.107-.864.138-1.08.086-1.048-.252-1.758-1.433-2.13-3.547-1.723-.145-2.758.505-3.104 1.95-.173.724.024 1.38.59 1.974.563.593.823.98.782 1.16-.233.977-2.02 2.133-5.356 3.473-1.777.72-3.007 1.227-3.688 1.523.66-.528 1.37-1.257 2.126-2.183.862-1.056 1.372-1.906 1.528-2.558.086-.36-.208-.967-.883-1.816-.676-.848-.926-1.633-.753-2.355.146-.615.543-1.32 1.194-2.12-.34-.655-.834-1.06-1.485-1.216-1.443-.346-2.278-.05-2.503.89l-.35 1.463c-.25 1.2-1.295 1.58-3.137 1.14-1.41-.338-3.696-1.23-6.864-2.672 3.982-.04 6.12-.675 6.412-1.903-.033.146-.003-.307.096-1.353.123-1.155 1.16-1.977 3.108-2.465.073-1.738-.593-2.776-2.003-3.114-.217-.05-.707.233-1.464.854-.76.62-1.392.87-1.898.748-.867-.205-1.762-1.413-2.684-3.62-.426-1.095-1.087-2.723-1.982-4.885l2.18 1.897c.964.765 1.77 1.225 2.42 1.382.506.12 1.108-.204 1.808-.973.698-.768 1.446-1.058 2.24-.866.11.026.78.414 2.012 1.17.937-.885 1.466-1.58 1.588-2.085.102-.434-.04-.992-.43-1.678-.39-.685-.803-1.078-1.236-1.184-.18-.043-.472-.057-.877-.038-.406.018-.7.004-.88-.04-.65-.154-.78-1.044-.39-2.67.1-.434 1.11-2.808 3.02-7.123-.165.53-.172 1.6-.02 3.2.18 1.954.687 3.028 1.518 3.23.144.033.46-.006.945-.12.485-.112.853-.14 1.105-.078.83.198 1.404.833 1.722 1.9l.463 1.657c.757.18 1.455.062 2.09-.36.635-.42 1.045-1.01 1.226-1.768.19-.794 0-1.48-.568-2.055-.57-.576-.83-.97-.775-1.188.18-.76 1.68-1.756 4.495-2.99 2.26-.986 3.71-1.538 4.35-1.652-2.055 1.724-3.2 3.07-3.432 4.047-.12.506.055 1.122.53 1.847.596.867.913 1.46.95 1.772.163.92-.145 2.047-.923 3.39.81.92 1.47 1.438 1.977 1.56 1.044.25 1.7-.167 1.958-1.25.027-.108.063-.462.112-1.06.046-.6.098-.932.15-.997.268-.47 1.32-.487 3.163-.045 1.156.277 3.48 1.175 6.972 2.7-.846.025-2.116.064-3.81.12-1.548.086-2.387.4-2.518.942-.06.254-.074.708-.04 1.364.034.657.016 1.133-.053 1.42-.12.507-.558.897-1.31 1.176l-2.157.86c.246.897.42 1.437.53 1.615.26.52.694.853 1.308 1 .434.105.922-.18 1.465-.853.542-.67 1.212-.912 2.006-.722.975.232 1.86 1.398 2.658 3.5.442 1.173 1.14 2.964 2.093 5.37zm-11.275-6.02c.552-2.313.183-4.52-1.108-6.624-1.292-2.104-3.094-3.433-5.404-3.986-2.348-.56-4.573-.206-6.67 1.07-2.1 1.27-3.45 3.077-4.046 5.416-.59 2.303-.21 4.505 1.14 6.603 1.35 2.1 3.18 3.426 5.494 3.978 2.455.588 4.698.276 6.725-.94 2.025-1.213 3.315-3.054 3.87-5.517zm-.814-.195c-.527 2.202-1.703 3.85-3.53 4.938-1.826 1.09-3.843 1.373-6.044.846-2.13-.51-3.777-1.687-4.94-3.53-1.163-1.845-1.49-3.83-.98-5.963.504-2.094 1.7-3.707 3.593-4.84 1.896-1.13 3.89-1.446 5.984-.944 2.095.5 3.728 1.694 4.9 3.578 1.17 1.885 1.51 3.855 1.018 5.915z"/></svg>