<svg xmlns="http://www.w3.org/2000/svg" width="100" height="100"><path fill="#A8C796" d="M85.349 14.637c9.052 9.05 14.651 21.551 14.651 35.36 0 27.616-22.387 50.003-50 50.003-13.807 0-26.305-5.596-35.354-14.646"/><path fill="#F5A477" d="M14.646 85.354c-9.05-9.047-14.646-21.549-14.646-35.357 0-27.613 22.387-49.997 50-49.997 13.802 0 26.301 5.593 35.349 14.637"/><path fill="#111314" d="M51.937 38.077c-1.718 4.099-5.13 6.146-10.24 6.146-.937 0-1.952.115-3.044.349-1.639.353-2.457.841-2.457 1.465 0 .195.136.418.409.674.272.253.508.38.703.38-.977 0-.313.03 1.987.086 2.302.06 3.746.089 4.332.089-3.395 1.988-9.07 2.906-17.029 2.749-2.614-.037-4.857-1.188-6.729-3.45-1.834-2.147-2.75-4.546-2.75-7.197 0-2.81.945-5.199 2.839-7.17 1.89-1.968 4.242-2.954 7.051-2.954.623 0 1.453.137 2.486.409 1.034.273 1.727.409 2.077.409 1.444 0 3.238-.596 5.384-1.785 2.146-1.19 3.161-1.785 3.044-1.785-.391 4.096-1.756 6.848-4.097 8.251-1.679.977-2.516 1.933-2.516 2.867 0 .586.349 1.054 1.052 1.406.546.271 1.151.408 1.815.408 1.014 0 2.008-.623 2.984-1.872.974-1.247 1.403-2.379 1.286-3.395-.115-1.17-.037-2.576.235-4.212.077-.47.361-1.045.848-1.726.488-.684.928-1.104 1.317-1.261 0 .353-.128.938-.381 1.755-.254.819-.38 1.427-.38 1.815 0 .859.233 1.522.702 1.99.702-.272 1.325-1.151 1.872-2.634.468-1.131.74-2.224.82-3.276-1.64-.076-3.211-.819-4.712-2.225-1.502-1.404-2.252-2.926-2.252-4.563 0-.272.037-.546.117-.819.232.352.583.899 1.054 1.639.661.974 1.17 1.462 1.521 1.462.468 0 .701-.488.701-1.462 0-1.248-.331-2.379-.994-3.394-.742-1.211-1.698-1.814-2.867-1.814-.548 0-1.366.292-2.458.878-1.093.584-2.088.877-2.982.877-.274 0-1.484-.353-3.63-1.054 3.783-.624 5.676-1.189 5.676-1.698 0-1.326-2.594-2.223-7.783-2.69-.507-.038-1.442-.116-2.808-.235.155-.193 1.268-.408 3.336-.644 1.755-.192 2.983-.293 3.685-.293 9.285 0 15.175 4.507 17.673 13.521.431-.358.646-.95.646-1.78 0-1.069-.312-2.413-.937-4.035-.235-.633-.607-1.583-1.113-2.847 3.197 4.075 4.8 7.937 4.8 11.583 0 1.92-.451 3.666-1.348 5.231-.583 1.06-1.678 2.412-3.276 4.059-1.599 1.646-2.691 2.92-3.277 3.822 2.146-.586 3.552-1.036 4.215-1.347 1.48-.664 2.827-1.66 4.036-2.985-.001.51-.216 1.27-.643 2.282zm-25.515-22.997c0 .702-.391 1.151-1.17 1.347l-1.521.234c-.548.271-1.347 1.346-2.398 3.218-.118-.584-.293-1.404-.528-2.458-.351.039-.936.353-1.755.936-.351.273-.917.684-1.698 1.229.235-1.404 1.017-2.826 2.342-4.271 1.404-1.599 2.771-2.397 4.096-2.397 1.755-.001 2.632.72 2.632 2.162zm10.182 5.385c0 .661-.36 1.22-1.083 1.668-.722.448-1.434.673-2.135.673-.938 0-1.777-.525-2.517-1.582-.898-1.285-1.814-2.124-2.751-2.515.193-.195.429-.293.704-.293.35 0 .944.271 1.783.819.837.548 1.374.819 1.609.819.195 0 .517-.271.965-.819s.945-.819 1.493-.819c1.289 0 1.932.684 1.932 2.049z"/><path fill="#111314" d="M89.519 67.618c0 .758-.293 1.437-.879 2.043-.586.604-1.258.906-2.016.906-1.207 0-2.098-.567-2.663-1.702l-2.667-.112c-.567 0-1.684.246-3.345.737-1.777.491-2.798.888-3.064 1.19-.414.454-.755 1.514-1.02 3.177-.228 1.361-.339 2.363-.339 3.007 0 1.019.16 1.767.48 2.24.321.472.984.868 1.984 1.189 1 .319 1.616.502 1.844.539.151 0 .396-.018.737-.057h.681c.491 0 1.001.077 1.532.227.755.227 1.077.528.965.907-.531-.074-1.456.038-2.778.34l1.586.795c0 .454-.643.679-1.928.679-.342 0-.806-.073-1.39-.225-.588-.154-.976-.228-1.163-.228h-.736c-.038.379-.15.943-.34 1.701-.646-.038-1.399-.417-2.27-1.133-.87-.72-1.418-1.079-1.643-1.079-.228 0-.551.359-.965 1.079-.417.716-.624 1.207-.624 1.474-.491-.267-.906-.758-1.249-1.474-.151-.495-.321-.986-.509-1.478-.379.039-1.077.835-2.099 2.384h-.284c-.077-.113-.36-.906-.852-2.384-1.172-.375-2.268-.564-3.288-.564-.491 0-1.249.112-2.27.34l-1.587-.112c.226-.228.888-.663 1.984-1.305 1.284-.758 2.269-1.137 2.949-1.137.112 0 .264.021.454.058.188.04.341.058.454.058.262 0 .689-.142 1.275-.426s.927-.539 1.019-.766c.098-.229.145-.813.145-1.759 0-2.154-.568-3.762-1.703-4.82-.983-.944-2.608-1.625-4.877-2.042-.604 2.154-2.307 3.234-5.103 3.234-.909 0-1.816-.548-2.723-1.646s-1.361-2.099-1.361-3.007c0-1.399.586-2.551 1.758-3.459-.944-.982-1.418-1.984-1.418-3.006 0-.945.292-1.776.879-2.496.586-.716 1.353-1.133 2.297-1.248-.074-1.208.321-2.042 1.19-2.495-.415-.414-.622-1.151-.622-2.211 0-1.247.414-2.287 1.247-3.119.83-.831 1.871-1.248 3.117-1.248 1.363 0 2.479.474 3.348 1.417 1.098-3.742 3.459-5.613 7.089-5.613 1.889 0 3.554.756 4.99 2.27.53.565.793.868.793.905-.452 0-.225-.086.681-.254.909-.171 1.568-.257 1.986-.257 1.474 0 2.778.55 3.915 1.646.982.984 1.663 2.23 2.042 3.742.263.039.679.151 1.245.341.832.417 1.249 1.135 1.249 2.155 0 .189-.152.549-.454 1.079 2.419 1.361 3.63 3.251 3.63 5.67 0 .681-.266 1.627-.793 2.836.985.569 1.477 1.4 1.477 2.497zm-23.368 2.496v-.737c0-.869-.424-1.664-1.275-2.382-.851-.719-1.71-1.077-2.58-1.077-1.06 0-2.042.246-2.949.735 2.004-.111 4.271 1.04 6.804 3.461zm-1.02-7.031c-.566-.646-1.058-1.305-1.474-1.985-1.589.414-2.383.888-2.383 1.416.453-.037 1.116.047 1.984.256.87.209 1.496.313 1.873.313zm3.462-1.76v-2.496c-.909-.15-1.459-.226-1.645-.226v.851l1.645 1.871zm7.372-1.587c-.454-.189-1.305-.568-2.554-1.135v4.877c1.778-1.022 2.628-2.268 2.554-3.742zm3.116 6.691l-1.246-1.529c-.755.529-1.521 1.067-2.298 1.615-.775.548-1.445 1.163-2.011 1.844 1.699-.909 3.554-1.551 5.555-1.93z"/></svg>