<svg xmlns="http://www.w3.org/2000/svg" width="100" height="100"><circle fill="#D9D2CB" cx="50" cy="49.998" r="50"/><path fill="#111314" d="M53.494 90h-11.642v-1.238c0-7.396 2.328-16.659 6.98-27.808 7.035-16.799 13.52-29.673 19.453-38.624l.822-1.232h-27.255c-3.93 0-6.92.819-8.975 2.463-2.059 1.645-3.582 4.387-4.586 8.222h-4.52l4.926-21.783h2.881c1.734.914 4.742 1.371 9.041 1.371h35.609v6.165c-1.275 1.829-2.918 4.75-4.926 8.768-3.838 7.485-7.352 16.208-10.553 26.163-4.745 14.703-7.165 27.21-7.255 37.533z"/></svg>