<svg xmlns="http://www.w3.org/2000/svg" width="100" height="100"><circle fill="#CAE0EF" cx="50" cy="50" r="50"/><path fill="#111314" d="M67.488 83.72C62.7 88.59 56.804 91.025 49.8 91.025c-7.86 0-14.098-2.69-18.71-8.074-4.36-5.127-6.538-11.662-6.538-19.607 0-8.543 3.717-18.285 11.15-29.223 6.064-8.97 13.2-16.83 21.402-23.58-1.197 5.47-1.793 9.355-1.793 11.662 0 5.3 1.665 10.467 4.997 15.508 4.102 5.98 7.22 10.426 9.357 13.328 3.332 5.043 4.998 9.955 4.998 14.738.002 7.093-2.39 13.074-7.174 17.94zm-.13-27.363c-1.28-2.86-2.776-4.762-4.485-5.703.256.514.385 1.24.385 2.18 0 1.795-.512 4.357-1.54 7.69l-1.663 5.126c0 2.99 1.492 4.486 4.484 4.486 3.16 0 4.74-2.094 4.74-6.28 0-2.135-.64-4.633-1.92-7.5z"/></svg>