<svg xmlns="http://www.w3.org/2000/svg" width="100" height="100"><circle fill="#D9D2CB" cx="50" cy="49.998" r="50"/><path fill="#111314" d="M63.402 55.524c-5.922 5.567-11.898 8.353-17.91 8.353-6.555 0-11.81-2.604-15.758-7.814-3.684-4.758-5.523-10.507-5.523-17.24 0-7.273 2.153-13.778 6.462-19.527C35.344 13.096 41.227 10 48.32 10c8.62 0 15.488 3.728 20.605 11.18 4.582 6.555 6.867 14.32 6.867 23.303 0 12.746-4.223 23.498-12.656 32.257-8.44 8.75-18.99 13.173-31.652 13.26v-4.175c3.86-.176 6.953-.626 9.297-1.344 12.923-3.95 20.47-13.6 22.622-28.956zm.813-8.082c.086-1.706.13-3.322.13-4.846 0-6.285-1.075-12.034-3.23-17.24-2.876-6.916-7-10.374-12.388-10.374-4.676 0-8.125 2.385-10.375 7.14-1.797 3.684-2.69 8.127-2.69 13.335 0 5.566.85 10.324 2.558 14.275 2.332 5.387 5.926 8.083 10.777 8.083 5.92 0 10.99-3.458 15.218-10.373z"/></svg>