<svg xmlns="http://www.w3.org/2000/svg" width="100" height="100"><circle fill="#D9D2CB" cx="50" cy="49.998" r="50"/><path fill="#111314" d="M36.308 19.47v49.054c0 5.79 2.427 8.684 7.276 8.684h1.154v3.322h-26.06v-3.322h1.662c4.938 0 7.407-2.895 7.407-8.684V36.332c0-5.88-2.09-8.816-6.26-8.816h-2.556v-3.32h1.024c5.02 0 9.58-1.574 13.665-4.725h2.688zM79.355 63.16v5.11c0 5.706 1.996 8.56 6.003 8.56h1.658v3.316H62.618v-3.316h1.918c4.003 0 6.004-2.812 6.004-8.43v-5.24H46.012v-5.11l25.932-37.813h7.412v38.578h.64c2.47 0 4.298-1.953 5.488-5.873h3.066l-1.533 10.22h-7.662zm-6.773-5.11V25.86L50.866 58.05h21.716z"/></svg>