<svg xmlns="http://www.w3.org/2000/svg" width="50" height="100"><path fill="#F5A477" d="M0 0v100c27.613 0 50-22.387 50-50C50 22.385 27.613 0 0 0z"/><path fill="#111314" d="M34.688 68.145c-1.445.68-4.5 1.656-9.168 2.928 1.273-1.96 3.648-4.732 7.13-8.312 3.476-3.58 5.858-6.522 7.128-8.825 1.95-3.408 2.93-7.203 2.93-11.38 0-7.93-3.484-16.333-10.44-25.2 1.1 2.752 1.91 4.818 2.42 6.193 1.356 3.527 2.036 6.453 2.036 8.777 0 1.805-.47 3.098-1.402 3.87C30.188 17.66 18.442 7.896.105 6.888v4.578c3.016.994 4.54 2.232 4.54 3.725 0 .668-1.532 1.383-4.54 2.143v3.832l.086.01c1.95 0 4.114-.64 6.493-1.91 2.37-1.273 4.152-1.91 5.344-1.91 2.543 0 4.625 1.316 6.238 3.947 1.44 2.207 2.164 4.668 2.164 7.383 0 2.12-.513 3.182-1.528 3.182-.766 0-1.867-1.06-3.312-3.182-1.02-1.61-1.78-2.8-2.29-3.564-.17.597-.253 1.19-.253 1.784 0 3.562 1.633 6.87 4.898 9.928s6.684 4.668 10.25 4.838c-.172 2.29-.766 4.668-1.78 7.127-1.192 3.227-2.552 5.137-4.075 5.73-1.02-1.02-1.527-2.46-1.527-4.327 0-.848.273-2.166.824-3.947.555-1.78.828-3.057.828-3.818-.848.34-1.805 1.252-2.863 2.738-1.062 1.484-1.676 2.734-1.844 3.754-.594 3.562-.766 6.62-.512 9.164.254 2.21-.68 4.67-2.8 7.386-2.122 2.715-4.286 4.072-6.493 4.072-1.445 0-2.758-.297-3.945-.89-1.527-.765-2.293-1.784-2.293-3.058 0-2.035 1.824-4.113 5.473-6.236 5.094-3.055 8.066-9.037 8.914-17.95.254 0-1.953 1.296-6.62 3.884-3.575 1.984-6.696 3.2-9.376 3.664v43.37c10.566-.687 18.54-2.59 23.887-5.726-1.273 0-4.414-.064-9.422-.19-5.003-.128-6.448-.192-4.323-.192-.426 0-.938-.273-1.527-.826-.598-.553-.89-1.04-.89-1.463 0-1.357 1.78-2.422 5.343-3.186 2.375-.51 4.586-.763 6.62-.763 11.118 0 18.54-4.455 22.278-13.367.935-2.205 1.4-3.86 1.4-4.965-2.634 2.882-5.56 5.048-8.782 6.49zM6.363 31.93c1.57-.975 2.355-2.186 2.355-3.63 0-2.968-1.402-4.454-4.203-4.454-1.188 0-2.27.594-3.246 1.78-.45.548-.833.954-1.165 1.25v6.247c.523.17 1.06.27 1.61.27 1.527.002 3.078-.487 4.648-1.463z"/></svg>