<svg xmlns="http://www.w3.org/2000/svg" width="100" height="100"><path fill="#D9D2CB" d="M100 49.998C100 77.613 77.613 100 49.998 100 22.385 100 0 77.613 0 49.998 0 22.385 22.385 0 49.998 0 77.613 0 100 22.385 100 49.998z"/><path fill="#111314" d="M34.67 18.13v50.84c0 6.044 2.516 9.07 7.537 9.07h1.277v3.444H16.406V78.04h1.787c5.11 0 7.666-3.026 7.666-9.07V35.624c0-6.13-2.173-9.195-6.52-9.195h-2.68v-3.45h1.023c5.28 0 10.047-1.617 14.305-4.852h2.682zM52.555 19.4h23.12c2.985 0 4.772-.336 5.37-1.02h3.322L82.45 27.07H54.22l-2.683 12.516c3.998-1.617 7.578-2.428 10.73-2.428 6.132 0 11.304 2.05 15.52 6.135 4.214 4.084 6.32 9.193 6.32 15.328 0 7.153-2.724 12.9-8.17 17.247-5.116 4-11.292 6.004-18.526 6.004-4.257 0-8.43-.64-12.515-1.917l1.273-3.19c3.404.933 6.43 1.4 9.07 1.4 5.28 0 9.902-1.74 13.86-5.233 3.962-3.492 5.937-7.84 5.937-13.03 0-4.513-1.465-8.22-4.402-11.114-2.94-2.895-6.62-4.344-11.05-4.344-4.173 0-8.046 1.45-11.626 4.344l-2.168-.383 6.765-29z"/></svg>