<svg xmlns="http://www.w3.org/2000/svg" width="100" height="100"><path fill="#F5A477" d="M85.349 14.637c9.052 9.05 14.651 21.551 14.651 35.36 0 27.616-22.387 50.003-50 50.003-13.807 0-26.305-5.596-35.354-14.646"/><path fill="#D9D2CB" d="M14.646 85.354c-9.05-9.047-14.646-21.549-14.646-35.357 0-27.613 22.387-49.997 50-49.997 13.802 0 26.301 5.593 35.349 14.637"/><path fill="#111314" d="M88.3 74.44c-1.718 4.098-5.13 6.144-10.24 6.144-.937 0-1.952.117-3.044.353-1.639.349-2.458.839-2.458 1.463 0 .194.136.419.41.674.272.254.508.38.703.38-.977 0-.314.028 1.987.087 2.303.059 3.747.089 4.333.089-3.394 1.987-9.07 2.903-17.029 2.75-2.614-.039-4.857-1.19-6.729-3.454-1.835-2.146-2.751-4.542-2.751-7.197 0-2.808.946-5.197 2.839-7.168 1.89-1.97 4.242-2.955 7.051-2.955.623 0 1.453.136 2.486.409 1.034.274 1.727.41 2.077.41 1.444 0 3.239-.595 5.385-1.786 2.146-1.188 3.16-1.784 3.043-1.784-.391 4.098-1.756 6.847-4.097 8.252-1.678.976-2.516 1.93-2.516 2.867 0 .583.35 1.054 1.052 1.404.546.274 1.151.41 1.815.41 1.014 0 2.008-.624 2.984-1.873.974-1.249 1.403-2.379 1.286-3.395-.116-1.17-.037-2.574.235-4.213.077-.469.361-1.043.848-1.727.488-.684.928-1.101 1.317-1.258 0 .35-.127.936-.38 1.755-.254.82-.38 1.427-.38 1.814 0 .858.234 1.521.703 1.99.701-.273 1.324-1.152 1.872-2.634.468-1.131.74-2.224.82-3.277-1.64-.077-3.211-.817-4.711-2.223-1.501-1.405-2.252-2.927-2.252-4.563 0-.274.037-.547.117-.821.232.352.583.898 1.053 1.639.662.977 1.17 1.462 1.521 1.462.468 0 .702-.485.702-1.462 0-1.248-.332-2.38-.995-3.394-.743-1.21-1.699-1.813-2.867-1.813-.548 0-1.366.291-2.458.877-1.093.583-2.088.876-2.983.876-.273 0-1.484-.351-3.629-1.053 3.783-.622 5.676-1.188 5.676-1.696 0-1.325-2.594-2.224-7.783-2.692-.508-.037-1.443-.116-2.809-.234.155-.193 1.268-.408 3.336-.644 1.755-.193 2.983-.291 3.685-.291 9.285 0 15.175 4.507 17.673 13.52.431-.357.645-.952.645-1.78 0-1.07-.312-2.415-.937-4.036-.235-.632-.607-1.581-1.113-2.846 3.198 4.075 4.8 7.938 4.8 11.584 0 1.921-.451 3.664-1.348 5.232-.583 1.056-1.678 2.408-3.276 4.057-1.6 1.646-2.691 2.92-3.277 3.82 2.146-.583 3.551-1.034 4.214-1.347 1.481-.662 2.828-1.657 4.037-2.982 0 .505-.215 1.267-.643 2.28zm-25.514-22.996c0 .701-.391 1.148-1.17 1.345l-1.521.233c-.547.272-1.347 1.347-2.398 3.219-.119-.585-.293-1.402-.528-2.458-.351.04-.935.351-1.755.937-.351.272-.917.684-1.699 1.229.235-1.404 1.017-2.826 2.342-4.271 1.404-1.601 2.77-2.399 4.096-2.399 1.755-.001 2.633.721 2.633 2.165zm10.182 5.383c0 .663-.361 1.219-1.083 1.667-.722.449-1.434.674-2.135.674-.938 0-1.777-.527-2.517-1.58-.898-1.287-1.814-2.125-2.75-2.518.194-.193.429-.293.704-.293.349 0 .944.274 1.783.818.837.549 1.375.82 1.61.82.195 0 .516-.271.964-.82.448-.544.946-.818 1.493-.818 1.288 0 1.931.686 1.931 2.05z"/><path fill="#111314" d="M43.646 41.593l-2.866 9.674h-23.821v-2.068c1.157-1.289 3.692-3.889 7.607-7.804 2.357-2.358 4.692-4.851 7.005-7.476 1.157-1.287 2.048-2.402 2.667-3.335 1.379-2 2.07-4.045 2.07-6.138 0-2.045-.633-3.847-1.901-5.403-1.267-1.558-2.903-2.338-4.905-2.338-4.313 0-7.694 2.915-10.14 8.742l-2.137-.801c2.891-8.184 7.448-12.276 13.678-12.276 3.069 0 5.682 1.044 7.839 3.135 2.159 2.091 3.236 4.67 3.236 7.74 0 3.915-2.245 7.74-6.738 11.477l-4.668 3.867c-2.981 2.492-5.453 4.827-7.406 7.006-.136.135-.402.447-.802.936h12.41c1.912 0 3.359-.377 4.335-1.135.845-.667 1.67-1.936 2.47-3.803h2.067z"/></svg>