<svg xmlns="http://www.w3.org/2000/svg" width="100" height="100"><circle fill="#CBBEB5" cx="50" cy="49.998" r="50"/><path fill="#111314" d="M90.695 48.62c0 5.517-2.008 9.28-6.02 11.286-1.172.586-4.85 1.38-11.037 2.383-4.012.67-6.018 2.216-6.018 4.638v10.158c0 .422.125 1.715.375 3.89l.377 4.013c0 1.253-.293 3.304-.88 6.144-1.587.334-3.427.71-5.517 1.13-.67-2.51-1.004-4.222-1.004-5.144 0-.416.106-1.045.313-1.88.207-.835.316-1.462.316-1.884 0-.58-.52-2.213-1.56-4.887h-1.945c-.258.417-.344.96-.26 1.628.334 1.422.46 2.633.377 3.637-1.422 1.004-3.387 2.34-5.895 4.012-.586-.166-.793-.25-.63-.25v-8.904c-.163-.416-.583-.582-1.253-.502H48.93l-1.5 11.787c-1.174.084-2.592.084-4.264 0-.588-2.758-1.63-6.852-3.135-12.29h-1.003c-.922 2.93-1.422 4.52-1.506 4.77 0 .333.105.98.315 1.942.207.96.312 1.608.312 1.942 0 .25-.084.877-.25 1.88l-.377 3.01c-.168.167-.377.25-.627.25-2.508 0-4.182-.626-5.016-1.878-.836-1.256-1.172-3.012-1.004-5.27l1.004-15.047c0-.252.082-.586.25-1.004.164-.418.25-.71.25-.877 0-.67-.71-2.008-2.13-4.014-.25-.082-1.55-.377-3.888-.88-1.425-.333-4.226-.917-8.403-1.755-5.77-1.084-8.654-5.725-8.654-13.92 0-12.207 5.018-22.365 15.05-30.475.415 2.258 1.128 5.266 2.13 9.03.754.17 2.385.544 4.89 1.128.505.168 3.054 1.088 7.653 2.76-2.344-1.422-5.393-3.72-9.156-6.898-1.422-1.672-2.133-4.47-2.133-8.4 0-.92 1.59-2.008 4.768-3.264 2.84-1.17 4.975-1.836 6.396-2.006 4.515-.582 7.985-.88 10.41-.88 10.45 0 18.892 2.68 25.33 8.03-2.09 2.426-5.685 5.014-10.784 7.773 2.008.084 4.934-.707 8.78-2.383 3.843-1.67 5.474-2.508 4.89-2.508.668 0 2.008 1.34 4.014 4.014 1.504 2.006 2.715 3.807 3.637 5.39 2.674 4.77 4.47 9.91 5.393 15.427 0 1.926.04 3.305.125 4.14v1.004zm-48.03 2.257c0-3.594-1.57-7.002-4.704-10.223-3.136-3.22-6.5-4.826-10.095-4.826-3.178 0-5.977 1.348-8.402 4.04-2.426 2.692-3.637 5.68-3.637 8.962 0 2.86 1.38 4.713 4.14 5.553 1.755.506 4.218.8 7.397.883h6.898c5.6.084 8.404-1.38 8.404-4.39zM56.33 66.43v-3.89c-.584-1.085-1.17-2.214-1.754-3.386-.502-1.674-1.422-4.014-2.76-7.025l-1.38 14.673c0 1.172-.25 1.756-.753 1.756-.334 0-.584-.083-.752-.25-.586-8.862-.88-12.708-.88-11.54v-4.387c-.167-.254-.374-.38-.624-.38-2.845 2.93-4.265 7.653-4.265 14.173 0 3.596.33 5.81 1.002 6.648.67-.166 1.422-.46 2.258-.877.334-.168 1.295-.252 2.887-.252 1.584 0 3.51.502 5.766 1.504.836 0 1.254-2.257 1.254-6.77zm28.344-17.475c0-3.367-1.254-6.375-3.762-9.025-2.51-2.648-5.395-3.975-8.652-3.975-3.512 0-6.795 1.607-9.846 4.826-3.053 3.22-4.578 6.585-4.578 10.097 0 2.928 1.42 4.39 4.264 4.39h14.422c5.433-.083 8.152-2.187 8.152-6.312z"/></svg>