<svg xmlns="http://www.w3.org/2000/svg" width="100" height="100"><circle fill="#D9D2CB" cx="50" cy="49.998" r="50"/><path fill="#111314" d="M37.162 18.574V68.78c0 5.96 2.51 8.938 7.537 8.938h1.276v3.45H19.152v-3.45h1.787c5.026 0 7.536-2.978 7.536-8.94V35.82c0-6.045-2.13-9.07-6.39-9.07h-2.68v-3.446h1.022c5.193 0 9.918-1.575 14.18-4.73h2.554zm40.75 35.77c-4.684 4.43-9.365 6.644-14.05 6.644-5.108 0-9.24-2.09-12.392-6.263-2.81-3.66-4.215-8.13-4.215-13.41 0-5.708 1.658-10.817 4.98-15.33 3.746-4.853 8.39-7.28 13.924-7.28 6.726 0 12.048 2.895 15.966 8.686 3.66 5.198 5.494 11.285 5.494 18.266 0 10.053-3.3 18.504-9.9 25.36-6.6 6.854-14.88 10.326-24.845 10.41v-3.322c3.066-.17 5.494-.515 7.28-1.023 10.138-3.067 16.052-10.645 17.757-22.735zm.64-6.263c.083-1.355.13-2.634.13-3.83 0-4.937-.852-9.45-2.557-13.54-2.3-5.363-5.535-8.046-9.71-8.046-3.66 0-6.347 1.83-8.046 5.494-1.452 2.98-2.175 6.472-2.175 10.474 0 4.34.682 8.093 2.043 11.237 1.79 4.173 4.602 6.263 8.432 6.263 4.6 0 8.56-2.682 11.883-8.052z"/></svg>