<svg xmlns="http://www.w3.org/2000/svg" width="100" height="100"><circle fill="#D9D2CB" cx="50" cy="49.998" r="50"/><path fill="#111314" d="M63.402 55.524c-5.922 5.567-11.898 8.353-17.91 8.353-6.555 0-11.809-2.604-15.758-7.814-3.684-4.758-5.523-10.507-5.523-17.241 0-7.272 2.152-13.777 6.461-19.526 4.672-6.199 10.555-9.296 17.648-9.296 8.621 0 15.488 3.728 20.605 11.181 4.582 6.554 6.867 14.319 6.867 23.302 0 12.746-4.223 23.498-12.656 32.257-8.441 8.751-18.991 13.173-31.652 13.26v-4.175c3.859-.176 6.953-.626 9.297-1.344 12.922-3.95 20.469-13.6 22.621-28.957zm.813-8.082c.086-1.706.129-3.322.129-4.846 0-6.285-1.074-12.034-3.23-17.24-2.875-6.916-7-10.374-12.387-10.374-4.676 0-8.125 2.385-10.375 7.141-1.797 3.683-2.691 8.126-2.691 13.334 0 5.566.852 10.324 2.559 14.275 2.332 5.387 5.926 8.083 10.777 8.083 5.921 0 10.991-3.458 15.218-10.373z"/></svg>