<svg xmlns="http://www.w3.org/2000/svg" width="100" height="100"><circle fill="#D7D1C9" cx="50.001" cy="50.139" r="50"/><path fill="#111314" d="M49.39 94.533c-3.242 3.24-8.498 3.24-11.74 0L5.604 62.49c-3.24-3.24-3.24-8.5 0-11.74L50.612 5.74c3.243-3.24 8.5-3.24 11.74 0l32.044 32.044c3.24 3.24 3.24 8.497 0 11.74L49.39 94.532z"/><path fill="#fff" d="M84.266 58.01H48.26l13.184-9.383C56.548 44.74 50.88 42.8 44.46 42.8c-3.21 0-5.412.61-6.588 1.834-1.186 1.228-1.776 3.445-1.776 6.655 0 8.872 4.562 18.34 13.688 28.395L39.394 90.21c-12.09-14.706-18.128-27.847-18.128-39.428 0-6.926 2.084-12.445 6.27-16.544 4.18-4.1 9.746-6.148 16.666-6.148 8.453 0 17.665 3.214 27.643 9.634l7.726-13.18 4.696 33.467z"/></svg>