<svg xmlns="http://www.w3.org/2000/svg" width="120" height="100"><path fill-rule="evenodd" clip-rule="evenodd" d="M76.142 0c-36.768 1.68 4.253 32.995-16.484 49.5l-.005.004-.007-.01-.293.13C44.828 55.5 28.657 31.908 28.187 56.7c7.67-11.506 11.167-.275 23.775-.977-6.123 8.09-3.12 21.664-13.33 23.872-18.65 4.033-32.297-18.638-31.16-32.868C9.997 15.127 34.762.76 59.352 2.24 26.803-4.28-.79 22.545.02 50.375.945 82.286 17.875 97.902 43.858 100c36.768-1.678-4.253-32.996 16.484-49.5l.005-.004.007.01.294-.13C75.17 44.5 91.344 68.092 91.813 43.3c-7.67 11.506-11.167.275-23.775.977 6.123-8.09 3.123-21.663 13.33-23.87 18.652-4.034 32.297 18.636 31.16 32.867-2.523 31.602-27.29 45.97-51.88 44.487 32.55 6.52 60.143-20.307 59.334-48.136C119.056 17.714 102.125 2.1 76.142 0z"/></svg>