<svg xmlns="http://www.w3.org/2000/svg" width="100" height="100"><circle fill="#D9D2CB" cx="50" cy="49.998" r="50"/><path fill="#111314" d="M53.244 63.266l-4.47 14.945H11.98v-3.067c1.79-2.04 5.75-6.086 11.883-12.13 3.576-3.66 7.152-7.497 10.73-11.5 1.87-2.042 3.237-3.788 4.09-5.24C40.892 43.208 42 40.017 42 36.696c0-3.066-.998-5.812-2.998-8.238-2.002-2.428-4.54-3.64-7.6-3.64-6.643 0-11.84 4.513-15.588 13.542l-3.447-1.28C16.88 24.39 23.95 18.047 33.57 18.047c4.77 0 8.836 1.615 12.2 4.854 3.366 3.24 5.046 7.24 5.046 12.007 0 6.05-3.535 11.965-10.604 17.756l-7.152 6.004c-4.6 3.92-8.39 7.537-11.367 10.857-.256.172-.682.682-1.28 1.535H39.58c2.98 0 5.234-.642 6.768-1.92 1.28-1.02 2.557-2.98 3.83-5.874h3.068zm-.51-13.414c0-7.408 1.533-14.264 4.6-20.562 4.002-7.834 9.408-11.754 16.223-11.754 6.555 0 11.793 3.363 15.713 10.09 3.06 5.453 4.594 11.752 4.594 18.904 0 7.494-1.533 14.31-4.594 20.443-4.008 7.66-9.373 11.492-16.098 11.492-6.47 0-11.67-3.275-15.584-9.836-3.238-5.536-4.854-11.794-4.854-18.778zm8.686-3.448c0 6.39.68 12.096 2.043 17.115 2.04 7.84 5.45 11.753 10.22 11.753 7.747 0 11.626-8.047 11.626-24.145 0-19.928-4.218-29.89-12.647-29.89-7.496 0-11.242 7.747-11.242 23.247v1.92z"/></svg>