<svg xmlns="http://www.w3.org/2000/svg" width="100" height="100"><circle fill="#D9D2CB" cx="50" cy="49.998" r="50"/><path fill="#111314" d="M77.442 70.103L71.546 90h-48.99v-4.253c2.38-2.652 7.594-8 15.645-16.053 4.85-4.852 9.65-9.972 14.408-15.37 2.378-2.652 4.21-4.943 5.487-6.863 2.836-4.113 4.255-8.32 4.255-12.623 0-4.204-1.3-7.912-3.908-11.112-2.607-3.204-5.97-4.808-10.09-4.808-8.87 0-15.823 5.998-20.854 17.98l-4.395-1.647C29.05 18.42 38.423 10 51.233 10c6.314 0 11.688 2.15 16.125 6.45 4.44 4.3 6.656 9.603 6.656 15.92 0 8.05-4.617 15.917-13.858 23.6l-9.604 7.956c-6.13 5.127-11.212 9.93-15.23 14.412-.28.273-.827.916-1.648 1.92h25.52c3.933 0 6.908-.775 8.92-2.334 1.734-1.372 3.433-3.98 5.08-7.82h4.248z"/></svg>