<svg xmlns="http://www.w3.org/2000/svg" width="55.306" height="100"><path fill="#161818" d="M55.305 50.243c.059-5.344-1.639-10.739-4.967-14.928-1.607-1.771-2.93-3.787-4.633-5.461-3.754-3.726-9.375-3.974-13.896-6.321-.264-2.358-1.125-4.715-.604-7.093.16-.791.393-1.593-.029-2.348-1.186-2.733-.166-5.699-.377-8.548-.158-1.487-.057-3.308-1.475-4.227-.33 3.097-1.469 5.979-2.391 8.918-.426 2.29-.426 4.676-1.414 6.836.627 2.188-.613 4.03-1.955 5.646-2.967 1.519-6.496 1.88-9.078 4.11-1.84 1.561-3.828 2.931-5.887 4.202-1.545 1.933-3.256 3.797-3.945 6.24-2.761 3.337-3.088 7.813-4.654 11.719-.029 5.799 1.146 12.043 4.85 16.692 2.65 2.187 4.502 5.132 7.148 7.32 2.541 1.516 5.252 2.762 7.875 4.127 1.709.399 3.475.595 5.176 1.06 1.379 7.109 2.322 14.389 5.092 21.132.918-2.768.807-5.735 1.6-8.532 1.119-4.135-1.176-8.44.117-12.5 1.938-1.733 5.17-.608 7.32-2.095 4.092-2.523 8.422-4.98 11.391-8.839 1.105-2.22 3.426-3.877 3.426-6.54.019-3.588 2.109-6.946 1.31-10.57zm-30.373 21.931c-2.965-.72-5.727-2.138-8.213-3.871-2.676-1.783-3.674-5.11-6.314-6.933-2.473-2.951-1.938-6.982-2.951-10.476.406-2.438.885-4.856 1.139-7.325 1.205-1.956 3.066-3.515 3.582-5.87 1.768-2.532 4.459-4.284 6.619-6.48 1.572-1.813 4.074-1.048 6.139-1.119-.205 2-.367 4.069.133 6.041.244 1.212.791 2.407.604 3.676-.414 2.699.598 5.407-.117 8.075-1.443 5.577.131 11.209.268 16.832-.206 2.488-.323 4.999-.889 7.45zm22.476-10.57c-1.963 1.397-3.637 3.111-5.35 4.785-2.979 2.06-5.924 4.24-9.469 5.27.32-2.53.631-5.131-.174-7.608-1.979-5.593.445-11.445.855-17.101-.361-3.364-.016-6.952-1.559-10.049-.201-2.327.805-4.574 1.486-6.764 2.342.935 4.547 2.197 6.496 3.821 2.354 1.764 5.961 2.908 6.488 6.198.268 2.161 2.633 3.467 2.564 5.678-.147 5.256.577 10.751-1.337 15.77z"/></svg>