<svg xmlns="http://www.w3.org/2000/svg" width="100" height="100"><circle fill="#FCF9E1" cx="50" cy="50" r="50"/><path fill="#111314" d="M97.69 57.064c-6.56-3.7-10.767-5.55-12.616-5.55-1.344 0-2.395 1.032-3.154 3.09-.758 2.063-2.27 3.09-4.54 3.09-.927 0-2.82-.335-5.68-1.007-1.597 2.44-2.397 3.996-2.397 4.668 0 .926.69 2.016 2.064 3.28 1.375 1.263 2.535 1.892 3.482 1.892.6 0 1.415-.125 2.448-.38 1.03-.25 1.72-.376 2.064-.376 1.033 0 1.547 1.894 1.547 5.68 0 3.616-.84 9.167-2.524 16.653-2.188-8.58-4.5-12.87-6.938-12.87-.338 0-1.03.25-2.082.76-1.053.5-1.83.753-2.334.753-2.44 0-4.625-2.227-6.56-6.688-3.87.59-5.806 2.568-5.806 5.934 0 1.684.777 3.027 2.336 4.035 1.553 1.008 2.334 1.727 2.334 2.145 0 2.273-3.324 5.764-9.97 10.473-3.53 2.523-5.972 4.29-7.315 5.297 1.175-1.512 2.353-3.488 3.534-5.928 1.344-2.775 2.018-4.92 2.018-6.436 0-.84-.967-2.02-2.902-3.533-1.936-1.512-2.9-3.11-2.9-4.793 0-1.428.502-3.193 1.512-5.3-1.094-1.26-2.395-1.894-3.91-1.894-3.365 0-5.045 1.096-5.045 3.28v3.407c.082 2.777-2.02 4.164-6.31 4.164-3.28 0-8.792-.76-16.528-2.27 8.747-2.19 13.12-4.712 13.12-7.57 0 .335-.168-.673-.504-3.03-.338-2.605 1.514-4.96 5.55-7.064-.757-3.867-2.772-5.805-6.056-5.805-.504 0-1.432.884-2.775 2.65-1.346 1.77-2.607 2.65-3.783 2.65-2.02 0-4.63-2.185-7.822-6.56-1.516-2.185-3.83-5.425-6.94-9.716 1.933 1.012 3.868 2.02 5.804 3.03 2.523 1.177 4.54 1.767 6.057 1.767 1.18 0 2.335-1.03 3.47-3.09s2.63-3.093 4.48-3.093c.253 0 1.935.504 5.046 1.516 1.596-2.44 2.398-4.248 2.398-5.426 0-1.01-.61-2.166-1.83-3.47-1.22-1.304-2.334-1.956-3.344-1.956-.422 0-1.072.126-1.957.38-.88.252-1.533.38-1.953.38-1.516 0-2.273-1.894-2.273-5.68 0-1.01.97-6.77 2.904-17.284-.085 1.26.462 3.617 1.64 7.064 1.43 4.207 3.11 6.31 5.05 6.31.333 0 1.007-.253 2.017-.76 1.008-.503 1.807-.753 2.396-.753 1.934 0 3.53 1.094 4.795 3.277L38.9 29.81c1.767 0 3.24-.63 4.415-1.89 1.178-1.263 1.768-2.778 1.768-4.544 0-1.85-.777-3.26-2.334-4.227-1.56-.968-2.337-1.704-2.337-2.208 0-1.768 2.777-4.752 8.328-8.958 4.458-3.363 7.36-5.34 8.708-5.93-3.617 4.88-5.426 8.45-5.426 10.724 0 1.178.713 2.44 2.145 3.785 1.766 1.598 2.775 2.734 3.027 3.406.84 1.937.756 4.585-.252 7.948 2.27 1.6 3.994 2.396 5.174 2.396 2.436 0 3.658-1.264 3.658-3.785 0-.253-.105-1.052-.314-2.397-.213-1.344-.273-2.102-.19-2.27.335-1.18 2.65-1.77 6.938-1.77 2.69 0 8.283.76 16.78 2.274-1.85.504-4.626 1.26-8.325 2.27-3.365 1.01-5.05 2.145-5.05 3.406 0 .59.21 1.598.632 3.027.42 1.432.633 2.48.633 3.156 0 1.176-.758 2.27-2.27 3.277l-4.292 3.03c1.01 1.853 1.682 2.946 2.02 3.28.84 1.008 1.975 1.514 3.406 1.514 1.01 0 1.934-.883 2.775-2.648.84-1.77 2.188-2.65 4.037-2.65 2.27 0 4.838 2.103 7.697 6.31 1.594 2.357 4.076 5.93 7.44 10.724zm-28.006-7.316c0-5.38-1.98-10.05-5.932-14.006-3.953-3.953-8.62-5.93-14.004-5.93-5.47 0-10.18 1.957-14.13 5.87-3.954 3.91-5.974 8.6-6.056 14.065-.086 5.383 1.912 10.03 5.992 13.94s8.81 5.868 14.193 5.868c5.72 0 10.492-1.873 14.318-5.615 3.83-3.74 5.7-8.47 5.62-14.192zm-1.893 0c0 5.13-1.724 9.38-5.173 12.74-3.45 3.367-7.74 5.05-12.87 5.05-4.962 0-9.21-1.724-12.74-5.175-3.532-3.445-5.3-7.652-5.3-12.615 0-4.877 1.785-9.064 5.36-12.553 3.577-3.49 7.802-5.238 12.68-5.238s9.105 1.766 12.68 5.3c3.575 3.534 5.364 7.696 5.364 12.49z"/></svg>