<svg xmlns="http://www.w3.org/2000/svg" width="100" height="100"><path fill="#A8C796" d="M85.35 14.637c9.05 9.05 14.65 21.55 14.65 35.36C100 77.613 77.613 100 50 100c-13.807 0-26.305-5.596-35.354-14.646"/><path fill="#CBBEB5" d="M14.646 85.354C5.596 76.307 0 63.804 0 49.997 0 22.384 22.387 0 50 0c13.802 0 26.3 5.593 35.35 14.637"/><path fill="#111314" d="M53.257 28.11c0 2.703-.982 4.545-2.947 5.527-.574.287-2.374.677-5.404 1.166-1.963.33-2.945 1.087-2.945 2.27v4.974c0 .21.063.84.185 1.906l.185 1.965c0 .613-.144 1.617-.43 3.008-.777.163-1.68.348-2.7.554-.33-1.23-.492-2.07-.492-2.52 0-.202.05-.51.152-.92.102-.408.153-.716.153-.92 0-.285-.253-1.085-.762-2.394H37.3c-.125.204-.167.47-.127.796.165.696.226 1.288.187 1.78-.697.492-1.657 1.147-2.886 1.966-.287-.083-.39-.123-.307-.123v-4.36c-.082-.202-.286-.285-.614-.245h-.738l-.736 5.77c-.572.042-1.27.042-2.086 0-.287-1.35-.8-3.353-1.535-6.014h-.492c-.45 1.432-.695 2.21-.737 2.333 0 .162.052.48.155.95.102.47.153.787.153.95 0 .123-.04.43-.124.922l-.185 1.474c-.083.08-.184.12-.306.12-1.23 0-2.05-.305-2.456-.918-.41-.615-.575-1.475-.493-2.58l.494-7.366c0-.122.038-.286.12-.492.083-.203.124-.348.124-.428 0-.328-.348-.984-1.043-1.967-.123-.04-.758-.183-1.904-.43-.694-.163-2.066-.45-4.11-.858-2.825-.53-4.238-2.803-4.238-6.815 0-5.977 2.456-10.95 7.367-14.92.203 1.107.552 2.578 1.043 4.42l2.395.554c.247.08 1.494.533 3.745 1.35-1.146-.694-2.64-1.818-4.48-3.375-.697-.817-1.046-2.19-1.046-4.112 0-.45.778-.982 2.335-1.6 1.39-.57 2.434-.896 3.13-.98 2.21-.285 3.908-.43 5.097-.43 5.114 0 9.248 1.31 12.4 3.932-1.023 1.188-2.784 2.453-5.28 3.806.982.04 2.415-.347 4.3-1.168 1.88-.816 2.68-1.227 2.393-1.227.327 0 .982.656 1.965 1.965.735.982 1.33 1.864 1.78 2.64 1.31 2.333 2.19 4.852 2.642 7.552 0 .942.02 1.617.06 2.025v.49zM29.74 29.22c0-1.762-.766-3.43-2.3-5.007-1.536-1.576-3.185-2.363-4.944-2.363-1.555 0-2.925.66-4.113 1.977-1.187 1.32-1.78 2.782-1.78 4.39 0 1.4.675 2.308 2.027 2.718.86.248 2.065.392 3.62.434h3.377c2.742.037 4.114-.68 4.114-2.15zm6.694 7.61v-1.9c-.286-.534-.573-1.087-.858-1.66-.246-.818-.697-1.963-1.352-3.44l-.676 7.185c0 .575-.12.86-.368.86-.163 0-.287-.04-.37-.122-.285-4.34-.428-6.223-.428-5.648v-2.148c-.083-.126-.185-.187-.308-.187-1.39 1.436-2.086 3.748-2.086 6.938 0 1.76.162 2.844.49 3.257.327-.083.694-.226 1.105-.43.163-.084.634-.124 1.412-.124.775 0 1.72.247 2.823.736.41 0 .616-1.104.616-3.315zm13.876-8.554c0-1.647-.614-3.12-1.843-4.42-1.228-1.295-2.64-1.944-4.234-1.944-1.72 0-3.328.787-4.82 2.363-1.495 1.575-2.242 3.223-2.242 4.943 0 1.432.698 2.148 2.09 2.148h7.06c2.66-.04 3.99-1.07 3.99-3.09zM89.52 67.618c0 .758-.294 1.437-.88 2.043-.586.605-1.258.907-2.016.907-1.207 0-2.098-.567-2.663-1.702l-2.666-.112c-.567 0-1.684.246-3.345.737-1.778.49-2.8.888-3.065 1.19-.414.454-.755 1.514-1.02 3.177-.228 1.36-.34 2.363-.34 3.007 0 1.02.16 1.767.48 2.24.322.472.985.868 1.985 1.19 1 .318 1.616.5 1.844.538.15 0 .396-.018.737-.057h.682c.49 0 1 .077 1.532.227.755.227 1.077.528.965.907-.532-.075-1.457.037-2.78.34l1.587.794c0 .454-.643.68-1.928.68-.343 0-.807-.074-1.39-.226-.59-.154-.977-.228-1.164-.228h-.736c-.038.38-.15.943-.34 1.7-.646-.037-1.4-.416-2.27-1.132-.87-.72-1.418-1.08-1.643-1.08-.228 0-.55.36-.965 1.08-.417.716-.624 1.207-.624 1.474-.49-.267-.906-.758-1.25-1.474-.15-.495-.32-.986-.508-1.478-.38.04-1.077.835-2.1 2.384h-.283c-.077-.113-.36-.906-.852-2.384-1.172-.375-2.268-.564-3.288-.564-.49 0-1.25.112-2.27.34l-1.587-.112c.226-.228.888-.663 1.984-1.305 1.284-.76 2.27-1.138 2.95-1.138.11 0 .263.02.453.058.188.04.34.058.454.058.263 0 .69-.142 1.276-.426s.927-.54 1.02-.766c.097-.23.144-.813.144-1.76 0-2.153-.568-3.76-1.703-4.82-.983-.943-2.608-1.624-4.877-2.04-.604 2.153-2.307 3.233-5.103 3.233-.91 0-1.816-.55-2.723-1.647s-1.36-2.1-1.36-3.007c0-1.4.585-2.55 1.757-3.46-.943-.98-1.417-1.983-1.417-3.005 0-.944.292-1.775.88-2.495.585-.716 1.352-1.133 2.296-1.248-.075-1.208.32-2.042 1.19-2.495-.416-.414-.623-1.15-.623-2.21 0-1.248.414-2.288 1.247-3.12.83-.83 1.87-1.248 3.117-1.248 1.364 0 2.48.474 3.35 1.417 1.097-3.74 3.458-5.612 7.088-5.612 1.89 0 3.554.756 4.99 2.27.53.565.793.868.793.905-.45 0-.224-.086.682-.254.91-.172 1.568-.258 1.986-.258 1.474 0 2.778.55 3.915 1.646.982.984 1.663 2.23 2.042 3.742.263.04.68.15 1.245.34.832.418 1.25 1.136 1.25 2.156 0 .19-.153.55-.455 1.08 2.42 1.36 3.63 3.25 3.63 5.67 0 .68-.266 1.626-.793 2.835.985.57 1.477 1.4 1.477 2.498zm-23.37 2.496v-.737c0-.87-.423-1.664-1.274-2.382-.85-.72-1.71-1.077-2.58-1.077-1.06 0-2.042.246-2.95.735 2.005-.11 4.272 1.04 6.805 3.46zm-1.02-7.03c-.565-.647-1.057-1.306-1.473-1.986-1.59.414-2.383.888-2.383 1.416.453-.037 1.116.047 1.984.256.87.21 1.496.313 1.873.313zm3.463-1.76v-2.497c-.91-.15-1.46-.226-1.645-.226v.852l1.645 1.87zm7.372-1.588c-.454-.19-1.305-.568-2.554-1.135v4.878c1.78-1.022 2.63-2.268 2.555-3.742zm3.116 6.69L77.836 64.9c-.755.53-1.52 1.067-2.298 1.615-.775.548-1.445 1.163-2.01 1.844 1.698-.91 3.553-1.55 5.554-1.93z"/></svg>