<svg xmlns="http://www.w3.org/2000/svg" width="100" height="100"><circle fill="#D7D1C9" cx="50.001" cy="50" r="50"/><polygon fill="#111314" points="37.843,89.157 40.198,85.077 50.001,98.881 59.802,85.077 62.158,89.157 66.496,89.208 75.001,93.302 75.708,83.89 77.833,80.106 75.478,76.027 92.334,74.44 85.28,59.05 89.99,59.05 92.203,55.319 100,50 92.203,44.681 89.99,40.95 85.279,40.95 92.333,25.559 75.478,23.973 77.833,19.893 75.707,16.111 75,6.699 66.496,10.792 62.158,10.843 59.802,14.922 50,1.118 40.198,14.922 37.843,10.843 33.505,10.792 25,6.699 24.293,16.111 22.168,19.893 24.523,23.973 7.667,25.56 14.722,40.95 10.011,40.95 7.798,44.682 0,50 7.797,55.319 10.011,59.05 14.722,59.05 7.668,74.441 24.523,76.027 22.168,80.106 24.293,83.889 25.001,93.302 33.505,89.209"/><polygon fill="#fff" points="34.895,80.211 50,55.875 65.105,80.211 65.105,84.259 68.61,86.282 72.116,84.258 72.116,80.212 68.61,78.188 55.088,52.938 83.717,52.024 87.223,54.048 90.727,52.025 90.727,47.976 87.223,45.953 83.717,47.976 55.088,47.063 68.611,21.813 72.117,19.789 72.117,15.743 68.611,13.719 65.107,15.742 65.106,19.789 50.001,44.125 34.896,19.789 34.895,15.741 31.392,13.718 27.885,15.743 27.885,19.789 31.391,21.812 44.913,47.062 16.285,47.976 12.778,45.953 9.275,47.975 9.275,52.024 12.778,54.047 16.285,52.024 44.913,52.937 31.39,78.187 27.885,80.211 27.884,84.258 31.39,86.281 34.895,84.258"/><polygon fill="#fff" points="57.051,22.393 50.001,34.681 42.951,22.393 50.001,10.104"/><polygon fill="#fff" points="29.617,30.09 36.734,42.34 22.567,42.301 15.45,30.052"/><polygon fill="#fff" points="22.566,57.697 36.733,57.659 29.616,69.908 15.449,69.947"/><polygon fill="#fff" points="42.949,77.608 50,65.319 57.05,77.608 50,89.896"/><polygon fill="#fff" points="70.384,69.91 63.267,57.66 77.434,57.699 84.551,69.948"/><polygon fill="#fff" points="77.435,42.303 63.268,42.341 70.385,30.092 84.551,30.053"/></svg>