<svg xmlns="http://www.w3.org/2000/svg" width="100" height="100"><circle fill="#FCF9E1" cx="50" cy="50" r="50"/><path fill="#161818" d="M77.563 49.925c.058-5.344-1.64-10.74-4.967-14.928-1.608-1.77-2.93-3.787-4.633-5.46-3.754-3.727-9.375-3.975-13.897-6.322-.263-2.358-1.125-4.715-.603-7.093.16-.79.392-1.593-.03-2.348-1.185-2.733-.166-5.7-.377-8.548C52.898 3.74 53 1.92 51.583 1c-.33 3.097-1.47 5.98-2.392 8.918-.425 2.29-.425 4.676-1.412 6.836.626 2.188-.614 4.03-1.956 5.646-2.966 1.52-6.496 1.88-9.077 4.11-1.84 1.56-3.828 2.93-5.888 4.202-1.545 1.933-3.256 3.797-3.944 6.24-2.762 3.335-3.088 7.81-4.654 11.717-.03 5.798 1.145 12.042 4.85 16.69 2.65 2.188 4.5 5.132 7.147 7.32 2.54 1.516 5.25 2.762 7.874 4.127 1.71.4 3.476.595 5.177 1.06 1.38 7.11 2.322 14.39 5.092 21.132.918-2.77.807-5.736 1.6-8.533 1.118-4.135-1.176-8.44.117-12.5 1.938-1.733 5.17-.608 7.32-2.095 4.092-2.523 8.422-4.98 11.39-8.84 1.105-2.22 3.426-3.876 3.426-6.54.018-3.586 2.11-6.943 1.31-10.567zM47.19 71.855c-2.965-.72-5.727-2.138-8.214-3.87-2.676-1.784-3.674-5.11-6.314-6.934-2.472-2.95-1.937-6.98-2.95-10.475.406-2.438.885-4.856 1.138-7.325 1.206-1.956 3.067-3.515 3.583-5.87 1.767-2.532 4.458-4.284 6.62-6.48 1.57-1.813 4.073-1.048 6.138-1.12-.204 2-.367 4.07.134 6.042.244 1.212.79 2.407.603 3.676-.414 2.7.6 5.407-.117 8.075-1.443 5.577.13 11.21.268 16.832-.205 2.49-.32 5-.888 7.45zm22.477-10.57c-1.964 1.397-3.637 3.11-5.35 4.785-2.98 2.06-5.924 4.24-9.47 5.27.32-2.53.632-5.13-.174-7.608-1.978-5.593.446-11.445.855-17.1-.36-3.365-.016-6.953-1.558-10.05-.202-2.327.804-4.574 1.486-6.764 2.342.935 4.547 2.197 6.496 3.82 2.354 1.765 5.96 2.91 6.487 6.2.268 2.16 2.633 3.466 2.564 5.677-.148 5.256.577 10.752-1.337 15.77z"/></svg>