<svg xmlns="http://www.w3.org/2000/svg" width="100" height="100"><path fill="#FCF9E1" d="M85.349 14.637c9.052 9.05 14.651 21.551 14.651 35.36 0 27.616-22.386 50.003-50.001 50.003-13.806 0-26.305-5.596-35.354-14.646"/><path fill="#D9D2CB" d="M14.646 85.354c-9.049-9.047-14.646-21.549-14.646-35.357 0-27.613 22.386-49.997 49.999-49.997 13.804 0 26.302 5.593 35.35 14.637"/><path fill="#111314" d="M43.646 41.591l-2.866 9.676h-23.821v-2.068c1.157-1.29 3.692-3.891 7.607-7.804 2.357-2.36 4.692-4.851 7.005-7.476 1.157-1.288 2.048-2.402 2.667-3.336 1.379-1.999 2.07-4.046 2.07-6.138 0-2.045-.633-3.848-1.901-5.402-1.267-1.56-2.903-2.339-4.905-2.339-4.313 0-7.694 2.916-10.14 8.743l-2.137-.803c2.891-8.182 7.448-12.274 13.678-12.274 3.069 0 5.682 1.044 7.839 3.134 2.159 2.092 3.236 4.67 3.236 7.741 0 3.915-2.245 7.738-6.738 11.475l-4.668 3.869c-2.981 2.492-5.453 4.827-7.406 7.005-.136.136-.402.446-.802.935h12.41c1.912 0 3.359-.377 4.335-1.133.845-.669 1.67-1.936 2.47-3.805h2.067z"/><path fill="#111314" d="M88 73.112c-2.436-2.265-4.054-3.492-4.847-3.682-.577-.138-1.135.198-1.672 1.005-.537.808-1.292 1.093-2.269.859-.396-.095-1.175-.434-2.333-1.017-.938.885-1.441 1.471-1.51 1.758-.095.398.088.938.55 1.622.46.684.894 1.072 1.3 1.17.258.061.622.091 1.091.089.467-.001.777.015.926.051.444.104.469.971.078 2.597-.37 1.552-1.302 3.852-2.793 6.892-.058-3.909-.609-5.989-1.656-6.239-.145-.035-.469.003-.972.111-.504.107-.864.137-1.08.085-1.047-.251-1.758-1.432-2.13-3.546-1.723-.144-2.757.506-3.103 1.95-.173.725.024 1.382.589 1.975.564.592.824.979.783 1.16-.234.977-2.021 2.133-5.356 3.473-1.777.721-3.006 1.227-3.687 1.522.658-.528 1.369-1.256 2.126-2.182.863-1.056 1.372-1.906 1.529-2.558.086-.359-.209-.966-.883-1.815-.676-.848-.926-1.633-.753-2.355.146-.614.543-1.319 1.194-2.12-.34-.654-.834-1.06-1.486-1.215-1.444-.347-2.278-.049-2.503.891l-.349 1.462c-.25 1.2-1.296 1.58-3.138 1.14-1.409-.338-3.696-1.229-6.864-2.673 3.982-.04 6.118-.675 6.411-1.902-.032.145-.003-.307.096-1.353.123-1.154 1.16-1.976 3.109-2.464.072-1.738-.593-2.777-2.003-3.114-.216-.052-.706.232-1.463.853-.761.619-1.393.87-1.898.748-.867-.205-1.762-1.413-2.684-3.62-.426-1.095-1.087-2.723-1.983-4.885l2.181 1.897c.963.765 1.77 1.225 2.419 1.382.506.12 1.108-.204 1.808-.973.698-.768 1.445-1.058 2.24-.867.111.027.78.415 2.012 1.169.937-.883 1.466-1.577 1.587-2.083.102-.434-.04-.993-.43-1.678-.389-.686-.802-1.079-1.236-1.184-.18-.043-.472-.057-.877-.039-.405.019-.698.005-.879-.038-.649-.155-.781-1.045-.392-2.671.102-.434 1.111-2.809 3.023-7.123-.166.531-.173 1.6-.021 3.202.18 1.953.687 3.027 1.518 3.228.144.033.458-.005.945-.119.485-.112.853-.139 1.105-.078.83.198 1.404.833 1.722 1.901l.463 1.655c.757.183 1.454.064 2.089-.357.636-.421 1.046-1.011 1.227-1.769.189-.794 0-1.479-.568-2.055-.57-.576-.829-.971-.775-1.188.181-.758 1.679-1.755 4.495-2.99 2.259-.985 3.709-1.537 4.349-1.651-2.054 1.724-3.199 3.07-3.431 4.047-.122.506.055 1.121.531 1.847.595.867.911 1.459.95 1.772.161.919-.146 2.046-.925 3.389.811.92 1.469 1.439 1.977 1.561 1.044.25 1.698-.167 1.958-1.25.026-.108.063-.462.112-1.062.046-.599.098-.931.151-.995.267-.471 1.32-.487 3.162-.045 1.156.277 3.479 1.175 6.972 2.699-.847.026-2.116.065-3.809.12-1.549.087-2.388.402-2.519.943-.059.253-.074.708-.04 1.364.034.657.017 1.132-.053 1.421-.12.506-.558.896-1.311 1.175l-2.156.859c.246.898.42 1.437.531 1.616.259.52.692.854 1.307 1.001.434.104.922-.18 1.465-.854.542-.672 1.212-.913 2.006-.722.975.232 1.861 1.398 2.657 3.499.442 1.176 1.14 2.967 2.093 5.371zm-11.275-6.02c.552-2.312.184-4.52-1.108-6.623-1.292-2.104-3.094-3.433-5.404-3.986-2.348-.561-4.574-.206-6.672 1.069-2.098 1.271-3.447 3.078-4.045 5.417-.59 2.303-.21 4.504 1.141 6.603 1.349 2.098 3.18 3.425 5.492 3.978 2.455.587 4.698.274 6.725-.941 2.028-1.213 3.318-3.054 3.871-5.517zm-.813-.195c-.527 2.203-1.703 3.85-3.531 4.939-1.826 1.09-3.842 1.373-6.044.846-2.131-.51-3.778-1.687-4.941-3.531-1.163-1.844-1.488-3.83-.979-5.962.503-2.095 1.699-3.708 3.593-4.842 1.896-1.129 3.889-1.445 5.983-.943 2.094.5 3.728 1.694 4.899 3.577 1.172 1.886 1.512 3.857 1.02 5.916z"/></svg>