<svg xmlns="http://www.w3.org/2000/svg" width="100" height="100"><path fill="#CBBEB5" d="M85.349 14.637c9.052 9.05 14.651 21.551 14.651 35.36 0 27.616-22.386 50.003-50.001 50.003-13.806 0-26.305-5.596-35.354-14.646"/><path fill="#D9D2CB" d="M14.646 85.354c-9.049-9.047-14.646-21.549-14.646-35.357 0-27.613 22.386-49.997 49.999-49.997 13.804 0 26.302 5.593 35.35 14.637"/><path fill="#111314" d="M43.646 41.591l-2.866 9.676h-23.821v-2.068c1.157-1.29 3.692-3.891 7.607-7.804 2.357-2.36 4.692-4.851 7.005-7.476 1.157-1.288 2.048-2.402 2.667-3.336 1.379-1.999 2.07-4.046 2.07-6.138 0-2.045-.633-3.848-1.901-5.402-1.267-1.56-2.903-2.339-4.905-2.339-4.313 0-7.694 2.916-10.14 8.743l-2.137-.803c2.891-8.182 7.448-12.274 13.678-12.274 3.069 0 5.682 1.044 7.839 3.134 2.159 2.092 3.236 4.67 3.236 7.741 0 3.915-2.245 7.738-6.738 11.475l-4.668 3.869c-2.981 2.492-5.453 4.827-7.406 7.005-.136.136-.402.446-.802.935h12.41c1.912 0 3.359-.377 4.335-1.133.845-.669 1.67-1.936 2.47-3.805h2.067z"/><path fill="#111314" d="M89.62 65.99c0 2.702-.982 4.544-2.947 5.526-.574.287-2.374.677-5.404 1.166-1.963.329-2.946 1.086-2.946 2.271v4.973c0 .209.062.841.184 1.905l.185 1.966c0 .613-.144 1.617-.431 3.008-.777.163-1.678.348-2.701.554-.328-1.23-.491-2.069-.491-2.519 0-.203.05-.512.153-.921.102-.408.154-.716.154-.922 0-.284-.253-1.083-.762-2.393h-.953c-.126.204-.167.471-.127.797.164.696.225 1.288.185 1.781-.697.491-1.657 1.146-2.885 1.965-.289-.083-.389-.123-.308-.123v-4.36c-.081-.203-.285-.285-.614-.246h-.737l-.737 5.771c-.573.041-1.268.041-2.086 0-.287-1.35-.799-3.354-1.535-6.016h-.493c-.45 1.433-.695 2.211-.737 2.334 0 .163.052.48.155.951.101.471.153.787.153.951 0 .122-.042.43-.125.921l-.184 1.474c-.083.08-.183.121-.306.121-1.228 0-2.048-.307-2.455-.919-.412-.615-.576-1.475-.493-2.58l.493-7.366c0-.122.039-.287.121-.492.082-.203.123-.348.123-.428 0-.328-.348-.984-1.043-1.967-.123-.04-.757-.184-1.904-.431-.695-.162-2.067-.449-4.112-.857-2.825-.531-4.238-2.803-4.238-6.815 0-5.977 2.457-10.949 7.367-14.919.204 1.106.554 2.577 1.045 4.419l2.394.554c.247.081 1.494.532 3.745 1.351-1.145-.695-2.64-1.819-4.48-3.376-.697-.818-1.046-2.19-1.046-4.113 0-.452.778-.982 2.335-1.599 1.391-.572 2.434-.897 3.131-.98 2.209-.286 3.908-.431 5.096-.431 5.115 0 9.25 1.311 12.401 3.932-1.022 1.188-2.783 2.453-5.279 3.806.982.041 2.415-.347 4.298-1.168 1.882-.816 2.68-1.227 2.394-1.227.327 0 .983.655 1.965 1.964.735.982 1.329 1.864 1.78 2.64 1.31 2.333 2.19 4.852 2.641 7.552 0 .942.02 1.617.061 2.025v.49zm-23.516 1.108c0-1.761-.767-3.429-2.301-5.006-1.536-1.576-3.185-2.363-4.944-2.363-1.555 0-2.925.66-4.113 1.977-1.187 1.32-1.78 2.782-1.78 4.389 0 1.401.675 2.309 2.027 2.719.86.248 2.066.392 3.621.434h3.377c2.742.037 4.113-.679 4.113-2.15zm6.693 7.612v-1.902c-.286-.533-.573-1.087-.858-1.659-.246-.818-.697-1.964-1.351-3.44l-.676 7.184c0 .576-.122.861-.369.861-.163 0-.287-.04-.368-.123-.287-4.338-.429-6.222-.429-5.647v-2.148c-.083-.126-.185-.187-.308-.187-1.391 1.436-2.086 3.748-2.086 6.938 0 1.761.163 2.844.49 3.257.329-.083.695-.226 1.107-.431.163-.083.633-.123 1.411-.123.775 0 1.72.245 2.823.735.41-.001.614-1.104.614-3.315zm13.876-8.556c0-1.646-.614-3.119-1.842-4.418-1.228-1.296-2.64-1.945-4.234-1.945-1.72 0-3.328.787-4.821 2.362-1.495 1.576-2.242 3.223-2.242 4.944 0 1.432.697 2.148 2.088 2.148h7.059c2.662-.041 3.992-1.069 3.992-3.091z"/></svg>