<svg xmlns="http://www.w3.org/2000/svg" width="100" height="100"><circle fill="#111314" cx="50" cy="49.998" r="50"/><path fill="#fff" d="M78.945 24.277l-12.648 7.418c6.16 9.566 9.238 18.406 9.238 26.512 0 6.648-1.969 11.977-5.895 15.988-3.938 4.018-9.219 6.023-15.871 6.023-11.113 0-23.719-5.797-37.824-17.389l10.094-9.977c9.656 8.76 18.73 13.135 27.246 13.135 3.078 0 5.207-.566 6.379-1.699 1.18-1.137 1.766-3.246 1.766-6.324 0-6.162-1.867-11.594-5.594-16.295l-8.996 12.643v-34.531l32.105 4.496z"/></svg>