<svg xmlns="http://www.w3.org/2000/svg" width="508" height="100"><path fill="#D9D2CB" d="M458 0h-408.002c-27.613 0-49.998 22.385-49.998 49.998 0 27.615 22.385 50.002 49.998 50.002h408.002c27.613 0 50-22.387 50-50.002 0-27.613-22.387-49.998-50-49.998z"/><path fill="#111314" d="M84.141 85.529v-2.619c6.889-.75 10.33-3.271 10.33-7.564 0-2.543-.973-3.889-2.918-4.041l-.973-.075c-2.797-.197-4.195-1.572-4.195-4.117 0-1.447.439-2.584 1.311-3.406.875-.822 2.035-1.236 3.482-1.236 2.445 0 4.367 1.225 5.766 3.67 1.197 2.047 1.795 4.393 1.795 7.037 0 4.143-1.447 7.287-4.342 9.432-2.547 1.845-5.965 2.82-10.256 2.919z"/><path fill="#111314" d="M286.615 85.529v-2.619c6.887-.75 10.33-3.271 10.33-7.564 0-2.543-.971-3.889-2.92-4.041l-.971-.074c-2.795-.197-4.193-1.572-4.193-4.117 0-1.447.438-2.584 1.309-3.406.875-.822 2.035-1.236 3.482-1.236 2.447 0 4.369 1.225 5.768 3.67 1.195 2.047 1.793 4.393 1.793 7.037 0 4.143-1.447 7.287-4.34 9.432-2.547 1.844-5.965 2.819-10.258 2.918z"/><path fill="#111314" d="M430.529 50.367c0-9.542 2.025-18.344 6.08-26.396 5.022-9.982 11.901-14.971 20.625-14.971 8.633 0 15.377 4.247 20.225 12.735 4.051 7.006 6.08 15.149 6.08 24.425 0 9.637-2.029 18.344-6.08 26.136-4.938 9.804-11.813 14.704-20.625 14.704-8.373 0-15.023-4.199-19.961-12.604-4.228-7.177-6.344-15.186-6.344-24.029zm11.102-4.334c0 12.604 1.895 22.41 5.689 29.415 2.641 4.9 6.033 7.353 10.176 7.353 9.959 0 14.939-10.244 14.939-30.729 0-9.016-.791-16.635-2.375-22.849-2.734-10.242-7.361-15.366-13.887-15.366-9.697 0-14.543 9.896-14.543 29.68v2.496z"/><path fill="#111314" d="M369.529 50.367c0-9.542 2.023-18.344 6.078-26.396 5.024-9.982 11.903-14.971 20.625-14.971 8.633 0 15.379 4.247 20.227 12.735 4.051 7.006 6.078 15.149 6.078 24.425 0 9.637-2.027 18.344-6.078 26.136-4.938 9.804-11.813 14.704-20.625 14.704-8.375 0-15.023-4.199-19.961-12.604-4.23-7.177-6.344-15.186-6.344-24.029zm11.102-4.334c0 12.604 1.895 22.41 5.688 29.415 2.641 4.9 6.035 7.353 10.176 7.353 9.961 0 14.941-10.244 14.941-30.729 0-9.016-.793-16.635-2.375-22.849-2.734-10.242-7.363-15.366-13.887-15.366-9.699 0-14.543 9.896-14.543 29.68v2.496z"/><path fill="#111314" d="M308.213 50.367c0-9.542 2.027-18.344 6.082-26.396 5.019-9.982 11.898-14.971 20.625-14.971 8.633 0 15.375 4.247 20.223 12.735 4.051 7.006 6.082 15.149 6.082 24.425 0 9.637-2.031 18.344-6.082 26.136-4.938 9.804-11.813 14.704-20.625 14.704-8.371 0-15.023-4.199-19.961-12.604-4.227-7.177-6.344-15.186-6.344-24.029zm11.101-4.334c0 12.604 1.895 22.41 5.691 29.415 2.641 4.9 6.031 7.353 10.176 7.353 9.957 0 14.938-10.244 14.938-30.729 0-9.016-.789-16.635-2.375-22.849-2.734-10.242-7.359-15.366-13.887-15.366-9.695 0-14.543 9.896-14.543 29.68v2.496z"/><path fill="#111314" d="M226.861 50.367c0-9.542 2.027-18.344 6.082-26.396 5.02-9.982 11.899-14.971 20.625-14.971 8.633 0 15.375 4.247 20.223 12.735 4.051 7.006 6.082 15.149 6.082 24.425 0 9.637-2.031 18.344-6.082 26.136-4.937 9.804-11.812 14.704-20.625 14.704-8.371 0-15.023-4.199-19.961-12.604-4.226-7.177-6.344-15.186-6.344-24.029zm11.102-4.334c0 12.604 1.895 22.41 5.691 29.415 2.641 4.9 6.031 7.353 10.176 7.353 9.957 0 14.938-10.244 14.938-30.729 0-9.016-.789-16.635-2.375-22.849-2.734-10.242-7.359-15.366-13.887-15.366-9.695 0-14.543 9.896-14.543 29.68v2.496z"/><path fill="#111314" d="M165.861 50.367c0-9.542 2.025-18.344 6.08-26.396 5.022-9.982 11.901-14.971 20.625-14.971 8.633 0 15.377 4.247 20.225 12.735 4.051 7.006 6.078 15.149 6.078 24.425 0 9.637-2.027 18.344-6.078 26.136-4.937 9.804-11.812 14.704-20.625 14.704-8.373 0-15.023-4.199-19.961-12.604-4.228-7.177-6.344-15.186-6.344-24.029zm11.102-4.334c0 12.604 1.895 22.41 5.689 29.415 2.641 4.9 6.033 7.353 10.176 7.353 9.959 0 14.939-10.244 14.939-30.729 0-9.016-.791-16.635-2.375-22.849-2.734-10.242-7.361-15.366-13.887-15.366-9.697 0-14.543 9.896-14.543 29.68v2.496z"/><path fill="#111314" d="M104.547 50.367c0-9.542 2.025-18.344 6.08-26.396 5.021-9.982 11.9-14.971 20.625-14.971 8.633 0 15.377 4.247 20.225 12.735 4.051 7.006 6.08 15.149 6.08 24.425 0 9.637-2.029 18.344-6.08 26.136-4.938 9.804-11.813 14.704-20.625 14.704-8.373 0-15.023-4.199-19.961-12.604-4.229-7.177-6.344-15.186-6.344-24.029zm11.101-4.334c0 12.604 1.895 22.41 5.689 29.415 2.641 4.9 6.033 7.353 10.176 7.353 9.959 0 14.939-10.244 14.939-30.729 0-9.016-.791-16.635-2.375-22.849-2.734-10.242-7.361-15.366-13.887-15.366-9.697 0-14.543 9.896-14.543 29.68v2.496z"/><path fill="#111314" d="M61.793 9.001v62.506c0 7.479 3.225 11.216 9.686 11.216h1.684v4.278h-34.11v-4.278h2.141c6.246 0 9.367-3.737 9.367-11.216v-41.003c0-7.563-2.695-11.352-8.08-11.352h-3.428v-4.141h1.236c6.66 0 12.691-2.005 18.08-6.011h3.424z"/></svg>