<svg xmlns="http://www.w3.org/2000/svg" width="100" height="100"><path fill="#CAE0EF" d="M85.349 14.637c9.052 9.05 14.651 21.551 14.651 35.36 0 27.616-22.387 50.003-50.001 50.003-13.806 0-26.305-5.596-35.354-14.646"/><path fill="#FCF9E1" d="M14.646 85.354c-9.049-9.047-14.646-21.549-14.646-35.357 0-27.613 22.386-49.997 49.999-49.997 13.804 0 26.302 5.593 35.35 14.637"/><path fill="#111314" d="M76.722 83.675c-2.693 2.739-6.007 4.109-9.946 4.109-4.423 0-7.93-1.514-10.525-4.541-2.452-2.883-3.676-6.558-3.676-11.028 0-4.804 2.09-10.281 6.271-16.434 3.41-5.046 7.423-9.467 12.037-13.263-.672 3.076-1.009 5.262-1.009 6.56 0 2.98.935 5.886 2.812 8.721 2.305 3.365 4.06 5.864 5.261 7.496 1.874 2.835 2.812 5.599 2.812 8.289 0 3.99-1.347 7.354-4.037 10.091zm-.071-15.388c-.722-1.61-1.562-2.679-2.524-3.208.145.288.216.698.216 1.225 0 1.011-.287 2.454-.864 4.325l-.938 2.884c0 1.681.84 2.523 2.524 2.523 1.776 0 2.667-1.177 2.667-3.532-.001-1.201-.361-2.608-1.081-4.217z"/><path fill="#111314" d="M54.667 38.264c-2.436-2.264-4.054-3.492-4.848-3.682-.577-.138-1.135.198-1.672 1.005-.537.808-1.292 1.094-2.268.859-.397-.095-1.175-.434-2.333-1.017-.938.885-1.441 1.471-1.511 1.758-.095.398.089.938.55 1.622.46.684.894 1.072 1.301 1.17.257.062.622.091 1.09.089.468-.001.777.015.926.051.444.104.469.971.079 2.597-.37 1.552-1.302 3.852-2.794 6.892-.058-3.909-.609-5.989-1.655-6.239-.145-.035-.469.003-.972.111-.505.107-.864.138-1.08.086-1.048-.252-1.758-1.433-2.131-3.547-1.722-.144-2.757.506-3.103 1.95-.173.725.024 1.382.589 1.975.564.593.824.98.783 1.16-.233.977-2.021 2.133-5.356 3.473-1.777.721-3.007 1.227-3.688 1.523.659-.528 1.369-1.257 2.126-2.183.862-1.056 1.372-1.906 1.528-2.558.086-.359-.208-.966-.883-1.815-.676-.848-.926-1.633-.753-2.355.146-.614.543-1.319 1.194-2.12-.34-.654-.834-1.06-1.485-1.215-1.444-.346-2.279-.049-2.504.891l-.349 1.462c-.25 1.2-1.296 1.58-3.138 1.14-1.409-.338-3.696-1.229-6.864-2.672 3.982-.04 6.119-.675 6.412-1.903-.033.146-.003-.307.096-1.353.123-1.154 1.16-1.976 3.108-2.464.073-1.738-.593-2.776-2.003-3.114-.216-.052-.706.232-1.463.853-.76.62-1.392.87-1.898.748-.867-.205-1.762-1.413-2.684-3.62-.426-1.095-1.087-2.723-1.982-4.885l2.181 1.897c.963.765 1.77 1.225 2.419 1.382.506.12 1.108-.204 1.808-.973.698-.768 1.446-1.058 2.24-.866.111.026.78.414 2.012 1.169.937-.884 1.466-1.578 1.588-2.084.102-.434-.04-.992-.431-1.678-.389-.685-.802-1.078-1.235-1.184-.181-.043-.472-.057-.877-.038-.406.018-.699.004-.879-.039-.65-.155-.781-1.045-.392-2.671.102-.434 1.111-2.808 3.022-7.123-.166.531-.173 1.6-.021 3.202.181 1.953.687 3.027 1.518 3.228.144.034.459-.005.945-.119.485-.112.853-.139 1.105-.078.83.198 1.404.833 1.722 1.901l.463 1.656c.757.182 1.455.063 2.089-.358.636-.42 1.046-1.011 1.227-1.769.189-.794 0-1.479-.568-2.055-.57-.576-.829-.971-.775-1.188.181-.758 1.68-1.755 4.495-2.99 2.26-.985 3.709-1.537 4.349-1.651-2.054 1.724-3.199 3.07-3.431 4.047-.121.506.055 1.122.531 1.847.595.867.912 1.459.95 1.772.162.919-.146 2.047-.924 3.389.811.92 1.469 1.439 1.977 1.561 1.044.25 1.699-.167 1.958-1.25.027-.108.063-.462.112-1.061.046-.6.098-.931.151-.996.267-.471 1.32-.487 3.162-.045 1.156.277 3.479 1.175 6.972 2.699-.846.026-2.116.065-3.809.12-1.549.087-2.388.402-2.519.943-.059.254-.074.708-.04 1.364.034.657.016 1.133-.053 1.421-.12.506-.558.896-1.311 1.175l-2.156.859c.246.898.42 1.438.531 1.616.259.52.693.854 1.307 1.002.434.104.922-.181 1.465-.854.542-.671 1.212-.912 2.006-.722.975.232 1.861 1.398 2.658 3.499.442 1.174 1.14 2.965 2.093 5.37zm-11.275-6.021c.552-2.312.183-4.52-1.108-6.623-1.292-2.104-3.094-3.433-5.404-3.986-2.348-.561-4.573-.206-6.671 1.069-2.098 1.271-3.448 3.078-4.045 5.417-.59 2.303-.21 4.505 1.141 6.603 1.35 2.099 3.18 3.426 5.493 3.978 2.455.587 4.698.275 6.725-.941 2.025-1.213 3.315-3.054 3.869-5.517zm-.814-.194c-.527 2.203-1.703 3.851-3.53 4.939-1.826 1.09-3.843 1.373-6.044.846-2.131-.51-3.777-1.687-4.94-3.531-1.163-1.844-1.489-3.829-.979-5.962.503-2.095 1.698-3.708 3.592-4.841 1.896-1.129 3.889-1.446 5.984-.944 2.094.5 3.727 1.694 4.899 3.578 1.17 1.885 1.511 3.855 1.018 5.915z"/></svg>