<svg xmlns="http://www.w3.org/2000/svg" width="188" height="100"><path fill="#D9D2CB" d="M137.999 0h-88c-27.613 0-50 22.385-50 49.998 0 27.615 22.387 50.002 50 50.002h88c27.613 0 50-22.387 50-50.002 0-27.613-22.387-49.998-50-49.998z"/><path fill="#111314" d="M43.578 13v59.3c0 7.096 2.98 10.64 8.957 10.64h1.559v4.06h-31.551v-4.061h1.979c5.779 0 8.666-3.544 8.666-10.64v-38.899c0-7.177-2.494-10.77-7.475-10.77h-3.17v-3.928h1.143c6.162 0 11.74-1.903 16.725-5.703h3.167z"/><path fill="#111314" d="M63.125 52.245c0-9.052 1.908-17.402 5.729-25.042 4.732-9.469 11.212-14.203 19.435-14.203 8.137 0 14.49 4.03 19.059 12.083 3.818 6.646 5.729 14.372 5.729 23.172 0 9.142-1.91 17.403-5.729 24.795-4.653 9.302-11.131 13.95-19.436 13.95-7.891 0-14.156-3.984-18.809-11.958-3.986-6.809-5.978-14.407-5.978-22.797zm10.461-4.111c0 11.958 1.785 21.262 5.361 27.907 2.488 4.648 5.684 6.975 9.588 6.975 9.385 0 14.08-9.718 14.08-29.152 0-8.553-.748-15.781-2.24-21.677-2.576-9.718-6.936-14.578-13.084-14.578-9.139 0-13.705 9.388-13.705 28.158v2.367z"/><path fill="#111314" d="M124.459 52.245c0-9.052 1.908-17.402 5.729-25.042 4.732-9.469 11.212-14.203 19.435-14.203 8.137 0 14.49 4.03 19.059 12.083 3.818 6.646 5.729 14.372 5.729 23.172 0 9.142-1.91 17.403-5.729 24.795-4.653 9.302-11.131 13.95-19.436 13.95-7.891 0-14.156-3.984-18.809-11.958-3.986-6.809-5.978-14.407-5.978-22.797zm10.461-4.111c0 11.958 1.785 21.262 5.361 27.907 2.488 4.648 5.684 6.975 9.588 6.975 9.385 0 14.08-9.718 14.08-29.152 0-8.553-.748-15.781-2.24-21.677-2.576-9.718-6.936-14.578-13.084-14.578-9.139 0-13.705 9.388-13.705 28.158v2.367z"/></svg>