<svg xmlns="http://www.w3.org/2000/svg" width="100" height="100"><path fill="#F5A477" d="M85.349 14.637c9.052 9.05 14.651 21.551 14.651 35.36 0 27.616-22.387 50.003-50 50.003-13.807 0-26.305-5.596-35.354-14.646"/><path fill="#CAE0EF" d="M14.646 85.354c-9.05-9.047-14.646-21.549-14.646-35.357 0-27.613 22.387-49.997 50-49.997 13.802 0 26.301 5.593 35.349 14.637"/><path fill="#111314" d="M88.3 74.44c-1.718 4.099-5.13 6.146-10.24 6.146-.937 0-1.952.115-3.044.35-1.639.352-2.458.84-2.458 1.465 0 .195.136.417.41.673.272.253.508.381.703.381-.977 0-.314.029 1.987.085 2.303.06 3.747.089 4.333.089-3.394 1.989-9.07 2.906-17.029 2.75-2.614-.037-4.857-1.188-6.729-3.451-1.835-2.146-2.751-4.545-2.751-7.197 0-2.81.946-5.199 2.839-7.17 1.89-1.968 4.242-2.953 7.051-2.953.623 0 1.453.136 2.486.408 1.034.273 1.727.41 2.077.41 1.444 0 3.239-.597 5.385-1.786s3.16-1.784 3.043-1.784c-.391 4.096-1.756 6.848-4.097 8.25-1.678.977-2.516 1.933-2.516 2.867 0 .586.35 1.054 1.052 1.406.546.272 1.151.408 1.815.408 1.014 0 2.008-.623 2.984-1.872.974-1.247 1.403-2.379 1.286-3.394-.116-1.171-.037-2.576.235-4.213.077-.469.361-1.045.848-1.726.488-.684.928-1.104 1.317-1.261 0 .353-.127.938-.38 1.755-.254.82-.38 1.427-.38 1.815 0 .86.234 1.523.703 1.99.701-.271 1.324-1.15 1.872-2.634.468-1.13.74-2.224.82-3.275-1.64-.077-3.211-.82-4.711-2.226-1.501-1.404-2.252-2.925-2.252-4.563 0-.271.037-.546.117-.819.232.353.583.899 1.053 1.64.662.974 1.17 1.462 1.521 1.462.468 0 .702-.488.702-1.462 0-1.249-.332-2.38-.995-3.395-.743-1.21-1.699-1.814-2.867-1.814-.548 0-1.366.292-2.458.878-1.093.584-2.088.877-2.983.877-.273 0-1.484-.352-3.629-1.053 3.783-.625 5.676-1.19 5.676-1.699 0-1.325-2.594-2.223-7.783-2.689-.508-.039-1.443-.117-2.809-.235.155-.194 1.268-.408 3.336-.644 1.755-.192 2.983-.293 3.685-.293 9.285 0 15.175 4.507 17.673 13.521.431-.358.645-.95.645-1.78 0-1.069-.312-2.413-.937-4.034-.235-.634-.607-1.584-1.113-2.848 3.198 4.075 4.8 7.938 4.8 11.583 0 1.921-.451 3.667-1.348 5.232-.583 1.059-1.678 2.411-3.276 4.059-1.6 1.645-2.691 2.919-3.277 3.821 2.146-.586 3.551-1.035 4.214-1.347 1.481-.664 2.828-1.66 4.037-2.985 0 .509-.215 1.27-.643 2.281zm-25.514-22.996c0 .701-.391 1.151-1.17 1.347l-1.521.233c-.547.272-1.347 1.347-2.398 3.218-.119-.584-.293-1.403-.528-2.457-.351.038-.935.352-1.755.935-.351.274-.917.684-1.699 1.229.235-1.403 1.017-2.826 2.342-4.271 1.404-1.598 2.77-2.396 4.096-2.396 1.755-.001 2.633.72 2.633 2.162zm10.182 5.384c0 .662-.361 1.22-1.083 1.668s-1.434.673-2.135.673c-.938 0-1.777-.524-2.517-1.581-.898-1.286-1.814-2.125-2.75-2.516.194-.195.429-.293.704-.293.349 0 .944.272 1.783.819.837.548 1.375.82 1.61.82.195 0 .516-.272.964-.82.448-.547.946-.819 1.493-.819 1.288 0 1.931.684 1.931 2.049z"/><path fill="#111314" d="M41.116 48.156c-2.693 2.737-6.007 4.107-9.946 4.107-4.422 0-7.929-1.512-10.524-4.541-2.452-2.884-3.677-6.559-3.677-11.027 0-4.805 2.09-10.284 6.272-16.435 3.411-5.044 7.423-9.465 12.037-13.262-.673 3.077-1.009 5.262-1.009 6.558 0 2.981.935 5.889 2.811 8.723 2.306 3.363 4.061 5.863 5.262 7.497 1.874 2.835 2.812 5.599 2.812 8.287-.001 3.992-1.348 7.353-4.038 10.093zm-.072-15.387c-.721-1.611-1.561-2.68-2.523-3.21.145.289.216.697.216 1.227 0 1.01-.287 2.45-.864 4.324l-.938 2.884c0 1.681.841 2.522 2.523 2.522 1.777 0 2.668-1.178 2.668-3.532-.001-1.201-.362-2.606-1.082-4.215z"/></svg>