<svg xmlns="http://www.w3.org/2000/svg" width="100" height="100"><circle fill="#D9D2CB" cx="50" cy="49.998" r="50"/><path fill="#111314" d="M52.307 6.25v27.246c0 3.26 1.371 4.889 4.117 4.889h.715v1.865h-14.496v-1.865h.91c2.656 0 3.98-1.629 3.98-4.889v-17.873c0-3.297-1.145-4.947-3.434-4.947h-1.457v-1.805h.523c2.832 0 5.395-.875 7.688-2.621h1.454z"/><path fill="#111314" d="M61.553 80.504l-2.504 8.455h-20.82v-1.809c1.012-1.127 3.227-3.4 6.648-6.822 2.062-2.062 4.102-4.238 6.121-6.531 1.012-1.129 1.789-2.102 2.332-2.918 1.207-1.746 1.809-3.535 1.809-5.363 0-1.789-.555-3.363-1.66-4.723-1.105-1.363-2.531-2.045-4.285-2.045-3.773 0-6.727 2.551-8.863 7.643l-1.867-.701c2.527-7.15 6.508-10.73 11.953-10.73 2.684 0 4.965.914 6.855 2.74 1.887 1.828 2.828 4.082 2.828 6.766 0 3.422-1.965 6.766-5.891 10.031l-4.082 3.379c-2.605 2.182-4.766 4.223-6.473 6.127-.117.115-.352.391-.699.816h10.848c1.668 0 2.934-.33 3.789-.992.734-.582 1.457-1.691 2.156-3.322h1.805z"/><path fill="#111314" d="M20.732 49.455v-2.91h58.328v2.91h-58.328z"/></svg>