<svg xmlns="http://www.w3.org/2000/svg" width="100" height="100"><circle fill="#D9D2CB" cx="50" cy="49.998" r="50"/><path fill="#111314" d="M36.308 19.471v49.053c0 5.789 2.427 8.684 7.276 8.684h1.154v3.322h-26.061v-3.322h1.663c4.938 0 7.407-2.895 7.407-8.684v-32.192c0-5.879-2.09-8.816-6.259-8.816h-2.557v-3.32h1.023c5.021 0 9.579-1.574 13.665-4.725h2.689zm43.047 43.687v5.109c0 5.707 1.996 8.561 6.003 8.561h1.658v3.316h-24.398v-3.316h1.918c4.003 0 6.004-2.812 6.004-8.43v-5.24h-24.528v-5.109l25.932-37.814h7.412v38.578h.639c2.47 0 4.299-1.953 5.489-5.873h3.066l-1.533 10.219h-7.662zm-6.773-5.109v-32.19l-21.716 32.19h21.716z"/></svg>