<svg xmlns="http://www.w3.org/2000/svg" width="100" height="100"><circle fill="#D9D2CB" cx="50" cy="49.998" r="50"/><path fill="#111314" d="M53.244 63.266l-4.471 14.945h-36.791v-3.068c1.789-2.041 5.75-6.086 11.883-12.131 3.576-3.66 7.152-7.496 10.729-11.498 1.871-2.043 3.238-3.789 4.09-5.24 2.209-3.067 3.316-6.258 3.316-9.579 0-3.066-.998-5.812-2.998-8.238-2.002-2.428-4.539-3.639-7.6-3.639-6.643 0-11.84 4.512-15.588 13.541l-3.447-1.279c4.512-12.689 11.582-19.033 21.203-19.033 4.771 0 8.836 1.615 12.199 4.854 3.367 3.238 5.047 7.24 5.047 12.006 0 6.051-3.535 11.965-10.604 17.756l-7.152 6.004c-4.6 3.92-8.389 7.537-11.367 10.857-.256.172-.682.682-1.279 1.535h19.164c2.979 0 5.234-.641 6.768-1.918 1.279-1.02 2.557-2.98 3.83-5.875h3.068zm-.51-13.414c0-7.408 1.533-14.264 4.6-20.562 4.002-7.834 9.408-11.754 16.223-11.754 6.555 0 11.793 3.363 15.713 10.09 3.061 5.453 4.594 11.752 4.594 18.904 0 7.494-1.533 14.311-4.594 20.443-4.008 7.66-9.373 11.492-16.098 11.492-6.471 0-11.67-3.275-15.584-9.836-3.238-5.535-4.854-11.793-4.854-18.777zm8.686-3.448c0 6.389.68 12.096 2.043 17.115 2.041 7.84 5.451 11.754 10.219 11.754 7.748 0 11.627-8.047 11.627-24.145 0-19.928-4.217-29.891-12.646-29.891-7.496 0-11.242 7.748-11.242 23.248v1.919z"/></svg>