<svg xmlns="http://www.w3.org/2000/svg" width="100" height="100"><path fill="#A8C796" d="M85.349 14.637c9.052 9.05 14.651 21.551 14.651 35.36 0 27.616-22.387 50.003-50 50.003-13.807 0-26.305-5.596-35.354-14.646"/><path fill="#D9D2CB" d="M14.646 85.354c-9.05-9.047-14.646-21.549-14.646-35.357 0-27.613 22.387-49.997 50-49.997 13.804 0 26.301 5.593 35.349 14.637"/><path fill="#111314" d="M43.646 41.591l-2.866 9.676h-23.821v-2.068c1.157-1.29 3.692-3.891 7.607-7.804 2.357-2.36 4.692-4.851 7.005-7.476 1.157-1.288 2.048-2.402 2.667-3.336 1.379-1.999 2.07-4.046 2.07-6.138 0-2.045-.633-3.848-1.901-5.402-1.267-1.56-2.903-2.339-4.905-2.339-4.313 0-7.694 2.916-10.14 8.743l-2.137-.803c2.891-8.182 7.448-12.274 13.678-12.274 3.069 0 5.682 1.044 7.839 3.134 2.159 2.092 3.236 4.67 3.236 7.741 0 3.915-2.245 7.738-6.738 11.475l-4.668 3.869c-2.981 2.492-5.453 4.827-7.406 7.005-.136.136-.402.446-.802.935h12.41c1.912 0 3.359-.377 4.335-1.133.845-.669 1.67-1.936 2.47-3.805h2.067z"/><path fill="#111314" d="M89.518 67.618c0 .758-.293 1.437-.879 2.043-.586.604-1.257.906-2.015.906-1.208 0-2.098-.567-2.663-1.702l-2.667-.112c-.568 0-1.684.246-3.346.737-1.777.491-2.798.888-3.064 1.19-.415.454-.755 1.514-1.02 3.177-.228 1.361-.339 2.363-.339 3.007 0 1.019.16 1.767.481 2.24.321.472.984.868 1.984 1.189 1 .319 1.616.502 1.844.539.151 0 .396-.018.737-.057h.681c.491 0 1.002.077 1.533.227.755.227 1.078.528.965.907-.531-.074-1.456.038-2.779.34l1.586.795c0 .454-.642.679-1.928.679-.342 0-.805-.073-1.389-.225-.587-.154-.975-.228-1.163-.228h-.737c-.039.379-.151.943-.34 1.701-.645-.038-1.4-.417-2.27-1.133-.87-.72-1.418-1.079-1.643-1.079-.228 0-.55.359-.965 1.079-.417.716-.625 1.207-.625 1.474-.491-.267-.905-.758-1.249-1.474-.151-.495-.321-.986-.509-1.478-.378.039-1.077.835-2.098 2.384h-.284c-.077-.113-.361-.906-.853-2.384-1.172-.375-2.267-.564-3.288-.564-.491 0-1.249.112-2.27.34l-1.586-.112c.225-.228.888-.663 1.984-1.305 1.285-.758 2.269-1.137 2.949-1.137.112 0 .263.021.454.058.188.04.34.058.454.058.262 0 .69-.142 1.276-.426s.926-.539 1.018-.766c.098-.229.145-.813.145-1.759 0-2.154-.568-3.762-1.703-4.82-.984-.944-2.608-1.625-4.876-2.042-.605 2.154-2.307 3.234-5.104 3.234-.909 0-1.815-.548-2.723-1.646-.905-1.098-1.361-2.099-1.361-3.007 0-1.399.586-2.551 1.758-3.459-.944-.982-1.417-1.984-1.417-3.006 0-.945.292-1.776.879-2.496.586-.716 1.353-1.133 2.296-1.248-.074-1.208.321-2.042 1.191-2.495-.416-.414-.623-1.151-.623-2.211 0-1.247.415-2.287 1.248-3.119.83-.831 1.872-1.248 3.117-1.248 1.363 0 2.479.474 3.347 1.417 1.098-3.742 3.459-5.613 7.089-5.613 1.89 0 3.554.756 4.991 2.27.53.565.793.868.793.905-.453 0-.225-.086.681-.254.908-.171 1.568-.257 1.985-.257 1.474 0 2.779.55 3.915 1.646.983.984 1.664 2.23 2.042 3.742.264.039.679.151 1.246.341.832.417 1.249 1.135 1.249 2.155 0 .189-.152.549-.454 1.079 2.419 1.361 3.629 3.251 3.629 5.67 0 .681-.265 1.627-.793 2.836.985.569 1.476 1.4 1.476 2.497zm-23.366 2.496v-.737c0-.869-.425-1.664-1.275-2.382-.851-.719-1.71-1.077-2.581-1.077-1.06 0-2.042.246-2.949.735 2.003-.111 4.272 1.04 6.805 3.461zm-1.021-7.031c-.567-.646-1.058-1.305-1.474-1.985-1.589.414-2.382.888-2.382 1.416.453-.037 1.116.047 1.984.256.868.209 1.494.313 1.872.313zm3.462-1.76v-2.496c-.91-.15-1.459-.226-1.646-.226v.851l1.646 1.871zm7.372-1.587c-.455-.189-1.305-.568-2.554-1.135v4.877c1.778-1.022 2.628-2.268 2.554-3.742zm3.116 6.691l-1.246-1.529-2.298 1.615c-.775.548-1.446 1.163-2.011 1.844 1.699-.909 3.555-1.551 5.555-1.93z"/></svg>