<svg xmlns="http://www.w3.org/2000/svg" width="100" height="100"><path fill="#CAE0EF" d="M85.349 14.637c9.052 9.05 14.651 21.551 14.651 35.36 0 27.616-22.386 50.003-50.001 50.003-13.806 0-26.305-5.596-35.354-14.646"/><path fill="#D9D2CB" d="M14.646 85.354c-9.049-9.047-14.646-21.549-14.646-35.357 0-27.613 22.386-49.997 49.999-49.997 13.804 0 26.302 5.593 35.35 14.637"/><path fill="#111314" d="M76.722 83.675c-2.692 2.739-6.008 4.109-9.947 4.109-4.422 0-7.929-1.514-10.524-4.541-2.452-2.883-3.676-6.558-3.676-11.028 0-4.804 2.09-10.281 6.271-16.434 3.41-5.046 7.423-9.467 12.037-13.263-.673 3.076-1.01 5.262-1.01 6.56 0 2.98.937 5.886 2.811 8.721 2.307 3.365 4.061 5.864 5.262 7.496 1.874 2.835 2.811 5.599 2.811 8.289.001 3.99-1.344 7.354-4.035 10.091zm-.072-15.388c-.721-1.61-1.562-2.679-2.523-3.208.145.288.215.698.215 1.225 0 1.011-.287 2.454-.863 4.325l-.938 2.884c0 1.681.839 2.523 2.522 2.523 1.777 0 2.668-1.177 2.668-3.532 0-1.201-.36-2.608-1.081-4.217z"/><path fill="#111314" d="M43.646 41.593l-2.866 9.674h-23.821v-2.068c1.157-1.289 3.692-3.889 7.607-7.804 2.357-2.358 4.692-4.851 7.005-7.476 1.157-1.287 2.048-2.402 2.667-3.335 1.379-2 2.07-4.045 2.07-6.138 0-2.045-.633-3.847-1.901-5.403-1.267-1.558-2.903-2.338-4.905-2.338-4.313 0-7.694 2.915-10.14 8.742l-2.137-.801c2.891-8.184 7.448-12.276 13.678-12.276 3.069 0 5.682 1.044 7.839 3.135 2.159 2.091 3.236 4.67 3.236 7.74 0 3.915-2.245 7.74-6.738 11.477l-4.668 3.867c-2.981 2.492-5.453 4.827-7.406 7.006-.136.135-.402.447-.802.936h12.41c1.912 0 3.359-.377 4.335-1.135.845-.667 1.67-1.936 2.47-3.803h2.067z"/></svg>