<svg xmlns="http://www.w3.org/2000/svg" width="100" height="100"><path fill="#F5A477" d="M85.349 14.637c9.052 9.05 14.651 21.551 14.651 35.36 0 27.616-22.387 50.003-50 50.003-13.807 0-26.305-5.596-35.354-14.646"/><path fill="#CBBEB5" d="M14.646 85.354c-9.05-9.047-14.646-21.549-14.646-35.357 0-27.613 22.387-49.997 50-49.997 13.802 0 26.301 5.593 35.349 14.637"/><path fill="#111314" d="M88.3 74.44c-1.718 4.099-5.13 6.146-10.24 6.146-.937 0-1.952.115-3.044.35-1.639.352-2.458.84-2.458 1.465 0 .195.136.417.41.673.272.253.508.381.703.381-.977 0-.314.029 1.987.085 2.303.06 3.747.089 4.333.089-3.394 1.989-9.07 2.906-17.029 2.75-2.614-.037-4.857-1.188-6.729-3.451-1.835-2.146-2.751-4.545-2.751-7.197 0-2.81.946-5.199 2.839-7.17 1.89-1.968 4.242-2.953 7.051-2.953.623 0 1.453.136 2.486.408 1.034.273 1.727.41 2.077.41 1.444 0 3.239-.597 5.385-1.786s3.16-1.784 3.043-1.784c-.391 4.096-1.756 6.848-4.097 8.25-1.678.977-2.516 1.933-2.516 2.867 0 .586.35 1.054 1.052 1.406.546.272 1.151.408 1.815.408 1.014 0 2.008-.623 2.984-1.872.974-1.247 1.403-2.379 1.286-3.394-.116-1.171-.037-2.576.235-4.213.077-.469.361-1.045.848-1.726.488-.684.928-1.104 1.317-1.261 0 .353-.127.938-.38 1.755-.254.82-.38 1.427-.38 1.815 0 .86.234 1.523.703 1.99.701-.271 1.324-1.15 1.872-2.634.468-1.13.74-2.224.82-3.275-1.64-.077-3.211-.82-4.711-2.226-1.501-1.404-2.252-2.925-2.252-4.563 0-.271.037-.546.117-.819.232.353.583.899 1.053 1.64.662.974 1.17 1.462 1.521 1.462.468 0 .702-.488.702-1.462 0-1.249-.332-2.38-.995-3.395-.743-1.21-1.699-1.814-2.867-1.814-.548 0-1.366.292-2.458.878-1.093.584-2.088.877-2.983.877-.273 0-1.484-.352-3.629-1.053 3.783-.625 5.676-1.19 5.676-1.699 0-1.325-2.594-2.223-7.783-2.689-.508-.039-1.443-.117-2.809-.235.155-.194 1.268-.408 3.336-.644 1.755-.192 2.983-.293 3.685-.293 9.285 0 15.175 4.507 17.673 13.521.431-.358.645-.95.645-1.78 0-1.069-.312-2.413-.937-4.034-.235-.634-.607-1.584-1.113-2.848 3.198 4.075 4.8 7.938 4.8 11.583 0 1.921-.451 3.667-1.348 5.232-.583 1.059-1.678 2.411-3.276 4.059-1.6 1.645-2.691 2.919-3.277 3.821 2.146-.586 3.551-1.035 4.214-1.347 1.481-.664 2.828-1.66 4.037-2.985 0 .509-.215 1.27-.643 2.281zm-25.514-22.996c0 .701-.391 1.151-1.17 1.347l-1.521.233c-.547.272-1.347 1.347-2.398 3.218-.119-.584-.293-1.403-.528-2.457-.351.038-.935.352-1.755.935-.351.274-.917.684-1.699 1.229.235-1.403 1.017-2.826 2.342-4.271 1.404-1.598 2.77-2.396 4.096-2.396 1.755-.001 2.633.72 2.633 2.162zm10.182 5.384c0 .662-.361 1.22-1.083 1.668s-1.434.673-2.135.673c-.938 0-1.777-.524-2.517-1.581-.898-1.286-1.814-2.125-2.75-2.516.194-.195.429-.293.704-.293.349 0 .944.272 1.783.819.837.548 1.375.82 1.61.82.195 0 .516-.272.964-.82.448-.547.946-.819 1.493-.819 1.288 0 1.931.684 1.931 2.049z"/><path fill="#111314" d="M53.257 28.111c0 2.702-.982 4.544-2.948 5.526-.574.287-2.373.677-5.403 1.166-1.964.329-2.946 1.087-2.946 2.271v4.973c0 .209.062.841.184 1.906l.185 1.965c0 .613-.144 1.617-.431 3.008-.777.163-1.678.348-2.7.554-.329-1.229-.491-2.069-.491-2.519 0-.203.05-.512.152-.921.102-.408.154-.716.154-.921 0-.284-.253-1.084-.762-2.393h-.953c-.126.204-.167.47-.127.796.165.696.225 1.288.185 1.781-.697.491-1.657 1.146-2.885 1.965-.289-.083-.389-.123-.308-.123v-4.36c-.082-.202-.286-.285-.614-.245h-.737l-.737 5.771c-.573.041-1.268.041-2.086 0-.287-1.35-.799-3.354-1.534-6.015h-.493c-.45 1.432-.696 2.21-.737 2.333 0 .163.052.48.155.951.101.471.152.787.152.951 0 .122-.042.43-.125.921l-.183 1.474c-.083.08-.184.121-.307.121-1.228 0-2.048-.306-2.455-.919-.411-.615-.576-1.475-.493-2.58l.493-7.366c0-.122.039-.286.121-.492.082-.203.123-.348.123-.428 0-.328-.348-.984-1.043-1.967-.123-.039-.758-.183-1.904-.43-.696-.163-2.067-.45-4.112-.858-2.824-.531-4.237-2.803-4.237-6.815 0-5.977 2.456-10.949 7.367-14.919.204 1.106.553 2.577 1.044 4.419l2.394.554c.247.081 1.495.533 3.745 1.351-1.146-.695-2.64-1.819-4.48-3.376-.697-.818-1.046-2.19-1.046-4.113 0-.451.778-.982 2.335-1.599 1.391-.572 2.434-.897 3.131-.98 2.209-.286 3.908-.431 5.096-.431 5.115 0 9.249 1.311 12.401 3.932-1.022 1.188-2.783 2.453-5.279 3.806.982.041 2.415-.347 4.298-1.168 1.882-.816 2.68-1.227 2.394-1.227.327 0 .982.655 1.965 1.964.735.982 1.329 1.864 1.78 2.64 1.31 2.333 2.19 4.852 2.641 7.552 0 .942.02 1.617.061 2.025v.489zm-23.516 1.108c0-1.761-.767-3.429-2.301-5.006-1.536-1.576-3.184-2.363-4.943-2.363-1.555 0-2.925.66-4.114 1.977-1.187 1.32-1.78 2.782-1.78 4.389 0 1.401.675 2.309 2.027 2.719.859.248 2.065.392 3.621.434h3.376c2.742.038 4.114-.679 4.114-2.15zm6.692 7.612v-1.902c-.286-.533-.573-1.086-.858-1.659-.246-.818-.697-1.963-1.351-3.44l-.676 7.185c0 .575-.121.86-.368.86-.163 0-.287-.04-.369-.122-.287-4.339-.429-6.223-.429-5.648v-2.148c-.083-.126-.185-.187-.308-.187-1.391 1.436-2.086 3.748-2.086 6.938 0 1.761.163 2.844.49 3.257.329-.083.695-.226 1.107-.431.163-.083.633-.123 1.412-.123.775 0 1.719.246 2.823.735.409 0 .613-1.104.613-3.315zm13.876-8.555c0-1.647-.614-3.119-1.842-4.419-1.229-1.296-2.64-1.945-4.235-1.945-1.719 0-3.328.787-4.821 2.363-1.494 1.575-2.242 3.223-2.242 4.943 0 1.432.697 2.148 2.088 2.148h7.06c2.662-.041 3.992-1.069 3.992-3.09z"/></svg>