<svg xmlns="http://www.w3.org/2000/svg" width="100" height="100"><circle fill="#D7D1C9" cx="49.875" cy="50.069" r="50"/><path fill="#111314" d="M94.651 55.916l-10.57 12.728-2.59-2.588c1.007-2.541 1.644-4.878 1.907-7.013.262-2.132.154-4.11-.324-5.934-.048-.238-.107-.467-.18-.682-.071-.217-.155-.421-.252-.612-.383-1.149-.959-2.229-1.727-3.235-.767-1.009-1.868-2.23-3.306-3.668l-7.552-7.695-35.093 35.095c-3.069 3.067-4.724 5.729-4.963 7.98-.241 2.255.863 4.604 3.309 7.049l1.007.863-2.733 2.731-23.012-23.011 2.732-2.732 1.15 1.149c2.397 2.494 4.722 3.622 6.976 3.381 2.253-.238 4.891-1.871 7.911-4.89l35.165-35.167-7.838-7.838c-2.205-2.109-4.087-3.584-5.645-4.422-1.559-.84-3.37-1.187-5.429-1.043-.289 0-.59.012-.9.035-.312.025-.636.061-.971.108-.624.048-1.175.119-1.653.216-.48.096-.936.167-1.367.216l-.395.107c-.12.023-.276.037-.468.036-.528.144-1.128.311-1.798.503-.673.19-1.511.408-2.518.647l-2.373-2.518 12.44-10.858 51.06 51.062z"/></svg>