<svg xmlns="http://www.w3.org/2000/svg" width="100" height="100"><circle fill="#CAE0EF" cx="50" cy="50" r="50"/><path fill="#161818" d="M77.562 49.925c.058-5.344-1.64-10.739-4.967-14.928-1.608-1.771-2.93-3.787-4.633-5.461-3.754-3.726-9.375-3.974-13.897-6.321-.263-2.358-1.125-4.715-.603-7.093.159-.791.392-1.593-.029-2.348-1.186-2.733-.167-5.699-.378-8.548-.159-1.487-.057-3.307-1.474-4.226-.33 3.097-1.469 5.979-2.392 8.918-.426 2.29-.426 4.676-1.413 6.836.626 2.188-.614 4.03-1.956 5.646-2.966 1.519-6.496 1.88-9.077 4.11-1.841 1.561-3.828 2.931-5.888 4.202-1.545 1.933-3.256 3.797-3.944 6.24-2.762 3.335-3.088 7.811-4.654 11.717-.029 5.799 1.146 12.043 4.85 16.692 2.65 2.187 4.502 5.131 7.148 7.319 2.54 1.516 5.251 2.762 7.874 4.127 1.71.399 3.475.595 5.176 1.06 1.38 7.109 2.322 14.389 5.092 21.132.919-2.768.808-5.735 1.601-8.532 1.118-4.135-1.176-8.44.117-12.5 1.938-1.733 5.17-.608 7.32-2.095 4.092-2.523 8.422-4.98 11.39-8.839 1.105-2.22 3.426-3.877 3.426-6.54.019-3.587 2.109-6.944 1.311-10.568zm-30.374 21.93c-2.965-.72-5.727-2.138-8.214-3.871-2.676-1.783-3.674-5.11-6.314-6.933-2.472-2.951-1.937-6.982-2.95-10.476.406-2.438.885-4.856 1.138-7.325 1.206-1.956 3.067-3.515 3.583-5.87 1.767-2.532 4.458-4.284 6.619-6.48 1.572-1.813 4.074-1.048 6.139-1.119-.205 2-.368 4.069.133 6.041.244 1.212.791 2.407.603 3.676-.414 2.699.599 5.407-.117 8.075-1.443 5.577.131 11.209.268 16.832-.205 2.489-.321 4.999-.888 7.45zm22.477-10.57c-1.964 1.397-3.637 3.111-5.351 4.785-2.979 2.06-5.923 4.24-9.469 5.27.32-2.53.632-5.131-.174-7.608-1.978-5.593.446-11.445.855-17.101-.361-3.364-.016-6.952-1.558-10.049-.202-2.327.804-4.574 1.486-6.764 2.342.935 4.547 2.197 6.496 3.821 2.354 1.764 5.96 2.908 6.487 6.198.269 2.161 2.634 3.467 2.565 5.678-.148 5.256.577 10.752-1.337 15.77z"/></svg>